<svg xmlns="http://www.w3.org/2000/svg" viewBox="0 0 340.57 121.49"><defs><style>.cls-1,.cls-9{fill:#fff;}.cls-1,.cls-13,.cls-14,.cls-15,.cls-16,.cls-2,.cls-20,.cls-21,.cls-6,.cls-7{stroke:#495565;}.cls-1,.cls-13,.cls-14,.cls-15,.cls-16,.cls-17,.cls-2,.cls-20,.cls-21,.cls-3,.cls-4,.cls-6,.cls-7{stroke-miterlimit:10;}.cls-1,.cls-2{stroke-width:1.32px;}.cls-12,.cls-13,.cls-14,.cls-15,.cls-16,.cls-17,.cls-2,.cls-20,.cls-21,.cls-3,.cls-4,.cls-5,.cls-6,.cls-7{fill:none;}.cls-12,.cls-13,.cls-16,.cls-2,.cls-21,.cls-3,.cls-4,.cls-5,.cls-7{stroke-linecap:round;}.cls-15,.cls-16,.cls-2{opacity:0.15;}.cls-3,.cls-4{stroke:#007dab;}.cls-3{stroke-width:1.06px;opacity:0.3;}.cls-4,.cls-5,.cls-6,.cls-7{stroke-width:1.06px;}.cls-11,.cls-4{opacity:0.5;}.cls-5{stroke:#4a5565;}.cls-12,.cls-5{stroke-linejoin:round;}.cls-8{fill:#007dab;}.cls-10,.cls-11,.cls-18,.cls-19{fill:#495565;}.cls-10,.cls-22{opacity:0.8;}.cls-12{stroke:#999;}.cls-12,.cls-13,.cls-14,.cls-15,.cls-16{stroke-width:0.89px;}.cls-17{stroke:#7e8c93;stroke-width:0.75px;stroke-dasharray:2 1;}.cls-19,.cls-21{opacity:0.15;}.cls-19,.cls-21,.cls-22{isolation:isolate;}.cls-20,.cls-21{stroke-width:0.85px;}</style></defs><title>Artboard 1</title><g id="Load_Balancer" data-name="Load Balancer"><path class="cls-1" d="M106.28,71.91a6.09,6.09,0,0,1-6.14-5.56A6,6,0,0,1,106.08,60v.66a17.85,17.85,0,0,1,34.45-6.59l.6,0A11.91,11.91,0,0,1,153,66a11.73,11.73,0,0,1-.4,3,4,4,0,0,1-3.83,2.91H106.28Z"/><line class="cls-2" x1="159.39" y1="77.86" x2="110.91" y2="77.86"/><line class="cls-2" x1="112.43" y1="80.51" x2="102.98" y2="80.51"/><path class="cls-2" d="M110.54,66a4.63,4.63,0,1,0-4.63,4.63h44.9A10.43,10.43,0,0,0,151.88,66a10.58,10.58,0,1,0-21.16,0"/><circle class="cls-3" cx="218.22" cy="63.16" r="7.46"/><path class="cls-4" d="M218.22,55.7a7.46,7.46,0,1,1,0,14.92"/><circle class="cls-5" cx="218.22" cy="63.16" r="8.04"/><circle class="cls-6" cx="234.78" cy="63.16" r="2.3"/><circle class="cls-6" cx="200.13" cy="63.16" r="4.02"/><line class="cls-7" x1="209.69" y1="63.16" x2="204.15" y2="63.16"/><line class="cls-7" x1="232.28" y1="63.16" x2="226.74" y2="63.16"/><circle class="cls-6" cx="229.45" cy="51.68" r="2.3"/><line class="cls-7" x1="227.69" y1="53.45" x2="224.13" y2="57.01"/><circle class="cls-6" cx="229.45" cy="74.63" r="2.3"/><line class="cls-7" x1="227.69" y1="72.87" x2="224.13" y2="69.31"/><circle class="cls-5" cx="218.22" cy="63.16" r="8.04"/><polygon class="cls-8" points="82.33 57.46 87.02 62.25 62.02 62.25 62.02 64.53 86.99 64.53 82.33 69.2 83.94 70.81 91.41 63.34 83.94 55.85 82.33 57.46"/><polygon class="cls-8" points="188.96 63.34 181.49 55.85 179.88 57.46 184.57 62.25 159.57 62.25 159.57 64.53 184.54 64.53 179.88 69.2 181.49 70.81 188.96 63.34"/><g id="user-bkgd"><rect class="cls-9" x="22.54" y="46.39" width="16.9" height="22.74" rx="8.14" ry="8.14"/><rect class="cls-9" x="37.79" y="49.62" width="16.9" height="22.52" rx="8.45" ry="8.45"/><rect class="cls-9" x="42.03" y="46.46" width="8.43" height="9.88" rx="3.95" ry="3.95"/><path class="cls-9" d="M25.53,71.89l5.73,5.73L37,72.22a12.8,12.8,0,0,1-1.13-5.57H26.49A17.54,17.54,0,0,1,25.53,71.89Z"/><path class="cls-9" d="M42.55,69.72c0,1.73-.16,4.68-1,5.81,0,0,.4,4.19,4.27,4.35s4.84-3.63,5-4c-1.21-1.78-1.21-4.68-1.21-5.33Z"/></g><path class="cls-10" d="M22.46,55.43c.08-3,1.94-9.08,8.51-9.08s8.44,6.34,8.44,6.74A7.13,7.13,0,0,0,38,55.75L36.82,54l-1.29-.16H28.92L26.07,52.1l-.79,1.56-1.21-.08Z"/><path class="cls-11" d="M37.55,60.68c-.12-4,1.05-10.57,8.15-10.9s9,6.14,8.88,8.56C51.67,58,48.93,57,47.72,54.46c-2.18,3.8-5,6.22-9.52,6.38Z"/><path class="cls-11" d="M41.67,50.43c.4-1.62,1.53-3.88,4.43-4a4.35,4.35,0,0,1,4.44,3.8,10.18,10.18,0,0,0-4.37-.77c-.8.17-4.1.52-4.58,1.33Z"/><g id="users"><path class="cls-12" d="M44.39,49.25a8.09,8.09,0,0,1,1.78-.19h0a8,8,0,0,1,1.78.19"/><path class="cls-13" d="M42.52,71.45s0,7.21-5.56,7.21"/><path class="cls-13" d="M49.82,71.45s0,7.21,5.57,7.21"/><rect class="cls-14" x="37.71" y="49.5" width="16.92" height="22.71" rx="8.46" ry="8.46"/><path class="cls-15" d="M49.84,71.82a8.34,8.34,0,0,1-3.67.83h0a8.33,8.33,0,0,1-3.66-.83"/><path class="cls-14" d="M48.62,50.17A10.69,10.69,0,0,1,37.94,60.86"/><path class="cls-15" d="M37.94,61.3a10.67,10.67,0,0,0,9.52-5.84l.16.12a8.46,8.46,0,0,0,7,3.72"/><path class="cls-14" d="M54.63,58.41a8.46,8.46,0,0,1-7-3.72"/><path class="cls-14" d="M50.62,75.33a4.45,4.45,0,1,1-8.9,0"/><path class="cls-14" d="M37.87,65.62A8.44,8.44,0,0,1,31,69.09h0a8.45,8.45,0,0,1-8.46-8.46V54.85A8.45,8.45,0,0,1,31,46.39h0a8.48,8.48,0,0,1,8.27,6.67"/><path class="cls-15" d="M36,67.9a8.41,8.41,0,0,1-5,1.64h0a8.44,8.44,0,0,1-4.54-1.32"/><polyline class="cls-13" points="37.87 56.18 37.43 54.73 36.54 53.84 28.97 53.84 26.07 52.1"/><polyline class="cls-16" points="37.43 56.63 36.98 55.17 36.09 54.28 28.97 54.28 26.07 52.55"/><polyline class="cls-14" points="26.07 48.09 26.07 52.1 25.18 53.88 23.91 53.88 22.58 55.66"/><polyline class="cls-16" points="24.74 54.33 23.91 54.33 22.58 56.11"/><path class="cls-15" d="M37.69,66.38a8.47,8.47,0,0,1-.42-2.63V58a8.38,8.38,0,0,1,2.25-5.74"/><polyline class="cls-13" points="36.98 72.07 31.39 77.66 25.63 71.89"/><path class="cls-14" d="M41.72,50.84a4.45,4.45,0,1,1,8.9,0"/><path class="cls-13" d="M26.49,67.89a11.13,11.13,0,0,1-.86,4,4.91,4.91,0,0,1-4.7,3.2"/><path class="cls-13" d="M36,67.89A10.92,10.92,0,0,0,37,72.08a4.87,4.87,0,0,0,4.62,3"/><line class="cls-12" x1="26.3" y1="78.77" x2="20.95" y2="78.77"/></g><polyline class="cls-17" points="277.05 45.09 263.55 45.09 263.55 80.59 277.05 80.59"/><line class="cls-17" x1="238.22" y1="63.09" x2="263.72" y2="63.09"/><line class="cls-17" x1="263.88" y1="56.09" x2="278.05" y2="56.09"/><line class="cls-17" x1="263.88" y1="68.76" x2="278.05" y2="68.76"/><polygon class="cls-9" points="277.59 84.43 277.59 75.67 279.03 74.24 318.63 74.24 320.07 75.67 320.07 84.43 277.59 84.43"/><path class="cls-18" d="M318.45,74.66l1.19,1.19V84H278V75.85l1.19-1.19h39.25m.35-.85H278.85l-.25.25-1.19,1.19-.25.25v9.36h43.33V75.5l-.25-.25-1.19-1.19-.25-.25Z"/><polygon class="cls-9" points="277.59 72.54 277.59 63.78 279.03 62.34 318.63 62.34 320.07 63.78 320.07 72.54 277.59 72.54"/><path class="cls-18" d="M318.45,62.77,319.64,64v8.15H278V64l1.19-1.19h39.25m.35-.85H278.85l-.25.25-1.19,1.19-.25.24V73h43.33V63.6l-.25-.24-1.19-1.19-.25-.25Z"/><polygon class="cls-9" points="277.59 60.64 277.59 51.89 279.03 50.45 318.63 50.45 320.07 51.89 320.07 60.64 277.59 60.64"/><path class="cls-18" d="M318.45,50.87l1.19,1.19v8.16H278V52.06l1.19-1.19h39.25m.35-.85H278.85l-.25.25-1.19,1.19-.25.25v9.36h43.33V51.71l-.25-.25-1.19-1.19L318.8,50Z"/><path class="cls-19" d="M299.25,82.31l-1.7-1.7H281.84l-1.7,1.7v2.55h19.11V82.31Z"/><path class="cls-20" d="M298.83,84.43H280.56v-2L282,81h15.39l1.44,1.44Z"/><path class="cls-19" d="M299.25,70.41l-1.7-1.7H281.84l-1.7,1.7V73h19.11V70.41Z"/><path class="cls-20" d="M298.83,72.54H280.56v-2L282,69.14h15.39l1.44,1.44Z"/><path class="cls-19" d="M299.25,58.52l-1.7-1.7H281.84l-1.7,1.7v2.55h19.11V58.52Z"/><path class="cls-18" d="M312.85,77.63a1.7,1.7,0,1,1-1.7,1.7,1.7,1.7,0,0,1,1.7-1.7m0-.85a2.55,2.55,0,1,0,2.54,2.55,2.55,2.55,0,0,0-2.54-2.55Z"/><circle class="cls-8" cx="312.85" cy="79.33" r="1.27"/><path class="cls-21" d="M316,79.27a3,3,0,1,1-5.95,0h-8.49"/><g id="dots_grill" data-name="dots/grill" class="cls-22"><path class="cls-19" d="M282.81,79.7a.4.4,0,0,1-.39-.26.44.44,0,0,1,0-.32.34.34,0,0,1,.09-.14.42.42,0,0,1,.46-.09.39.39,0,0,1,.23.23.29.29,0,0,1,0,.16.41.41,0,0,1,0,.16.71.71,0,0,1-.1.14A.41.41,0,0,1,282.81,79.7Z"/><path class="cls-19" d="M284.51,79.7a.4.4,0,0,1-.39-.26.41.41,0,0,1,0-.16.4.4,0,0,1,.26-.39.36.36,0,0,1,.32,0,.39.39,0,0,1,.23.23.34.34,0,0,1,0,.32.4.4,0,0,1-.39.26Z"/><path class="cls-19" d="M286.21,79.7a.42.42,0,0,1-.3-.12.41.41,0,0,1,0-.6.42.42,0,0,1,.46-.09.34.34,0,0,1,.14.09.41.41,0,0,1,0,.6A.42.42,0,0,1,286.21,79.7Z"/><path class="cls-19" d="M287.91,79.7a.4.4,0,0,1-.39-.26.32.32,0,0,1,0-.16.42.42,0,0,1,0-.16.34.34,0,0,1,.09-.14.42.42,0,0,1,.14-.09.36.36,0,0,1,.32,0,.42.42,0,0,1,.14.09.34.34,0,0,1,.09.14.41.41,0,0,1,0,.16.45.45,0,0,1,0,.16.4.4,0,0,1-.39.26Z"/><path class="cls-19" d="M289.61,79.7a.4.4,0,0,1-.39-.26.32.32,0,0,1,0-.16.29.29,0,0,1,0-.16.39.39,0,0,1,.23-.23.36.36,0,0,1,.32,0,.42.42,0,0,1,.14.09.34.34,0,0,1,.09.14.41.41,0,0,1,0,.16.45.45,0,0,1,0,.16.4.4,0,0,1-.39.26Z"/><path class="cls-19" d="M291.31,79.7a.41.41,0,0,1-.3-.12.43.43,0,0,1-.13-.3.29.29,0,0,1,0-.16.39.39,0,0,1,.23-.23.36.36,0,0,1,.32,0,.42.42,0,0,1,.14.09.34.34,0,0,1,.09.14.41.41,0,0,1,0,.16.41.41,0,0,1-.42.42Z"/><path class="cls-19" d="M293,79.7a.42.42,0,0,1-.3-.12.41.41,0,0,1,0-.6.3.3,0,0,1,.13-.09.38.38,0,0,1,.33,0,.42.42,0,0,1-.16.81Z"/><path class="cls-19" d="M294.71,79.7a.41.41,0,0,1-.3-.12.41.41,0,0,1,0-.6.3.3,0,0,1,.13-.09.38.38,0,0,1,.33,0,.42.42,0,0,1-.16.81Z"/><path class="cls-19" d="M296.41,79.7a.45.45,0,0,1-.31-.12.67.67,0,0,1-.09-.14.45.45,0,0,1,0-.16.41.41,0,0,1,0-.16.48.48,0,0,1,.09-.14.42.42,0,0,1,.14-.09.38.38,0,0,1,.33,0,.42.42,0,0,1,.14.09.47.47,0,0,1,.12.3.41.41,0,0,1-.42.42Z"/><path class="cls-19" d="M298.1,79.7a.45.45,0,0,1-.16,0,.55.55,0,0,1-.14-.09.42.42,0,0,1-.12-.3.41.41,0,0,1,0-.16.34.34,0,0,1,.09-.14.43.43,0,0,1,.47-.09.42.42,0,0,1,.14.09.47.47,0,0,1,.12.3.42.42,0,0,1-.12.3A.43.43,0,0,1,298.1,79.7Z"/><path class="cls-19" d="M282,78.85a.41.41,0,0,1-.42-.42.39.39,0,0,1,.12-.3.43.43,0,0,1,.47-.09.38.38,0,0,1,.13.09.5.5,0,0,1,.1.14.41.41,0,0,1,0,.16.43.43,0,0,1-.13.3A.41.41,0,0,1,282,78.85Z"/><path class="cls-19" d="M283.66,78.85a.41.41,0,0,1-.42-.42.41.41,0,0,1,0-.16.34.34,0,0,1,.09-.14.42.42,0,1,1,.6.6A.41.41,0,0,1,283.66,78.85Z"/><path class="cls-19" d="M285.36,78.85a.41.41,0,0,1-.42-.42.41.41,0,0,1,0-.16.34.34,0,0,1,.09-.14.43.43,0,0,1,.6,0,.34.34,0,0,1,.09.14.41.41,0,0,1,0,.16.41.41,0,0,1-.42.42Z"/><path class="cls-19" d="M287.06,78.85a.42.42,0,0,1-.3-.12.41.41,0,0,1,0-.6.41.41,0,0,1,.46-.09.42.42,0,0,1-.16.81Z"/><path class="cls-19" d="M288.76,78.85a.42.42,0,0,1-.3-.12.41.41,0,0,1,0-.6.34.34,0,0,1,.14-.09.36.36,0,0,1,.32,0,.42.42,0,0,1,.14.09.34.34,0,0,1,.09.14.41.41,0,0,1,0,.16.41.41,0,0,1-.42.42Z"/><path class="cls-19" d="M290.46,78.85a.42.42,0,0,1-.3-.12.41.41,0,0,1,0-.6.41.41,0,0,1,.46-.09.42.42,0,0,1-.16.81Z"/><path class="cls-19" d="M292.16,78.85a.41.41,0,0,1-.3-.12.71.71,0,0,1-.1-.14.45.45,0,0,1,0-.16.43.43,0,0,1,.13-.3A.34.34,0,0,1,292,78a.36.36,0,0,1,.32,0,.42.42,0,0,1-.16.81Z"/><path class="cls-19" d="M293.86,78.85a.41.41,0,0,1-.3-.12.41.41,0,0,1,0-.6.3.3,0,0,1,.13-.09.38.38,0,0,1,.33,0,.4.4,0,0,1,.26.39.45.45,0,0,1,0,.16.4.4,0,0,1-.39.26Z"/><path class="cls-19" d="M295.56,78.85a.41.41,0,0,1-.3-.12.39.39,0,0,1-.13-.3.43.43,0,0,1,.73-.3.47.47,0,0,1,.12.3.41.41,0,0,1-.42.42Z"/><path class="cls-19" d="M297.26,78.85a.45.45,0,0,1-.31-.12.47.47,0,0,1-.12-.3.41.41,0,0,1,0-.16.48.48,0,0,1,.09-.14.42.42,0,0,1,.14-.09.38.38,0,0,1,.33,0,.42.42,0,0,1,.14.09.34.34,0,0,1,.09.14.41.41,0,0,1,0,.16.42.42,0,0,1-.12.3A.44.44,0,0,1,297.26,78.85Z"/><path class="cls-19" d="M299,78.85a.44.44,0,0,1-.3-.12.42.42,0,0,1-.12-.3.41.41,0,0,1,0-.16.48.48,0,0,1,.09-.14.42.42,0,0,1,.14-.09.38.38,0,0,1,.33,0,.42.42,0,0,1,.14.09.48.48,0,0,1,.09.14.41.41,0,0,1,0,.16.47.47,0,0,1-.12.3A.45.45,0,0,1,299,78.85Z"/><path class="cls-19" d="M282.81,78a.41.41,0,0,1-.42-.42.41.41,0,0,1,0-.16.34.34,0,0,1,.09-.14.42.42,0,0,1,.46-.09.39.39,0,0,1,.23.23.29.29,0,0,1,0,.16.43.43,0,0,1-.13.3A.41.41,0,0,1,282.81,78Z"/><path class="cls-19" d="M284.51,78a.41.41,0,0,1-.42-.42.41.41,0,0,1,0-.16.34.34,0,0,1,.09-.14.42.42,0,0,1,.46-.09.39.39,0,0,1,.23.23.29.29,0,0,1,0,.16.43.43,0,0,1-.13.3A.42.42,0,0,1,284.51,78Z"/><path class="cls-19" d="M286.21,78a.42.42,0,0,1-.3-.12.41.41,0,0,1,0-.6.42.42,0,0,1,.46-.09.34.34,0,0,1,.14.09.41.41,0,0,1,0,.6A.42.42,0,0,1,286.21,78Z"/><path class="cls-19" d="M287.91,78a.42.42,0,0,1-.3-.12.41.41,0,0,1,0-.6.42.42,0,0,1,.14-.09.36.36,0,0,1,.32,0,.42.42,0,0,1-.16.81Z"/><path class="cls-19" d="M289.61,78a.4.4,0,0,1-.39-.26.29.29,0,0,1,0-.16.43.43,0,0,1,.13-.3.41.41,0,0,1,.46-.09.4.4,0,0,1,.26.39.41.41,0,0,1,0,.16.4.4,0,0,1-.39.26Z"/><path class="cls-19" d="M291.31,78a.41.41,0,0,1-.3-.12.43.43,0,0,1-.13-.3.42.42,0,0,1,0-.16.39.39,0,0,1,.23-.23.36.36,0,0,1,.32,0,.42.42,0,0,1,.14.09.34.34,0,0,1,.09.14.41.41,0,0,1,0,.16.41.41,0,0,1-.42.42Z"/><path class="cls-19" d="M293,78a.41.41,0,0,1-.3-.12.71.71,0,0,1-.1-.14.41.41,0,0,1,0-.16.43.43,0,0,1,.13-.3.41.41,0,0,1,.46-.09A.42.42,0,0,1,293,78Z"/><path class="cls-19" d="M294.71,78a.41.41,0,0,1-.3-.12.41.41,0,0,1,0-.6.3.3,0,0,1,.13-.09.38.38,0,0,1,.33,0,.42.42,0,0,1-.16.81Z"/><path class="cls-19" d="M296.41,78a.45.45,0,0,1-.31-.12.67.67,0,0,1-.09-.14.44.44,0,0,1,0-.32.48.48,0,0,1,.09-.14.42.42,0,0,1,.14-.09.38.38,0,0,1,.33,0,.42.42,0,0,1,.14.09.47.47,0,0,1,.12.3.41.41,0,0,1,0,.16.4.4,0,0,1-.39.26Z"/><path class="cls-19" d="M298.1,78a.45.45,0,0,1-.16,0,.55.55,0,0,1-.14-.09.42.42,0,0,1-.09-.14.41.41,0,0,1,0-.16.47.47,0,0,1,.12-.3.43.43,0,0,1,.47-.09.42.42,0,0,1,.14.09.47.47,0,0,1,.12.3.41.41,0,0,1,0,.16.42.42,0,0,1-.09.14A.45.45,0,0,1,298.1,78Z"/></g><line class="cls-21" x1="278.57" y1="83.95" x2="319.35" y2="83.95"/><polygon class="cls-18" points="318.37 85.7 279.29 85.7 278.86 84.86 318.79 84.86 318.37 85.7"/><path class="cls-18" d="M312.85,65.74a1.7,1.7,0,1,1-1.7,1.7,1.7,1.7,0,0,1,1.7-1.7m0-.85a2.55,2.55,0,1,0,2.54,2.55,2.55,2.55,0,0,0-2.54-2.55Z"/><circle class="cls-8" cx="312.85" cy="67.44" r="1.27"/><path class="cls-21" d="M316,67.38a3,3,0,0,1-5.95,0h-8.49"/><g id="dots_grill-2" data-name="dots/grill" class="cls-22"><path class="cls-19" d="M282.81,67.81a.43.43,0,0,1-.3-.13.41.41,0,0,1-.12-.3.42.42,0,0,1,.12-.3A.44.44,0,0,1,283,67a.34.34,0,0,1,.14.09.43.43,0,0,1,.13.3.44.44,0,0,1-.43.43Z"/><path class="cls-19" d="M284.51,67.81a.43.43,0,0,1-.3-.13.38.38,0,0,1-.09-.13.51.51,0,0,1,0-.17.45.45,0,0,1,0-.16.39.39,0,0,1,.23-.23.44.44,0,0,1,.32,0,.34.34,0,0,1,.14.09.42.42,0,0,1,.09.14.32.32,0,0,1,0,.16.35.35,0,0,1,0,.17.38.38,0,0,1-.09.13A.43.43,0,0,1,284.51,67.81Z"/><path class="cls-19" d="M286.21,67.81a.43.43,0,0,1-.3-.13.42.42,0,0,1-.13-.3.43.43,0,0,1,.59-.39.34.34,0,0,1,.14.09.43.43,0,0,1,.13.3.42.42,0,0,1-.13.3A.43.43,0,0,1,286.21,67.81Z"/><path class="cls-19" d="M287.91,67.81a.43.43,0,0,1-.3-.13.38.38,0,0,1-.09-.13.35.35,0,0,1,0-.17.47.47,0,0,1,0-.16.39.39,0,0,1,.23-.23.44.44,0,0,1,.32,0,.39.39,0,0,1,.23.23.45.45,0,0,1,0,.16.51.51,0,0,1,0,.17.38.38,0,0,1-.09.13A.43.43,0,0,1,287.91,67.81Z"/><path class="cls-19" d="M289.61,67.81a.43.43,0,0,1-.3-.13.42.42,0,0,1-.13-.3.43.43,0,0,1,.13-.3.34.34,0,0,1,.14-.09.44.44,0,0,1,.32,0,.4.4,0,0,1,.26.39.41.41,0,0,1-.12.3A.43.43,0,0,1,289.61,67.81Z"/><path class="cls-19" d="M291.31,67.81a.42.42,0,0,1-.3-.13.38.38,0,0,1-.09-.13.35.35,0,0,1,0-.17.47.47,0,0,1,0-.16.42.42,0,0,1,.09-.14.34.34,0,0,1,.14-.09.44.44,0,0,1,.32,0,.39.39,0,0,1,.23.23.45.45,0,0,1,0,.16.51.51,0,0,1,0,.17.38.38,0,0,1-.09.13A.43.43,0,0,1,291.31,67.81Z"/><path class="cls-19" d="M293,67.81a.44.44,0,0,1-.43-.43.32.32,0,0,1,0-.16.42.42,0,0,1,.09-.14.3.3,0,0,1,.13-.09.47.47,0,0,1,.33,0,.39.39,0,0,1,.23.23.45.45,0,0,1,0,.16.41.41,0,0,1-.12.3A.43.43,0,0,1,293,67.81Z"/><path class="cls-19" d="M294.71,67.81a.44.44,0,0,1-.43-.43.45.45,0,0,1,0-.16.71.71,0,0,1,.1-.14.3.3,0,0,1,.13-.09.47.47,0,0,1,.33,0,.39.39,0,0,1,.23.23.45.45,0,0,1,0,.16.41.41,0,0,1-.12.3A.43.43,0,0,1,294.71,67.81Z"/><path class="cls-19" d="M296.41,67.81a.46.46,0,0,1-.31-.13.44.44,0,0,1-.09-.46.67.67,0,0,1,.09-.14.42.42,0,0,1,.14-.09.47.47,0,0,1,.33,0,.42.42,0,0,1,.14.09.47.47,0,0,1,.12.3.41.41,0,0,1-.12.3A.45.45,0,0,1,296.41,67.81Z"/><path class="cls-19" d="M298.1,67.81a.45.45,0,0,1-.16,0l-.14-.1a.41.41,0,0,1-.12-.3.47.47,0,0,1,.12-.3.45.45,0,0,1,.47-.09.42.42,0,0,1,.14.09.67.67,0,0,1,.09.14.45.45,0,0,1,0,.16.41.41,0,0,1-.12.3A.46.46,0,0,1,298.1,67.81Z"/><path class="cls-19" d="M282,67a.43.43,0,0,1-.3-.13.38.38,0,0,1-.09-.13.51.51,0,0,1,0-.17.45.45,0,0,1,0-.16.42.42,0,0,1,.09-.14.45.45,0,0,1,.47-.09.38.38,0,0,1,.13.09.71.71,0,0,1,.1.14.45.45,0,0,1,0,.16.51.51,0,0,1,0,.17.64.64,0,0,1-.1.13A.42.42,0,0,1,282,67Z"/><path class="cls-19" d="M283.66,67a.43.43,0,0,1-.3-.13.41.41,0,0,1-.12-.3.45.45,0,0,1,0-.16.42.42,0,0,1,.09-.14.43.43,0,0,1,.6,0,.42.42,0,0,1,.09.14.47.47,0,0,1,0,.16.44.44,0,0,1-.43.43Z"/><path class="cls-19" d="M285.36,67a.43.43,0,0,1-.3-.13.41.41,0,0,1-.12-.3.45.45,0,0,1,0-.16.39.39,0,0,1,.23-.23.44.44,0,0,1,.32,0,.34.34,0,0,1,.14.09.42.42,0,0,1,.09.14.45.45,0,0,1,0,.16.39.39,0,0,1-.12.3A.43.43,0,0,1,285.36,67Z"/><path class="cls-19" d="M287.06,67a.43.43,0,0,1-.3-.13.42.42,0,0,1-.13-.3.47.47,0,0,1,0-.16.42.42,0,0,1,.09-.14.45.45,0,0,1,.46-.09.39.39,0,0,1,.23.23.45.45,0,0,1,0,.16.39.39,0,0,1-.12.3A.43.43,0,0,1,287.06,67Z"/><path class="cls-19" d="M288.76,67a.43.43,0,0,1-.3-.13.42.42,0,0,1-.13-.3.43.43,0,0,1,.13-.3.34.34,0,0,1,.14-.09.44.44,0,0,1,.32,0,.4.4,0,0,1,.26.39.39.39,0,0,1-.12.3A.43.43,0,0,1,288.76,67Z"/><path class="cls-19" d="M290.46,67a.44.44,0,0,1-.43-.43.32.32,0,0,1,0-.16.42.42,0,0,1,.09-.14.41.41,0,0,1,.46-.09.39.39,0,0,1,.23.23.45.45,0,0,1,0,.16.41.41,0,0,1-.12.3A.43.43,0,0,1,290.46,67Z"/><path class="cls-19" d="M292.16,67a.43.43,0,0,1-.3-.13.42.42,0,0,1-.13-.3.43.43,0,0,1,.13-.3.34.34,0,0,1,.14-.09.44.44,0,0,1,.32,0,.4.4,0,0,1,.26.39.39.39,0,0,1-.12.3A.43.43,0,0,1,292.16,67Z"/><path class="cls-19" d="M293.86,67a.44.44,0,0,1-.43-.43.32.32,0,0,1,0-.16.42.42,0,0,1,.09-.14.3.3,0,0,1,.13-.09.47.47,0,0,1,.33,0,.39.39,0,0,1,.23.23.45.45,0,0,1,0,.16.41.41,0,0,1-.12.3A.43.43,0,0,1,293.86,67Z"/><path class="cls-19" d="M295.56,67a.49.49,0,0,1-.4-.26.47.47,0,0,1,0-.17.43.43,0,0,1,.13-.3.3.3,0,0,1,.13-.09.47.47,0,0,1,.33,0,.42.42,0,0,1,.14.09.45.45,0,0,1,.09.47.38.38,0,0,1-.09.13A.43.43,0,0,1,295.56,67Z"/><path class="cls-19" d="M297.26,67a.44.44,0,0,1-.31-.13.44.44,0,0,1-.09-.46.67.67,0,0,1,.09-.14.42.42,0,0,1,.14-.09.47.47,0,0,1,.33,0,.42.42,0,0,1,.14.09.67.67,0,0,1,.09.14.45.45,0,0,1,0,.16.41.41,0,0,1-.12.3.39.39,0,0,1-.3.13Z"/><path class="cls-19" d="M299,67a.43.43,0,0,1-.3-.13.38.38,0,0,1-.09-.13.45.45,0,0,1,.09-.47.42.42,0,0,1,.14-.09.47.47,0,0,1,.33,0,.42.42,0,0,1,.14.09.45.45,0,0,1,.09.47.38.38,0,0,1-.09.13A.46.46,0,0,1,299,67Z"/><path class="cls-19" d="M282.81,66.11a.47.47,0,0,1-.3-.12.45.45,0,0,1-.12-.31.42.42,0,0,1,.12-.3.46.46,0,0,1,.46-.09.34.34,0,0,1,.14.09.43.43,0,0,1,.13.3.46.46,0,0,1-.13.31A.45.45,0,0,1,282.81,66.11Z"/><path class="cls-19" d="M284.51,66.11a.43.43,0,0,1-.3-.13.41.41,0,0,1-.12-.3.45.45,0,0,1,0-.16.42.42,0,0,1,.09-.14.46.46,0,0,1,.46-.09.48.48,0,0,1,.14.09.42.42,0,0,1,.09.14.32.32,0,0,1,0,.16.42.42,0,0,1-.13.3A.43.43,0,0,1,284.51,66.11Z"/><path class="cls-19" d="M286.21,66.11a.47.47,0,0,1-.3-.12.46.46,0,0,1-.13-.31.43.43,0,0,1,.13-.3.46.46,0,0,1,.46-.09.34.34,0,0,1,.14.09.43.43,0,0,1,.13.3.46.46,0,0,1-.13.31A.47.47,0,0,1,286.21,66.11Z"/><path class="cls-19" d="M287.91,66.11a.47.47,0,0,1-.3-.12.46.46,0,0,1-.13-.31.43.43,0,0,1,.13-.3.45.45,0,0,1,.46-.09.4.4,0,0,1,.26.39.45.45,0,0,1-.12.31A.47.47,0,0,1,287.91,66.11Z"/><path class="cls-19" d="M289.61,66.11a.43.43,0,0,1-.3-.13.42.42,0,0,1-.13-.3.32.32,0,0,1,0-.16.42.42,0,0,1,.09-.14.48.48,0,0,1,.14-.09.44.44,0,0,1,.32,0,.67.67,0,0,1,.14.09.42.42,0,0,1,.09.14.45.45,0,0,1,0,.16.41.41,0,0,1-.12.3A.43.43,0,0,1,289.61,66.11Z"/><path class="cls-19" d="M291.31,66.11A.47.47,0,0,1,291,66a.44.44,0,0,1-.13-.31.43.43,0,0,1,.13-.3.48.48,0,0,1,.14-.09.44.44,0,0,1,.32,0,.67.67,0,0,1,.14.09.42.42,0,0,1,.12.3.45.45,0,0,1-.12.31A.47.47,0,0,1,291.31,66.11Z"/><path class="cls-19" d="M293,66.11a.47.47,0,0,1-.3-.12.46.46,0,0,1-.13-.31.43.43,0,0,1,.13-.3.38.38,0,0,1,.13-.09.47.47,0,0,1,.33,0,.4.4,0,0,1,.26.39.43.43,0,0,1-.12.31A.47.47,0,0,1,293,66.11Z"/><path class="cls-19" d="M294.71,66.11a.42.42,0,0,1-.3-.13.4.4,0,0,1-.13-.3.45.45,0,0,1,0-.16.71.71,0,0,1,.1-.14.43.43,0,0,1,.13-.09.47.47,0,0,1,.33,0,.67.67,0,0,1,.14.09.42.42,0,0,1,.09.14.45.45,0,0,1,0,.16.39.39,0,0,1-.12.3A.43.43,0,0,1,294.71,66.11Z"/><path class="cls-19" d="M296.41,66.11a.41.41,0,0,1-.43-.43.45.45,0,0,1,0-.16.39.39,0,0,1,.23-.23.47.47,0,0,1,.33,0,.67.67,0,0,1,.14.09.47.47,0,0,1,.12.3.43.43,0,0,1-.12.31A.49.49,0,0,1,296.41,66.11Z"/><path class="cls-19" d="M298.1,66.11a.45.45,0,0,1-.16,0,.61.61,0,0,1-.14-.1.41.41,0,0,1-.12-.3.45.45,0,0,1,0-.16.42.42,0,0,1,.09-.14.45.45,0,0,1,.47-.09.42.42,0,0,1,.14.09.47.47,0,0,1,.12.3.41.41,0,0,1-.12.3A.44.44,0,0,1,298.1,66.11Z"/></g><line class="cls-21" x1="278.57" y1="72.05" x2="319.35" y2="72.05"/><line class="cls-20" x1="278.86" y1="73.39" x2="318.79" y2="73.39"/><path class="cls-18" d="M312.85,53.85a1.7,1.7,0,1,1-1.7,1.69,1.69,1.69,0,0,1,1.7-1.69m0-.85a2.55,2.55,0,1,0,2.54,2.54A2.55,2.55,0,0,0,312.85,53Z"/><circle class="cls-8" cx="312.85" cy="55.54" r="1.27"/><path id="groove-under-button" class="cls-21" d="M316,55.49a3,3,0,0,1-5.95,0h-8.49"/><g id="dots_grill-3" data-name="dots/grill" class="cls-22"><path class="cls-19" d="M282.81,55.91a.42.42,0,0,1-.16-.81.36.36,0,0,1,.32,0,.34.34,0,0,1,.14.09.41.41,0,0,1,0,.6A.41.41,0,0,1,282.81,55.91Z"/><path class="cls-19" d="M284.51,55.91a.45.45,0,0,1-.16,0,.4.4,0,0,1-.26-.39.41.41,0,0,1,0-.16.34.34,0,0,1,.09-.14.42.42,0,0,1,.14-.09.36.36,0,0,1,.32,0,.39.39,0,0,1,.23.23.42.42,0,0,1,0,.16.43.43,0,0,1-.13.3A.41.41,0,0,1,284.51,55.91Z"/><path class="cls-19" d="M286.21,55.91a.42.42,0,0,1-.3-.12.43.43,0,0,1-.13-.3.43.43,0,0,1,.27-.39.36.36,0,0,1,.32,0,.46.46,0,0,1,.27.39.43.43,0,0,1-.13.3A.42.42,0,0,1,286.21,55.91Z"/><path class="cls-19" d="M287.91,55.91a.42.42,0,0,1-.3-.12.43.43,0,0,1-.13-.3.43.43,0,0,1,.27-.39.36.36,0,0,1,.32,0,.42.42,0,0,1,.14.09.34.34,0,0,1,.09.14.41.41,0,0,1,0,.16.41.41,0,0,1-.42.42Z"/><path class="cls-19" d="M289.61,55.91a.4.4,0,0,1-.39-.26.29.29,0,0,1,0-.16.43.43,0,0,1,.13-.3.34.34,0,0,1,.14-.09.36.36,0,0,1,.32,0,.4.4,0,0,1,.26.39.41.41,0,0,1,0,.16.4.4,0,0,1-.39.26Z"/><path class="cls-19" d="M291.31,55.91a.41.41,0,0,1-.3-.12.42.42,0,0,1-.09-.14.29.29,0,0,1,0-.16.43.43,0,0,1,.13-.3.34.34,0,0,1,.14-.09.44.44,0,0,1,.32,0,.4.4,0,0,1,.26.39.41.41,0,0,1,0,.16.4.4,0,0,1-.39.26Z"/><path class="cls-19" d="M293,55.91a.41.41,0,0,1-.3-.12.41.41,0,0,1,0-.6.3.3,0,0,1,.13-.09.47.47,0,0,1,.33,0,.39.39,0,0,1,.23.23.41.41,0,0,1,0,.16.41.41,0,0,1-.42.42Z"/><path class="cls-19" d="M294.71,55.91a.41.41,0,0,1-.3-.12.42.42,0,0,1-.13-.3.43.43,0,0,1,.13-.3.3.3,0,0,1,.13-.09.38.38,0,0,1,.33,0,.4.4,0,0,1,.26.39.41.41,0,0,1-.12.3A.42.42,0,0,1,294.71,55.91Z"/><path class="cls-19" d="M296.41,55.91a.45.45,0,0,1-.31-.12.67.67,0,0,1-.09-.14.44.44,0,0,1,0-.32.48.48,0,0,1,.09-.14.42.42,0,0,1,.14-.09.38.38,0,0,1,.33,0,.42.42,0,0,1,.14.09.47.47,0,0,1,.12.3.41.41,0,0,1-.12.3A.42.42,0,0,1,296.41,55.91Z"/><path class="cls-19" d="M298.1,55.91a.45.45,0,0,1-.16,0,.55.55,0,0,1-.14-.09.42.42,0,0,1-.12-.3.41.41,0,0,1,0-.16.48.48,0,0,1,.09-.14.43.43,0,0,1,.47-.09.42.42,0,0,1,.14.09.48.48,0,0,1,.09.14.41.41,0,0,1,0,.16.42.42,0,0,1-.12.3A.45.45,0,0,1,298.1,55.91Z"/><path class="cls-19" d="M282,55.06a.41.41,0,0,1-.42-.42.41.41,0,0,1,0-.16.42.42,0,0,1,.09-.14.43.43,0,0,1,.47-.09.38.38,0,0,1,.13.09.41.41,0,0,1,0,.6A.41.41,0,0,1,282,55.06Z"/><path class="cls-19" d="M283.66,55.06a.41.41,0,0,1-.42-.42.41.41,0,0,1,0-.16.42.42,0,0,1,.78,0,.29.29,0,0,1,0,.16.42.42,0,0,1-.13.3A.41.41,0,0,1,283.66,55.06Z"/><path class="cls-19" d="M285.36,55.06a.41.41,0,0,1-.42-.42.41.41,0,0,1,0-.16.42.42,0,0,1,.81.16.41.41,0,0,1-.12.3A.42.42,0,0,1,285.36,55.06Z"/><path class="cls-19" d="M287.06,55.06a.42.42,0,0,1-.3-.72.41.41,0,0,1,.46-.09.39.39,0,0,1,.23.23.41.41,0,0,1,0,.16.41.41,0,0,1-.12.3A.42.42,0,0,1,287.06,55.06Z"/><path class="cls-19" d="M288.76,55.06a.42.42,0,0,1-.3-.12.41.41,0,0,1,0-.6.34.34,0,0,1,.14-.09.41.41,0,0,1,.46.09.42.42,0,0,1-.3.72Z"/><path class="cls-19" d="M290.46,55.06a.42.42,0,0,1-.3-.12.41.41,0,0,1,0-.6.41.41,0,0,1,.46-.09.4.4,0,0,1,.26.39.41.41,0,0,1-.12.3A.42.42,0,0,1,290.46,55.06Z"/><path class="cls-19" d="M292.16,55.06a.41.41,0,0,1-.3-.12.41.41,0,0,1,0-.6.34.34,0,0,1,.14-.09.44.44,0,0,1,.32,0,.42.42,0,0,1-.16.81Z"/><path class="cls-19" d="M293.86,55.06a.41.41,0,0,1-.3-.12.43.43,0,0,1-.13-.3.29.29,0,0,1,0-.16.42.42,0,0,1,.09-.14.41.41,0,0,1,.46-.09.39.39,0,0,1,.23.23.41.41,0,0,1,0,.16.41.41,0,0,1-.42.42Z"/><path class="cls-19" d="M295.56,55.06a.41.41,0,0,1-.3-.12.42.42,0,0,1-.13-.3.43.43,0,0,1,.13-.3.3.3,0,0,1,.13-.09.38.38,0,0,1,.33,0,.42.42,0,0,1,.14.09.47.47,0,0,1,.12.3.41.41,0,0,1-.12.3A.42.42,0,0,1,295.56,55.06Z"/><path class="cls-19" d="M297.26,55.06a.43.43,0,0,1-.31-.12.45.45,0,0,1-.12-.3.47.47,0,0,1,.12-.3.42.42,0,0,1,.14-.09.38.38,0,0,1,.33,0,.39.39,0,0,1,.23.23.41.41,0,0,1,0,.16.41.41,0,0,1-.42.42Z"/><path class="cls-19" d="M299,55.06a.44.44,0,0,1-.3-.12.42.42,0,0,1-.12-.3.41.41,0,0,1,0-.16.67.67,0,0,1,.09-.14.42.42,0,0,1,.14-.09.47.47,0,0,1,.33,0,.42.42,0,0,1,.14.09.67.67,0,0,1,.09.14.41.41,0,0,1,0,.16.47.47,0,0,1-.12.3A.45.45,0,0,1,299,55.06Z"/><path class="cls-19" d="M282.81,54.21a.42.42,0,0,1-.3-.72.42.42,0,0,1,.46-.09.34.34,0,0,1,.14.09.41.41,0,0,1,0,.6A.41.41,0,0,1,282.81,54.21Z"/><path class="cls-19" d="M284.51,54.21a.45.45,0,0,1-.16,0,.4.4,0,0,1-.26-.39.41.41,0,0,1,0-.16.39.39,0,0,1,.23-.23.36.36,0,0,1,.32,0,.34.34,0,0,1,.14.09.41.41,0,0,1,0,.6A.42.42,0,0,1,284.51,54.21Z"/><path class="cls-19" d="M286.21,54.22a.44.44,0,0,1-.43-.43.47.47,0,0,1,0-.16.39.39,0,0,1,.23-.23.36.36,0,0,1,.32,0,.39.39,0,0,1,.23.23.47.47,0,0,1,0,.16.44.44,0,0,1-.43.43Z"/><path class="cls-19" d="M287.91,54.21a.4.4,0,0,1-.39-.26.29.29,0,0,1,0-.16.47.47,0,0,1,0-.16.39.39,0,0,1,.23-.23.44.44,0,0,1,.32,0,.39.39,0,0,1,.23.23.45.45,0,0,1,0,.16.41.41,0,0,1,0,.16.4.4,0,0,1-.39.26Z"/><path class="cls-19" d="M289.61,54.21a.41.41,0,0,1-.3-.12.41.41,0,0,1,0-.6.34.34,0,0,1,.14-.09.36.36,0,0,1,.32,0,.42.42,0,0,1-.16.81Z"/><path class="cls-19" d="M291.31,54.21a.42.42,0,0,1-.3-.12.41.41,0,0,1,0-.6.34.34,0,0,1,.14-.09.36.36,0,0,1,.32,0,.42.42,0,0,1-.16.81Z"/><path class="cls-19" d="M293,54.21a.41.41,0,0,1-.3-.12.43.43,0,0,1-.13-.3.32.32,0,0,1,0-.16.42.42,0,0,1,.09-.14.3.3,0,0,1,.13-.09.38.38,0,0,1,.33,0,.39.39,0,0,1,.23.23.45.45,0,0,1,0,.16.41.41,0,0,1-.42.42Z"/><path class="cls-19" d="M294.71,54.21a.41.41,0,0,1-.3-.12.42.42,0,0,1-.13-.3.43.43,0,0,1,.13-.3.3.3,0,0,1,.13-.09.47.47,0,0,1,.33,0,.4.4,0,0,1,.26.39.41.41,0,0,1-.12.3A.42.42,0,0,1,294.71,54.21Z"/><path class="cls-19" d="M296.41,54.21a.45.45,0,0,1-.31-.12A.67.67,0,0,1,296,54a.44.44,0,0,1,0-.32.67.67,0,0,1,.09-.14.45.45,0,0,1,.61,0,.47.47,0,0,1,.12.3.41.41,0,0,1-.12.3A.42.42,0,0,1,296.41,54.21Z"/><path class="cls-19" d="M298.1,54.21a.45.45,0,0,1-.16,0,.55.55,0,0,1-.14-.09.42.42,0,0,1-.12-.3.41.41,0,0,1,0-.16.42.42,0,0,1,.09-.14.43.43,0,0,1,.47-.09.42.42,0,0,1,.14.09.47.47,0,0,1,.12.3.42.42,0,0,1-.12.3A.43.43,0,0,1,298.1,54.21Z"/></g><line class="cls-21" x1="278.57" y1="60.16" x2="319.35" y2="60.16"/><line class="cls-20" x1="278.86" y1="61.49" x2="318.79" y2="61.49"/><path class="cls-20" d="M298.83,60.64H280.56v-2L282,57.24h15.39l1.44,1.44Z"/><polygon class="cls-9" points="277.59 49.14 277.59 40.39 279.03 38.95 318.63 38.95 320.07 40.39 320.07 49.14 277.59 49.14"/><path class="cls-18" d="M318.45,39.37l1.19,1.19v8.16H278V40.56l1.19-1.19h39.25m.35-.85H278.85l-.25.25L277.41,40l-.25.25v9.36h43.33V40.21l-.25-.25-1.19-1.19-.25-.25Z"/><path class="cls-19" d="M299.25,47l-1.7-1.7H281.84l-1.7,1.7v2.55h19.11V47Z"/><path class="cls-18" d="M312.85,42.35a1.7,1.7,0,1,1-1.7,1.69,1.69,1.69,0,0,1,1.7-1.69m0-.85A2.55,2.55,0,1,0,315.39,44a2.55,2.55,0,0,0-2.54-2.54Z"/><circle class="cls-8" cx="312.85" cy="44.04" r="1.27"/><path id="groove-under-button-2" data-name="groove-under-button" class="cls-21" d="M316,44A3,3,0,0,1,310,44h-8.49"/><g id="dots_grill-4" data-name="dots/grill" class="cls-22"><path class="cls-19" d="M282.81,44.41a.41.41,0,0,1-.42-.42.41.41,0,0,1,0-.16.34.34,0,0,1,.09-.14.42.42,0,0,1,.46-.09.39.39,0,0,1,.23.23.29.29,0,0,1,0,.16.43.43,0,0,1-.13.3A.41.41,0,0,1,282.81,44.41Z"/><path class="cls-19" d="M284.51,44.41a.45.45,0,0,1-.16,0,.4.4,0,0,1-.26-.39.41.41,0,0,1,0-.16.34.34,0,0,1,.09-.14.44.44,0,0,1,.6,0,.34.34,0,0,1,.09.14.42.42,0,0,1,0,.16.43.43,0,0,1-.13.3A.42.42,0,0,1,284.51,44.41Z"/><path class="cls-19" d="M286.21,44.41a.42.42,0,0,1-.3-.12.43.43,0,0,1-.13-.3.43.43,0,0,1,.27-.39.36.36,0,0,1,.32,0,.46.46,0,0,1,.27.39.43.43,0,0,1-.13.3A.42.42,0,0,1,286.21,44.41Z"/><path class="cls-19" d="M287.91,44.41a.4.4,0,0,1-.39-.26.29.29,0,0,1,0-.16.42.42,0,0,1,0-.16.34.34,0,0,1,.09-.14.42.42,0,0,1,.14-.09.44.44,0,0,1,.32,0,.42.42,0,0,1,.14.09.34.34,0,0,1,.09.14.44.44,0,0,1,0,.32.4.4,0,0,1-.39.26Z"/><path class="cls-19" d="M289.61,44.41a.41.41,0,0,1-.3-.12.41.41,0,0,1,0-.6.34.34,0,0,1,.14-.09.36.36,0,0,1,.32,0,.42.42,0,0,1-.16.81Z"/><path class="cls-19" d="M291.31,44.41a.41.41,0,0,1-.3-.12.41.41,0,0,1,0-.6.34.34,0,0,1,.14-.09.36.36,0,0,1,.32,0,.42.42,0,0,1-.16.81Z"/><path class="cls-19" d="M293,44.41a.41.41,0,0,1-.3-.12.43.43,0,0,1-.13-.3.29.29,0,0,1,0-.16.34.34,0,0,1,.09-.14.3.3,0,0,1,.13-.09.47.47,0,0,1,.33,0,.42.42,0,0,1,.14.09.34.34,0,0,1,.09.14.41.41,0,0,1,0,.16.41.41,0,0,1-.42.42Z"/><path class="cls-19" d="M294.71,44.41a.41.41,0,0,1-.3-.12.43.43,0,0,1-.13-.3.41.41,0,0,1,0-.16.5.5,0,0,1,.1-.14.3.3,0,0,1,.13-.09.38.38,0,0,1,.33,0,.42.42,0,0,1,.14.09.34.34,0,0,1,.09.14.41.41,0,0,1,0,.16.41.41,0,0,1-.42.42Z"/><path class="cls-19" d="M296.41,44.41a.45.45,0,0,1-.31-.12A.47.47,0,0,1,296,44a.41.41,0,0,1,0-.16.48.48,0,0,1,.09-.14.42.42,0,0,1,.14-.09.38.38,0,0,1,.33,0,.42.42,0,0,1,.14.09.47.47,0,0,1,.12.3.42.42,0,0,1-.12.3A.44.44,0,0,1,296.41,44.41Z"/><path class="cls-19" d="M298.1,44.41a.45.45,0,0,1-.16,0,.55.55,0,0,1-.14-.09.42.42,0,0,1-.09-.14.41.41,0,0,1,0-.16.47.47,0,0,1,.12-.3.43.43,0,0,1,.47-.09.42.42,0,0,1,.14.09.47.47,0,0,1,.12.3.41.41,0,0,1,0,.16.42.42,0,0,1-.09.14A.45.45,0,0,1,298.1,44.41Z"/><path class="cls-19" d="M282,43.56a.42.42,0,0,1-.3-.72.43.43,0,0,1,.47-.09.38.38,0,0,1,.13.09.71.71,0,0,1,.1.14.41.41,0,0,1,0,.16.43.43,0,0,1-.13.3A.41.41,0,0,1,282,43.56Z"/><path class="cls-19" d="M283.66,43.56a.41.41,0,0,1-.42-.42.41.41,0,0,1,0-.16.39.39,0,0,1,.23-.23.36.36,0,0,1,.32,0,.34.34,0,0,1,.14.09.41.41,0,0,1,0,.6A.41.41,0,0,1,283.66,43.56Z"/><path class="cls-19" d="M285.36,43.56a.41.41,0,0,1-.42-.42.41.41,0,0,1,0-.16.39.39,0,0,1,.23-.23.36.36,0,0,1,.32,0,.34.34,0,0,1,.14.09.42.42,0,0,1,.09.14.41.41,0,0,1,0,.16.42.42,0,0,1-.12.3A.41.41,0,0,1,285.36,43.56Z"/><path class="cls-19" d="M287.06,43.56a.42.42,0,0,1-.3-.12.43.43,0,0,1-.13-.3.47.47,0,0,1,0-.16.42.42,0,0,1,.09-.14.41.41,0,0,1,.46-.09.39.39,0,0,1,.23.23.41.41,0,0,1,0,.16.41.41,0,0,1-.42.42Z"/><path class="cls-19" d="M288.76,43.56a.42.42,0,0,1-.3-.12.41.41,0,0,1,0-.6.34.34,0,0,1,.14-.09.41.41,0,0,1,.46.09.42.42,0,0,1-.3.72Z"/><path class="cls-19" d="M290.46,43.56a.42.42,0,0,1-.3-.12.41.41,0,0,1,0-.6.41.41,0,0,1,.46-.09.4.4,0,0,1,.26.39.41.41,0,0,1-.12.3A.42.42,0,0,1,290.46,43.56Z"/><path class="cls-19" d="M292.16,43.56a.42.42,0,0,1-.3-.12.41.41,0,0,1,0-.6.41.41,0,0,1,.46-.09.42.42,0,0,1-.16.81Z"/><path class="cls-19" d="M293.86,43.56a.41.41,0,0,1-.3-.12.71.71,0,0,1-.1-.14.41.41,0,0,1,0-.16.43.43,0,0,1,.13-.3.3.3,0,0,1,.13-.09.47.47,0,0,1,.33,0,.4.4,0,0,1,.26.39.41.41,0,0,1,0,.16.4.4,0,0,1-.39.26Z"/><path class="cls-19" d="M295.56,43.56a.39.39,0,0,1-.3-.12.43.43,0,0,1-.13-.3.41.41,0,0,1,0-.16.71.71,0,0,1,.1-.14.3.3,0,0,1,.13-.09.47.47,0,0,1,.33,0,.42.42,0,0,1,.14.09A.67.67,0,0,1,296,43a.41.41,0,0,1,0,.16.41.41,0,0,1-.42.42Z"/><path class="cls-19" d="M297.26,43.56a.45.45,0,0,1-.31-.12.42.42,0,0,1-.09-.14.41.41,0,0,1,0-.16.47.47,0,0,1,.12-.3.42.42,0,0,1,.14-.09.38.38,0,0,1,.33,0,.39.39,0,0,1,.23.23.44.44,0,0,1,0,.32.42.42,0,0,1-.09.14A.44.44,0,0,1,297.26,43.56Z"/><path class="cls-19" d="M299,43.56a.41.41,0,0,1-.42-.42.41.41,0,0,1,0-.16.67.67,0,0,1,.09-.14.42.42,0,0,1,.14-.09.47.47,0,0,1,.33,0,.42.42,0,0,1,.14.09.67.67,0,0,1,.09.14.41.41,0,0,1,0,.16.47.47,0,0,1-.12.3A.45.45,0,0,1,299,43.56Z"/><path class="cls-19" d="M282.81,42.72a.43.43,0,0,1-.3-.13.44.44,0,0,1,0-.6.42.42,0,0,1,.46-.09.34.34,0,0,1,.14.09.41.41,0,0,1,0,.6A.42.42,0,0,1,282.81,42.72Z"/><path class="cls-19" d="M284.51,42.71a.45.45,0,0,1-.16,0,.4.4,0,0,1-.26-.39.41.41,0,0,1,0-.16.42.42,0,0,1,.09-.14.43.43,0,0,1,.6,0,.51.51,0,0,1,.13.3.43.43,0,0,1-.13.3A.41.41,0,0,1,284.51,42.71Z"/><path class="cls-19" d="M286.21,42.72a.44.44,0,0,1-.43-.43.47.47,0,0,1,0-.16.39.39,0,0,1,.23-.23.36.36,0,0,1,.32,0,.39.39,0,0,1,.23.23.47.47,0,0,1,0,.16.44.44,0,0,1-.43.43Z"/><path class="cls-19" d="M287.91,42.71a.42.42,0,0,1-.3-.12.41.41,0,0,1,0-.6.42.42,0,0,1,.14-.09.44.44,0,0,1,.32,0,.42.42,0,0,1-.16.81Z"/><path class="cls-19" d="M289.61,42.71a.4.4,0,0,1-.39-.26.29.29,0,0,1,0-.16.43.43,0,0,1,.13-.3.34.34,0,0,1,.14-.09.44.44,0,0,1,.32,0,.4.4,0,0,1,.26.39.41.41,0,0,1,0,.16.4.4,0,0,1-.39.26Z"/><path class="cls-19" d="M291.31,42.71a.41.41,0,0,1-.3-.12.42.42,0,0,1-.13-.3A.43.43,0,0,1,291,42a.34.34,0,0,1,.14-.09.44.44,0,0,1,.32,0,.42.42,0,0,1-.16.81Z"/><path class="cls-19" d="M293,42.71a.42.42,0,0,1-.3-.12.41.41,0,0,1,0-.6.3.3,0,0,1,.13-.09.38.38,0,0,1,.33,0,.42.42,0,0,1-.16.81Z"/><path class="cls-19" d="M294.71,42.71a.41.41,0,0,1-.3-.12.42.42,0,0,1-.13-.3.43.43,0,0,1,.13-.3.3.3,0,0,1,.13-.09.47.47,0,0,1,.33,0,.4.4,0,0,1,.26.39.41.41,0,0,1-.12.3A.42.42,0,0,1,294.71,42.71Z"/><path class="cls-19" d="M296.41,42.71a.45.45,0,0,1-.31-.12.47.47,0,0,1-.12-.3.41.41,0,0,1,0-.16.67.67,0,0,1,.09-.14.42.42,0,0,1,.14-.09.38.38,0,0,1,.33,0,.42.42,0,0,1,.14.09.47.47,0,0,1,.12.3.42.42,0,0,1-.12.3A.44.44,0,0,1,296.41,42.71Z"/><path class="cls-19" d="M298.1,42.71a.45.45,0,0,1-.16,0,.55.55,0,0,1-.14-.09.42.42,0,0,1-.09-.14.44.44,0,0,1,0-.32.42.42,0,0,1,.09-.14.45.45,0,0,1,.61,0,.47.47,0,0,1,.12.3.41.41,0,0,1,0,.16.42.42,0,0,1-.09.14A.45.45,0,0,1,298.1,42.71Z"/></g><line class="cls-21" x1="278.57" y1="48.66" x2="319.35" y2="48.66"/><line class="cls-20" x1="278.86" y1="49.99" x2="318.79" y2="49.99"/><path class="cls-20" d="M298.83,49.14H280.56v-2L282,45.74h15.39l1.44,1.44Z"/><path class="cls-18" d="M28.19,38.18H26.35v1.7h2v.51H25.74V35.67h2.55v.51H26.35v1.5h1.84Z"/><path class="cls-18" d="M29.24,37.92c0-.35,0-.64,0-.92h.55l0,.56h0a1.25,1.25,0,0,1,1.13-.63c.46,0,1.19.28,1.19,1.44v2h-.61v-2c0-.55-.21-1-.79-1a.86.86,0,0,0-.82.63.78.78,0,0,0,0,.28v2h-.61Z"/><path class="cls-18" d="M36.12,35.42v4.1c0,.3,0,.64,0,.87h-.56l0-.59h0a1.25,1.25,0,0,1-1.15.67A1.54,1.54,0,0,1,33,38.75a1.62,1.62,0,0,1,1.52-1.82,1.15,1.15,0,0,1,1,.51h0v-2Zm-.62,3a1.18,1.18,0,0,0,0-.26.92.92,0,0,0-.89-.71c-.64,0-1,.56-1,1.31s.34,1.25,1,1.25a.94.94,0,0,0,.91-.73,1.18,1.18,0,0,0,0-.27Z"/><path class="cls-18" d="M39.39,35.67v2.8c0,1.05.47,1.5,1.1,1.5s1.15-.46,1.15-1.5v-2.8h.62v2.75c0,1.45-.76,2-1.79,2s-1.69-.55-1.69-2V35.67Z"/><path class="cls-18" d="M43.24,39.76a1.58,1.58,0,0,0,.81.25c.45,0,.66-.23.66-.51s-.18-.45-.63-.62c-.61-.22-.9-.55-.9-1a1,1,0,0,1,1.17-1,1.61,1.61,0,0,1,.83.21l-.15.44a1.36,1.36,0,0,0-.69-.19c-.37,0-.57.21-.57.46s.2.41.64.57c.59.23.89.52.89,1s-.46,1-1.26,1a1.94,1.94,0,0,1-1-.23Z"/><path class="cls-18" d="M46.51,38.81A1.08,1.08,0,0,0,47.67,40a2.2,2.2,0,0,0,.94-.18l.1.44a2.7,2.7,0,0,1-1.13.21,1.57,1.57,0,0,1-1.66-1.71,1.64,1.64,0,0,1,1.59-1.82,1.44,1.44,0,0,1,1.4,1.59c0,.13,0,.23,0,.29Zm1.8-.44a.87.87,0,0,0-.85-1,1,1,0,0,0-1,1Z"/><path class="cls-18" d="M49.74,38.06c0-.4,0-.74,0-1.06h.54l0,.67h0a1,1,0,0,1,.94-.74.44.44,0,0,1,.17,0v.58a.65.65,0,0,0-.21,0,.86.86,0,0,0-.82.79,1.23,1.23,0,0,0,0,.29v1.8h-.61Z"/><path class="cls-18" d="M52,39.76a1.66,1.66,0,0,0,.82.25c.45,0,.66-.23.66-.51s-.18-.45-.64-.62-.89-.55-.89-1a1,1,0,0,1,1.17-1,1.61,1.61,0,0,1,.83.21l-.15.44a1.4,1.4,0,0,0-.7-.19c-.36,0-.56.21-.56.46s.2.41.64.57c.59.23.89.52.89,1s-.46,1-1.27,1a1.93,1.93,0,0,1-1-.23Z"/><path class="cls-18" d="M197,35.67h.61v4.21h2v.51H197Z"/><path class="cls-18" d="M203.31,38.67a1.66,1.66,0,0,1-1.69,1.8A1.6,1.6,0,0,1,200,38.73a1.65,1.65,0,0,1,1.68-1.8A1.6,1.6,0,0,1,203.31,38.67Zm-2.69,0c0,.75.43,1.31,1,1.31s1-.56,1-1.32c0-.57-.29-1.3-1-1.3S200.62,38.06,200.62,38.7Z"/><path class="cls-18" d="M206,40.39,206,40h0a1.28,1.28,0,0,1-1,.5,1,1,0,0,1-1-1c0-.82.73-1.27,2-1.26v-.07a.7.7,0,0,0-.77-.79,1.75,1.75,0,0,0-.89.25l-.14-.4a2,2,0,0,1,1.12-.3c1,0,1.29.7,1.29,1.38v1.27a5,5,0,0,0,.05.81Zm-.09-1.73c-.67,0-1.44.11-1.44.77a.54.54,0,0,0,.59.58.85.85,0,0,0,.82-.56.75.75,0,0,0,0-.2Z"/><path class="cls-18" d="M210.53,35.42v4.1c0,.3,0,.64,0,.87H210l0-.59h0a1.25,1.25,0,0,1-1.16.67,1.54,1.54,0,0,1-1.45-1.72,1.63,1.63,0,0,1,1.52-1.82,1.15,1.15,0,0,1,1,.51h0v-2Zm-.62,3a1.22,1.22,0,0,0,0-.26.91.91,0,0,0-.89-.71c-.64,0-1,.56-1,1.31s.33,1.25,1,1.25a.92.92,0,0,0,.9-.73,1.18,1.18,0,0,0,0-.27Z"/><path class="cls-18" d="M213.19,35.73a6.62,6.62,0,0,1,1.11-.09,2,2,0,0,1,1.3.34,1,1,0,0,1,.39.83,1.12,1.12,0,0,1-.8,1h0a1.24,1.24,0,0,1,1,1.19,1.26,1.26,0,0,1-.4.94,2.37,2.37,0,0,1-1.63.44,7.06,7.06,0,0,1-.95,0Zm.61,1.94h.55c.65,0,1-.34,1-.79s-.42-.77-1-.77a2.77,2.77,0,0,0-.54,0Zm0,2.26a3.3,3.3,0,0,0,.51,0c.63,0,1.21-.23,1.21-.92s-.55-.91-1.22-.91h-.5Z"/><path class="cls-18" d="M218.91,40.39l0-.42h0a1.28,1.28,0,0,1-1,.5,1,1,0,0,1-1-1c0-.82.73-1.27,2-1.26v-.07a.7.7,0,0,0-.77-.79,1.75,1.75,0,0,0-.89.25l-.14-.4a2,2,0,0,1,1.12-.3c1,0,1.29.7,1.29,1.38v1.27a5,5,0,0,0,.05.81Zm-.09-1.73c-.67,0-1.44.11-1.44.77A.54.54,0,0,0,218,40a.85.85,0,0,0,.82-.56.75.75,0,0,0,0-.2Z"/><path class="cls-18" d="M220.48,35.42h.61v5h-.61Z"/><path class="cls-18" d="M224.08,40.39,224,40h0a1.29,1.29,0,0,1-1,.5,1,1,0,0,1-1-1c0-.82.73-1.27,2-1.26v-.07a.7.7,0,0,0-.77-.79,1.74,1.74,0,0,0-.88.25l-.14-.4a2,2,0,0,1,1.11-.3c1,0,1.29.7,1.29,1.38v1.27a5,5,0,0,0,.06.81ZM224,38.66c-.68,0-1.44.11-1.44.77a.54.54,0,0,0,.58.58.85.85,0,0,0,.82-.56.79.79,0,0,0,0-.2Z"/><path class="cls-18" d="M225.64,37.92c0-.35,0-.64,0-.92h.54l0,.56h0a1.25,1.25,0,0,1,1.12-.63c.47,0,1.2.28,1.2,1.44v2h-.62v-2c0-.55-.2-1-.78-1a.87.87,0,0,0-.83.63.79.79,0,0,0,0,.28v2h-.62Z"/><path class="cls-18" d="M232,40.27a2.41,2.41,0,0,1-1,.19,1.61,1.61,0,0,1-1.69-1.73,1.73,1.73,0,0,1,1.82-1.8,2,2,0,0,1,.86.18l-.14.47a1.5,1.5,0,0,0-.72-.16A1.17,1.17,0,0,0,230,38.7,1.16,1.16,0,0,0,231.15,40a1.71,1.71,0,0,0,.76-.17Z"/><path class="cls-18" d="M233.11,38.81A1.08,1.08,0,0,0,234.27,40a2.2,2.2,0,0,0,.94-.18l.1.44a2.7,2.7,0,0,1-1.13.21,1.57,1.57,0,0,1-1.66-1.71,1.64,1.64,0,0,1,1.59-1.82,1.44,1.44,0,0,1,1.4,1.59c0,.13,0,.23,0,.29Zm1.8-.44a.87.87,0,0,0-.85-1,1,1,0,0,0-.95,1Z"/><path class="cls-18" d="M236.34,38.06c0-.4,0-.74,0-1.06h.54l0,.67h0a1,1,0,0,1,.94-.74.44.44,0,0,1,.17,0v.58a.65.65,0,0,0-.21,0,.86.86,0,0,0-.82.79,1.23,1.23,0,0,0,0,.29v1.8h-.61Z"/><path class="cls-18" d="M269.7,31.41l-.49,1.48h-.63l1.61-4.72h.73l1.61,4.72h-.65l-.5-1.48Zm1.55-.48-.46-1.36c-.11-.31-.18-.59-.25-.86h0c-.07.28-.15.57-.24.86l-.46,1.36Z"/><path class="cls-18" d="M273.25,30.61c0-.43,0-.79,0-1.11h.56l0,.58h0a1.33,1.33,0,0,1,1.2-.65,1.54,1.54,0,0,1,1.44,1.72A1.6,1.6,0,0,1,274.92,33a1.19,1.19,0,0,1-1-.53h0v1.84h-.61Zm.61.9a2.06,2.06,0,0,0,0,.26,1,1,0,0,0,.92.72c.66,0,1-.54,1-1.31s-.35-1.26-1-1.26a1,1,0,0,0-.93.76,1.09,1.09,0,0,0,0,.25Z"/><path class="cls-18" d="M277.3,30.61c0-.43,0-.79,0-1.11h.55l0,.58h0a1.33,1.33,0,0,1,1.21-.65,1.53,1.53,0,0,1,1.43,1.72A1.6,1.6,0,0,1,279,33a1.19,1.19,0,0,1-1-.53h0v1.84h-.61Zm.61.9a2.06,2.06,0,0,0,0,.26,1,1,0,0,0,.93.72c.65,0,1-.54,1-1.31s-.36-1.26-1-1.26a1,1,0,0,0-.93.76,1.11,1.11,0,0,0,0,.25Z"/><path class="cls-18" d="M281.36,27.92H282v5h-.61Z"/><path class="cls-18" d="M283.77,28.55a.39.39,0,0,1-.77,0,.38.38,0,0,1,.39-.39A.37.37,0,0,1,283.77,28.55Zm-.69,4.34V29.5h.62v3.39Z"/><path class="cls-18" d="M287.2,32.77a2.31,2.31,0,0,1-1,.19,1.61,1.61,0,0,1-1.69-1.73,1.73,1.73,0,0,1,1.82-1.8,2,2,0,0,1,.86.18l-.14.47a1.5,1.5,0,0,0-.72-.16,1.17,1.17,0,0,0-1.19,1.28,1.16,1.16,0,0,0,1.17,1.27,1.74,1.74,0,0,0,.76-.17Z"/><path class="cls-18" d="M289.87,32.89l-.05-.42h0a1.28,1.28,0,0,1-1,.5,1,1,0,0,1-1-1c0-.82.73-1.27,2-1.26v-.07a.7.7,0,0,0-.77-.79,1.75,1.75,0,0,0-.89.25l-.14-.4a2,2,0,0,1,1.12-.3c1,0,1.29.7,1.29,1.38v1.27a5,5,0,0,0,.05.81Zm-.09-1.73c-.67,0-1.44.11-1.44.77a.54.54,0,0,0,.59.58.83.83,0,0,0,.81-.56.51.51,0,0,0,0-.2Z"/><path class="cls-18" d="M292.15,28.53v1H293V30h-.88V31.8c0,.42.12.66.46.66a1.42,1.42,0,0,0,.36,0l0,.46a1.52,1.52,0,0,1-.55.08.85.85,0,0,1-.66-.26,1.22,1.22,0,0,1-.24-.88V30H291V29.5h.53v-.81Z"/><path class="cls-18" d="M294.48,28.55a.36.36,0,0,1-.39.38.37.37,0,0,1-.37-.38.38.38,0,0,1,.38-.39A.36.36,0,0,1,294.48,28.55Zm-.68,4.34V29.5h.61v3.39Z"/><path class="cls-18" d="M298.57,31.17a1.66,1.66,0,0,1-1.69,1.8,1.61,1.61,0,0,1-1.62-1.74,1.65,1.65,0,0,1,1.68-1.8A1.6,1.6,0,0,1,298.57,31.17Zm-2.69,0c0,.75.43,1.31,1,1.31s1-.56,1-1.32c0-.57-.29-1.3-1-1.3S295.88,30.56,295.88,31.2Z"/><path class="cls-18" d="M299.42,30.42c0-.35,0-.64,0-.92h.55l0,.56h0a1.25,1.25,0,0,1,1.13-.63c.46,0,1.19.28,1.19,1.44v2h-.61V30.94c0-.55-.21-1-.79-1a.86.86,0,0,0-.82.63.78.78,0,0,0-.05.28v2h-.61Z"/><path class="cls-18" d="M304.86,32.15a2.19,2.19,0,0,0,1.1.31c.62,0,1-.33,1-.81s-.25-.69-.89-.94-1.24-.67-1.24-1.33a1.35,1.35,0,0,1,1.52-1.28,2.14,2.14,0,0,1,1.05.23l-.17.49a1.93,1.93,0,0,0-.9-.22c-.64,0-.89.38-.89.71s.29.65.94.91,1.21.69,1.21,1.38S307,33,305.91,33a2.41,2.41,0,0,1-1.2-.3Z"/><path class="cls-18" d="M308.83,31.31A1.1,1.1,0,0,0,310,32.49a2.15,2.15,0,0,0,.93-.18l.11.44a2.74,2.74,0,0,1-1.13.21,1.58,1.58,0,0,1-1.67-1.71,1.64,1.64,0,0,1,1.59-1.82,1.43,1.43,0,0,1,1.4,1.59,1.85,1.85,0,0,1,0,.29Zm1.81-.44a.87.87,0,0,0-.85-1,1,1,0,0,0-1,1Z"/><path class="cls-18" d="M312.07,30.56c0-.4,0-.74,0-1.06h.54l0,.67h0a1,1,0,0,1,.94-.74.47.47,0,0,1,.17,0V30a.68.68,0,0,0-.21,0,.88.88,0,0,0-.83.79,2.33,2.33,0,0,0,0,.29v1.8h-.61Z"/><path class="cls-18" d="M314.84,29.5l.66,1.91a7.25,7.25,0,0,1,.28.87h0c.08-.28.17-.56.28-.87l.66-1.91h.65l-1.33,3.39h-.59l-1.29-3.39Z"/><path class="cls-18" d="M318.31,31.31a1.09,1.09,0,0,0,1.16,1.18,2.2,2.2,0,0,0,.94-.18l.11.44a2.74,2.74,0,0,1-1.13.21,1.58,1.58,0,0,1-1.67-1.71,1.64,1.64,0,0,1,1.59-1.82,1.43,1.43,0,0,1,1.4,1.59,1.85,1.85,0,0,1,0,.29Zm1.81-.44a.88.88,0,0,0-.86-1,1,1,0,0,0-.94,1Z"/><path class="cls-18" d="M321.54,30.56c0-.4,0-.74,0-1.06h.54l0,.67h0a1,1,0,0,1,.94-.74.52.52,0,0,1,.18,0V30a.71.71,0,0,0-.21,0,.87.87,0,0,0-.83.79,2.16,2.16,0,0,0,0,.29v1.8h-.61Z"/><path class="cls-18" d="M323.82,32.26a1.58,1.58,0,0,0,.81.25c.45,0,.66-.23.66-.51s-.17-.45-.63-.62c-.61-.22-.9-.55-.9-1a1,1,0,0,1,1.17-1,1.62,1.62,0,0,1,.84.21l-.16.44a1.36,1.36,0,0,0-.69-.19c-.37,0-.57.21-.57.46s.2.41.65.57.89.52.89,1-.47,1-1.27,1a1.9,1.9,0,0,1-.95-.23Z"/></g></svg>