<?xml version="1.0" encoding="UTF-8" standalone="no"?><!DOCTYPE svg PUBLIC "-//W3C//DTD SVG 1.1//EN" "http://www.w3.org/Graphics/SVG/1.1/DTD/svg11.dtd"><!-- Generated by graphviz version 2.40.1 (20161225.0304)
 --><!-- Title: %0 Pages: 1 --><svg xmlns="http://www.w3.org/2000/svg" xmlns:xlink="http://www.w3.org/1999/xlink" width="530pt" height="207pt" viewBox="0.00 0.00 529.57 207.40">
<g id="graph0" class="graph" transform="scale(1 1) rotate(0) translate(4 203.4)">
<title>%0</title>
<polygon fill="#ffffff" stroke="transparent" points="-4,4 -4,-203.4 525.566,-203.4 525.566,4 -4,4"/>
<text text-anchor="middle" x="260.783" y="-8.2" font-family="Times,serif" font-size="14.00" fill="#000000"> ziplist 编码的有序集合对象</text>
<!-- redisObject -->
<g id="node1" class="node">
<title>redisObject</title>
<polygon fill="none" stroke="#000000" points="0,-41.3 0,-198.9 197.566,-198.9 197.566,-41.3 0,-41.3"/>
<text text-anchor="middle" x="98.783" y="-182.3" font-family="Times,serif" font-size="14.00" fill="#000000">redisObject</text>
<polyline fill="none" stroke="#000000" points="0,-174.1 197.566,-174.1 "/>
<text text-anchor="middle" x="98.783" y="-157.5" font-family="Times,serif" font-size="14.00" fill="#000000">type </text>
<text text-anchor="middle" x="98.783" y="-140.7" font-family="Times,serif" font-size="14.00" fill="#000000"> REDIS_ZSET</text>
<polyline fill="none" stroke="#000000" points="0,-132.5 197.566,-132.5 "/>
<text text-anchor="middle" x="98.783" y="-115.9" font-family="Times,serif" font-size="14.00" fill="#000000">encoding </text>
<text text-anchor="middle" x="98.783" y="-99.1" font-family="Times,serif" font-size="14.00" fill="#000000"> REDIS_ENCODING_ZIPLIST</text>
<polyline fill="none" stroke="#000000" points="0,-90.9 197.566,-90.9 "/>
<text text-anchor="middle" x="98.783" y="-74.3" font-family="Times,serif" font-size="14.00" fill="#000000">ptr</text>
<polyline fill="none" stroke="#000000" points="0,-66.1 197.566,-66.1 "/>
<text text-anchor="middle" x="98.783" y="-49.5" font-family="Times,serif" font-size="14.00" fill="#000000">...</text>
</g>
<!-- ziplist -->
<g id="node2" class="node">
<title>ziplist</title>
<polygon fill="none" stroke="#000000" points="233.566,-60.1 233.566,-96.1 521.566,-96.1 521.566,-60.1 233.566,-60.1"/>
<text text-anchor="middle" x="377.566" y="-74" font-family="Times,serif" font-size="14.00" fill="#000000">压缩列表</text>
</g>
<!-- redisObject&#45;&gt;ziplist -->
<g id="edge1" class="edge">
<title>redisObject:ptr-&gt;ziplist</title>
<path fill="none" stroke="#000000" d="M197.566,-78.1C205.8765,-78.1 214.4029,-78.1 223.0106,-78.1"/>
<polygon fill="#000000" stroke="#000000" points="223.1446,-81.6001 233.1446,-78.1 223.1445,-74.6001 223.1446,-81.6001"/>
</g>
</g>
</svg>