<?xml version="1.0" encoding="UTF-8" standalone="no"?><!DOCTYPE svg PUBLIC "-//W3C//DTD SVG 1.1//EN" "http://www.w3.org/Graphics/SVG/1.1/DTD/svg11.dtd"><!-- Generated by graphviz version 2.40.1 (20161225.0304)
 --><!-- Title: %0 Pages: 1 --><svg xmlns="http://www.w3.org/2000/svg" xmlns:xlink="http://www.w3.org/1999/xlink" width="487pt" height="175pt" viewBox="0.00 0.00 487.00 174.60">
<g id="graph0" class="graph" transform="scale(1 1) rotate(0) translate(4 170.6)">
<title>%0</title>
<polygon fill="#ffffff" stroke="transparent" points="-4,4 -4,-170.6 482.9955,-170.6 482.9955,4 -4,4"/>
<text text-anchor="middle" x="239.4977" y="-8.2" font-family="Times,serif" font-size="14.00" fill="#000000"> 有序集合元素在压缩列表中按分值从小到大排列</text>
<!-- ziplist -->
<g id="node1" class="node">
<title>ziplist</title>
<polygon fill="none" stroke="#000000" points="0,-41.3 0,-77.3 477.6544,-77.3 477.6544,-41.3 0,-41.3"/>
<text text-anchor="middle" x="27.8275" y="-55.1" font-family="Times,serif" font-size="14.00" fill="#000000">zlbytes</text>
<polyline fill="none" stroke="#000000" points="55.655,-41.3 55.655,-77.3 "/>
<text text-anchor="middle" x="77.6508" y="-55.1" font-family="Times,serif" font-size="14.00" fill="#000000">zltail</text>
<polyline fill="none" stroke="#000000" points="99.6466,-41.3 99.6466,-77.3 "/>
<text text-anchor="middle" x="121.2518" y="-55.1" font-family="Times,serif" font-size="14.00" fill="#000000">zllen</text>
<polyline fill="none" stroke="#000000" points="142.857,-41.3 142.857,-77.3 "/>
<text text-anchor="middle" x="176.3895" y="-55.1" font-family="Times,serif" font-size="14.00" fill="#000000">"banana"</text>
<polyline fill="none" stroke="#000000" points="209.922,-41.3 209.922,-77.3 "/>
<text text-anchor="middle" x="226.672" y="-55.1" font-family="Times,serif" font-size="14.00" fill="#000000">5.0</text>
<polyline fill="none" stroke="#000000" points="243.422,-41.3 243.422,-77.3 "/>
<text text-anchor="middle" x="275.0078" y="-55.1" font-family="Times,serif" font-size="14.00" fill="#000000">"cherry"</text>
<polyline fill="none" stroke="#000000" points="306.5936,-41.3 306.5936,-77.3 "/>
<text text-anchor="middle" x="323.3436" y="-55.1" font-family="Times,serif" font-size="14.00" fill="#000000">6.0</text>
<polyline fill="none" stroke="#000000" points="340.0936,-41.3 340.0936,-77.3 "/>
<text text-anchor="middle" x="368.9641" y="-55.1" font-family="Times,serif" font-size="14.00" fill="#000000">"apple"</text>
<polyline fill="none" stroke="#000000" points="397.8346,-41.3 397.8346,-77.3 "/>
<text text-anchor="middle" x="414.5846" y="-55.1" font-family="Times,serif" font-size="14.00" fill="#000000">8.5</text>
<polyline fill="none" stroke="#000000" points="431.3346,-41.3 431.3346,-77.3 "/>
<text text-anchor="middle" x="454.4945" y="-55.1" font-family="Times,serif" font-size="14.00" fill="#000000">zlend</text>
</g>
<!-- banana -->
<g id="node2" class="node">
<title>banana</title>
<text text-anchor="middle" x="174.8272" y="-144.4" font-family="Times,serif" font-size="14.00" fill="#000000">分值最少的元素</text>
</g>
<!-- banana&#45;&gt;ziplist -->
<g id="edge1" class="edge">
<title>banana-&gt;ziplist:banana</title>
<path fill="none" stroke="#000000" d="M175.6177,-130.4346C176.0719,-118.7292 176.5865,-102.9034 176.7635,-87.6827"/>
<polygon fill="#000000" stroke="#000000" points="180.2657,-87.3213 176.8272,-77.3 173.2658,-87.2783 180.2657,-87.3213"/>
<text text-anchor="middle" x="187.3272" y="-100" font-family="Times,serif" font-size="14.00" fill="#000000">成员</text>
</g>
<!-- banana&#45;&gt;ziplist -->
<g id="edge2" class="edge">
<title>banana-&gt;ziplist:banana_price</title>
<path fill="none" stroke="#000000" d="M197.7865,-130.5954C209.4312,-119.6567 221.9008,-104.5381 225.679,-87.5213"/>
<polygon fill="#000000" stroke="#000000" points="229.1889,-87.6282 226.8272,-77.3 222.2326,-86.8467 229.1889,-87.6282"/>
<text text-anchor="middle" x="238.5772" y="-100" font-family="Times,serif" font-size="14.00" fill="#000000">分值</text>
</g>
<!-- cherry -->
<g id="node3" class="node">
<title>cherry</title>
<text text-anchor="middle" x="300.8272" y="-144.4" font-family="Times,serif" font-size="14.00" fill="#000000">分值排第二的元素</text>
</g>
<!-- cherry&#45;&gt;ziplist -->
<g id="edge3" class="edge">
<title>cherry-&gt;ziplist:cherry</title>
<path fill="none" stroke="#000000" d="M290.252,-130.4943C284.3472,-118.9828 277.7504,-103.3295 275.5704,-87.6026"/>
<polygon fill="#000000" stroke="#000000" points="279.0377,-87.0222 274.8272,-77.3 272.0558,-87.5259 279.0377,-87.0222"/>
</g>
<!-- cherry&#45;&gt;ziplist -->
<g id="edge4" class="edge">
<title>cherry-&gt;ziplist:cherry_price</title>
<path fill="none" stroke="#000000" d="M310.1822,-130.3544C315.4057,-118.7828 321.2413,-103.0982 323.1698,-87.4965"/>
<polygon fill="#000000" stroke="#000000" points="326.6765,-87.5045 323.8272,-77.3 319.691,-87.0541 326.6765,-87.5045"/>
</g>
<!-- apple -->
<g id="node4" class="node">
<title>apple</title>
<text text-anchor="middle" x="427.8272" y="-144.4" font-family="Times,serif" font-size="14.00" fill="#000000">分值最大的元素</text>
</g>
<!-- apple&#45;&gt;ziplist -->
<g id="edge5" class="edge">
<title>apple-&gt;ziplist:apple</title>
<path fill="none" stroke="#000000" d="M400.7447,-130.4086C387.7792,-119.7283 374.1867,-104.9493 370.0757,-87.7171"/>
<polygon fill="#000000" stroke="#000000" points="373.4924,-86.8124 368.8272,-77.3 366.5421,-87.6455 373.4924,-86.8124"/>
</g>
<!-- apple&#45;&gt;ziplist -->
<g id="edge6" class="edge">
<title>apple-&gt;ziplist:apple_price</title>
<path fill="none" stroke="#000000" d="M422.6893,-130.5957C419.7085,-118.8507 416.3276,-102.8732 415.2088,-87.3701"/>
<polygon fill="#000000" stroke="#000000" points="418.7034,-87.1603 414.8272,-77.3 411.7085,-87.4254 418.7034,-87.1603"/>
</g>
</g>
</svg>