<?xml version="1.0" encoding="UTF-8" standalone="no"?><!DOCTYPE svg PUBLIC "-//W3C//DTD SVG 1.1//EN" "http://www.w3.org/Graphics/SVG/1.1/DTD/svg11.dtd"><!-- Generated by graphviz version 2.40.1 (20161225.0304)
 --><!-- Title: %0 Pages: 1 --><svg xmlns="http://www.w3.org/2000/svg" xmlns:xlink="http://www.w3.org/1999/xlink" width="540pt" height="333pt" viewBox="0.00 0.00 540.31 332.80">
<g id="graph0" class="graph" transform="scale(1 1) rotate(0) translate(4 328.8)">
<title>%0</title>
<polygon fill="#ffffff" stroke="transparent" points="-4,4 -4,-328.8 536.3128,-328.8 536.3128,4 -4,4"/>
<text text-anchor="middle" x="266.1564" y="-8.2" font-family="Times,serif" font-size="14.00" fill="#000000"> 由 list 结构和 listNode 结构组成的链表</text>
<!-- list -->
<g id="node1" class="node">
<title>list</title>
<polygon fill="none" stroke="#000000" points="0,-79.6 0,-270 144,-270 144,-79.6 0,-79.6"/>
<text text-anchor="middle" x="72" y="-253.4" font-family="Times,serif" font-size="14.00" fill="#000000">list</text>
<polyline fill="none" stroke="#000000" points="0,-245.2 144,-245.2 "/>
<text text-anchor="middle" x="72" y="-228.6" font-family="Times,serif" font-size="14.00" fill="#000000">head</text>
<polyline fill="none" stroke="#000000" points="0,-220.4 144,-220.4 "/>
<text text-anchor="middle" x="72" y="-203.8" font-family="Times,serif" font-size="14.00" fill="#000000">tail</text>
<polyline fill="none" stroke="#000000" points="0,-195.6 144,-195.6 "/>
<text text-anchor="middle" x="72" y="-179" font-family="Times,serif" font-size="14.00" fill="#000000">len </text>
<text text-anchor="middle" x="72" y="-162.2" font-family="Times,serif" font-size="14.00" fill="#000000"> 3</text>
<polyline fill="none" stroke="#000000" points="0,-154 144,-154 "/>
<text text-anchor="middle" x="72" y="-137.4" font-family="Times,serif" font-size="14.00" fill="#000000">dup</text>
<polyline fill="none" stroke="#000000" points="0,-129.2 144,-129.2 "/>
<text text-anchor="middle" x="72" y="-112.6" font-family="Times,serif" font-size="14.00" fill="#000000">free</text>
<polyline fill="none" stroke="#000000" points="0,-104.4 144,-104.4 "/>
<text text-anchor="middle" x="72" y="-87.8" font-family="Times,serif" font-size="14.00" fill="#000000">match</text>
</g>
<!-- x -->
<g id="node3" class="node">
<title>x</title>
<polygon fill="none" stroke="#000000" points="180,-241.6 180,-308 243.4376,-308 243.4376,-241.6 180,-241.6"/>
<text text-anchor="middle" x="211.7188" y="-291.4" font-family="Times,serif" font-size="14.00" fill="#000000">listNode</text>
<polyline fill="none" stroke="#000000" points="180,-283.2 243.4376,-283.2 "/>
<text text-anchor="middle" x="211.7188" y="-266.6" font-family="Times,serif" font-size="14.00" fill="#000000">value </text>
<text text-anchor="middle" x="211.7188" y="-249.8" font-family="Times,serif" font-size="14.00" fill="#000000"> ...</text>
</g>
<!-- list&#45;&gt;x -->
<g id="edge1" class="edge">
<title>list:head-&gt;x</title>
<path fill="none" stroke="#000000" d="M144,-232.8C153.4484,-232.8 162.6753,-235.7893 171.1263,-240.1729"/>
<polygon fill="#000000" stroke="#000000" points="169.5769,-243.3229 179.9659,-245.4014 173.1406,-237.2979 169.5769,-243.3229"/>
</g>
<!-- z -->
<g id="node5" class="node">
<title>z</title>
<polygon fill="none" stroke="#000000" points="378.8752,-241.6 378.8752,-308 442.3128,-308 442.3128,-241.6 378.8752,-241.6"/>
<text text-anchor="middle" x="410.594" y="-291.4" font-family="Times,serif" font-size="14.00" fill="#000000">listNode</text>
<polyline fill="none" stroke="#000000" points="378.8752,-283.2 442.3128,-283.2 "/>
<text text-anchor="middle" x="410.594" y="-266.6" font-family="Times,serif" font-size="14.00" fill="#000000">value </text>
<text text-anchor="middle" x="410.594" y="-249.8" font-family="Times,serif" font-size="14.00" fill="#000000"> ...</text>
</g>
<!-- list&#45;&gt;z -->
<g id="edge2" class="edge">
<title>list:tail-&gt;z</title>
<path fill="none" stroke="#000000" d="M144,-207.8C233.0303,-207.8 259.0286,-201.8646 342.8752,-231.8 352.1229,-235.1017 361.4134,-239.8465 370.0218,-244.989"/>
<polygon fill="#000000" stroke="#000000" points="368.3853,-248.0942 378.7153,-250.4483 372.108,-242.1661 368.3853,-248.0942"/>
</g>
<!-- dup -->
<g id="node7" class="node">
<title>dup</title>
<text text-anchor="middle" x="211.7188" y="-162.6" font-family="Times,serif" font-size="14.00" fill="#000000">...</text>
</g>
<!-- list&#45;&gt;dup -->
<g id="edge3" class="edge">
<title>list:dup-&gt;dup</title>
<path fill="none" stroke="#000000" d="M144,-141.8C154.4332,-141.8 165.2421,-144.4438 175.079,-148.0119"/>
<polygon fill="#000000" stroke="#000000" points="173.9586,-151.3338 184.5421,-151.8244 176.5746,-144.841 173.9586,-151.3338"/>
</g>
<!-- free -->
<g id="node8" class="node">
<title>free</title>
<text text-anchor="middle" x="211.7188" y="-108.6" font-family="Times,serif" font-size="14.00" fill="#000000">...</text>
</g>
<!-- list&#45;&gt;free -->
<g id="edge4" class="edge">
<title>list:free-&gt;free</title>
<path fill="none" stroke="#000000" d="M144,-116.8C153.7733,-116.8 164.3261,-116.3797 174.1262,-115.8116"/>
<polygon fill="#000000" stroke="#000000" points="174.6382,-119.2859 184.3924,-115.15 174.188,-112.3004 174.6382,-119.2859"/>
</g>
<!-- match -->
<g id="node9" class="node">
<title>match</title>
<text text-anchor="middle" x="211.7188" y="-54.6" font-family="Times,serif" font-size="14.00" fill="#000000">...</text>
</g>
<!-- list&#45;&gt;match -->
<g id="edge5" class="edge">
<title>list:match-&gt;match</title>
<path fill="none" stroke="#000000" d="M144,-91.8C156.1384,-91.8 168.3763,-87.4624 179.0461,-81.9324"/>
<polygon fill="#000000" stroke="#000000" points="181.0204,-84.8359 187.9771,-76.8449 177.5556,-78.7535 181.0204,-84.8359"/>
</g>
<!-- more_prev -->
<g id="node2" class="node">
<title>more_prev</title>
<text text-anchor="middle" x="72" y="-302.6" font-family="Times,serif" font-size="14.00" fill="#000000">NULL</text>
</g>
<!-- more_prev&#45;&gt;x -->
<g id="edge10" class="edge">
<title>more_prev-&gt;x</title>
<path fill="none" stroke="#000000" d="M109.2651,-298.2651C131.284,-293.2221 158.8712,-286.9038 179.8704,-282.0943"/>
<polygon fill="#000000" stroke="#000000" points="108.2371,-294.9099 99.2709,-300.5541 109.7999,-301.7332 108.2371,-294.9099"/>
</g>
<!-- y -->
<g id="node4" class="node">
<title>y</title>
<polygon fill="none" stroke="#000000" points="279.4376,-241.6 279.4376,-308 342.8752,-308 342.8752,-241.6 279.4376,-241.6"/>
<text text-anchor="middle" x="311.1564" y="-291.4" font-family="Times,serif" font-size="14.00" fill="#000000">listNode</text>
<polyline fill="none" stroke="#000000" points="279.4376,-283.2 342.8752,-283.2 "/>
<text text-anchor="middle" x="311.1564" y="-266.6" font-family="Times,serif" font-size="14.00" fill="#000000">value </text>
<text text-anchor="middle" x="311.1564" y="-249.8" font-family="Times,serif" font-size="14.00" fill="#000000"> ...</text>
</g>
<!-- x&#45;&gt;y -->
<g id="edge6" class="edge">
<title>x-&gt;y</title>
<path fill="none" stroke="#000000" d="M243.4549,-268.4588C251.6174,-268.0717 260.5272,-267.9595 269.1229,-268.1222"/>
<polygon fill="#000000" stroke="#000000" points="269.2719,-271.6288 279.3808,-268.4569 269.5003,-264.6325 269.2719,-271.6288"/>
</g>
<!-- y&#45;&gt;x -->
<g id="edge7" class="edge">
<title>y-&gt;x</title>
<path fill="none" stroke="#000000" d="M279.3808,-281.1431C271.2159,-281.5292 262.3054,-281.6406 253.7106,-281.477"/>
<polygon fill="#000000" stroke="#000000" points="253.5641,-277.9704 243.4549,-281.1412 253.3349,-284.9667 253.5641,-277.9704"/>
</g>
<!-- y&#45;&gt;z -->
<g id="edge8" class="edge">
<title>y-&gt;z</title>
<path fill="none" stroke="#000000" d="M342.8925,-268.4588C351.055,-268.0717 359.9648,-267.9595 368.5605,-268.1222"/>
<polygon fill="#000000" stroke="#000000" points="368.7095,-271.6288 378.8184,-268.4569 368.9379,-264.6325 368.7095,-271.6288"/>
</g>
<!-- z&#45;&gt;y -->
<g id="edge9" class="edge">
<title>z-&gt;y</title>
<path fill="none" stroke="#000000" d="M378.8184,-281.1431C370.6535,-281.5292 361.743,-281.6406 353.1482,-281.477"/>
<polygon fill="#000000" stroke="#000000" points="353.0017,-277.9704 342.8925,-281.1412 352.7725,-284.9667 353.0017,-277.9704"/>
</g>
<!-- more_next -->
<g id="node6" class="node">
<title>more_next</title>
<text text-anchor="middle" x="505.3128" y="-270.6" font-family="Times,serif" font-size="14.00" fill="#000000">NULL</text>
</g>
<!-- z&#45;&gt;more_next -->
<g id="edge11" class="edge">
<title>z-&gt;more_next</title>
<path fill="none" stroke="#000000" d="M442.3975,-274.8C450.6505,-274.8 459.6125,-274.8 468.1159,-274.8"/>
<polygon fill="#000000" stroke="#000000" points="468.1821,-278.3001 478.1821,-274.8 468.182,-271.3001 468.1821,-278.3001"/>
</g>
</g>
</svg>