<?xml version="1.0" encoding="UTF-8" standalone="no"?><!DOCTYPE svg PUBLIC "-//W3C//DTD SVG 1.1//EN" "http://www.w3.org/Graphics/SVG/1.1/DTD/svg11.dtd"><!-- Generated by graphviz version 2.40.1 (20161225.0304)
 --><!-- Title: %0 Pages: 1 --><svg xmlns="http://www.w3.org/2000/svg" xmlns:xlink="http://www.w3.org/1999/xlink" width="749pt" height="297pt" viewBox="0.00 0.00 748.69 296.60">
<g id="graph0" class="graph" transform="scale(1 1) rotate(0) translate(4 292.6)">
<title>%0</title>
<polygon fill="#ffffff" stroke="transparent" points="-4,4 -4,-292.6 744.689,-292.6 744.689,4 -4,4"/>
<text text-anchor="middle" x="370.3445" y="-8.2" font-family="Times,serif" font-size="14.00" fill="#000000"> raw 编码的字符串对象</text>
<!-- redisObject -->
<g id="node1" class="node">
<title>redisObject</title>
<polygon fill="none" stroke="#000000" points="0,-130.5 0,-288.1 179.6796,-288.1 179.6796,-130.5 0,-130.5"/>
<text text-anchor="middle" x="89.8398" y="-271.5" font-family="Times,serif" font-size="14.00" fill="#000000">redisObject</text>
<polyline fill="none" stroke="#000000" points="0,-263.3 179.6796,-263.3 "/>
<text text-anchor="middle" x="89.8398" y="-246.7" font-family="Times,serif" font-size="14.00" fill="#000000">type </text>
<text text-anchor="middle" x="89.8398" y="-229.9" font-family="Times,serif" font-size="14.00" fill="#000000"> REDIS_STRING</text>
<polyline fill="none" stroke="#000000" points="0,-221.7 179.6796,-221.7 "/>
<text text-anchor="middle" x="89.8398" y="-205.1" font-family="Times,serif" font-size="14.00" fill="#000000">encoding </text>
<text text-anchor="middle" x="89.8398" y="-188.3" font-family="Times,serif" font-size="14.00" fill="#000000"> REDIS_ENCODING_RAW</text>
<polyline fill="none" stroke="#000000" points="0,-180.1 179.6796,-180.1 "/>
<text text-anchor="middle" x="89.8398" y="-163.5" font-family="Times,serif" font-size="14.00" fill="#000000">ptr</text>
<polyline fill="none" stroke="#000000" points="0,-155.3 179.6796,-155.3 "/>
<text text-anchor="middle" x="89.8398" y="-138.7" font-family="Times,serif" font-size="14.00" fill="#000000">...</text>
</g>
<!-- sdshdr -->
<g id="node2" class="node">
<title>sdshdr</title>
<polygon fill="none" stroke="#000000" points="215.6796,-46.9 215.6796,-179.7 269.6796,-179.7 269.6796,-46.9 215.6796,-46.9"/>
<text text-anchor="middle" x="242.6796" y="-163.1" font-family="Times,serif" font-size="14.00" fill="#000000">sdshdr</text>
<polyline fill="none" stroke="#000000" points="215.6796,-154.9 269.6796,-154.9 "/>
<text text-anchor="middle" x="242.6796" y="-138.3" font-family="Times,serif" font-size="14.00" fill="#000000">free </text>
<text text-anchor="middle" x="242.6796" y="-121.5" font-family="Times,serif" font-size="14.00" fill="#000000"> 0</text>
<polyline fill="none" stroke="#000000" points="215.6796,-113.3 269.6796,-113.3 "/>
<text text-anchor="middle" x="242.6796" y="-96.7" font-family="Times,serif" font-size="14.00" fill="#000000">len </text>
<text text-anchor="middle" x="242.6796" y="-79.9" font-family="Times,serif" font-size="14.00" fill="#000000"> 37</text>
<polyline fill="none" stroke="#000000" points="215.6796,-71.7 269.6796,-71.7 "/>
<text text-anchor="middle" x="242.6796" y="-55.1" font-family="Times,serif" font-size="14.00" fill="#000000">buf</text>
</g>
<!-- redisObject&#45;&gt;sdshdr -->
<g id="edge1" class="edge">
<title>redisObject:ptr-&gt;sdshdr:head</title>
<path fill="none" stroke="#000000" d="M179.6796,-167.3C191.6796,-167.3 196.9296,-167.3 205.5546,-167.3"/>
<polygon fill="#000000" stroke="#000000" points="205.6796,-170.8001 215.6796,-167.3 205.6796,-163.8001 205.6796,-170.8001"/>
</g>
<!-- buf -->
<g id="node3" class="node">
<title>buf</title>
<polygon fill="none" stroke="#000000" points="305.6796,-41.3 305.6796,-77.3 740.689,-77.3 740.689,-41.3 305.6796,-41.3"/>
<text text-anchor="middle" x="322.6165" y="-55.2" font-family="Times,serif" font-size="14.00" fill="#000000">'L'</text>
<polyline fill="none" stroke="#000000" points="339.5534,-41.5 339.5534,-77.3 "/>
<text text-anchor="middle" x="355.714" y="-55.2" font-family="Times,serif" font-size="14.00" fill="#000000">'o'</text>
<polyline fill="none" stroke="#000000" points="371.8746,-41.5 371.8746,-77.3 "/>
<text text-anchor="middle" x="388.0352" y="-55.2" font-family="Times,serif" font-size="14.00" fill="#000000">'n'</text>
<polyline fill="none" stroke="#000000" points="404.1958,-41.5 404.1958,-77.3 "/>
<text text-anchor="middle" x="420.3564" y="-55.2" font-family="Times,serif" font-size="14.00" fill="#000000">'g'</text>
<polyline fill="none" stroke="#000000" points="436.517,-41.5 436.517,-77.3 "/>
<text text-anchor="middle" x="449.767" y="-55.2" font-family="Times,serif" font-size="14.00" fill="#000000">...</text>
<polyline fill="none" stroke="#000000" points="463.017,-41.5 463.017,-77.3 "/>
<text text-anchor="middle" x="479.1776" y="-55.2" font-family="Times,serif" font-size="14.00" fill="#000000">'k'</text>
<polyline fill="none" stroke="#000000" points="495.3382,-41.5 495.3382,-77.3 "/>
<text text-anchor="middle" x="509.9441" y="-55.2" font-family="Times,serif" font-size="14.00" fill="#000000">'i'</text>
<polyline fill="none" stroke="#000000" points="524.55,-41.5 524.55,-77.3 "/>
<text text-anchor="middle" x="540.7106" y="-55.2" font-family="Times,serif" font-size="14.00" fill="#000000">'n'</text>
<polyline fill="none" stroke="#000000" points="556.8712,-41.5 556.8712,-77.3 "/>
<text text-anchor="middle" x="573.0318" y="-55.2" font-family="Times,serif" font-size="14.00" fill="#000000">'g'</text>
<polyline fill="none" stroke="#000000" points="589.1924,-41.5 589.1924,-77.3 "/>
<text text-anchor="middle" x="603.603" y="-55.2" font-family="Times,serif" font-size="14.00" fill="#000000">' '</text>
<polyline fill="none" stroke="#000000" points="618.0136,-41.5 618.0136,-77.3 "/>
<text text-anchor="middle" x="632.4242" y="-55.2" font-family="Times,serif" font-size="14.00" fill="#000000">'.'</text>
<polyline fill="none" stroke="#000000" points="646.8348,-41.5 646.8348,-77.3 "/>
<text text-anchor="middle" x="661.2454" y="-55.2" font-family="Times,serif" font-size="14.00" fill="#000000">'.'</text>
<polyline fill="none" stroke="#000000" points="675.656,-41.5 675.656,-77.3 "/>
<text text-anchor="middle" x="690.0666" y="-55.2" font-family="Times,serif" font-size="14.00" fill="#000000">'.'</text>
<polyline fill="none" stroke="#000000" points="704.4772,-41.5 704.4772,-77.3 "/>
<text text-anchor="middle" x="722.5831" y="-55.2" font-family="Times,serif" font-size="14.00" fill="#000000">'\0'</text>
</g>
<!-- sdshdr&#45;&gt;buf -->
<g id="edge2" class="edge">
<title>sdshdr:buf-&gt;buf</title>
<path fill="none" stroke="#000000" d="M269.6796,-59.3C278.0624,-59.3 286.6011,-59.3 295.2261,-59.3"/>
<polygon fill="#000000" stroke="#000000" points="295.3866,-62.8001 305.3865,-59.3 295.3865,-55.8001 295.3866,-62.8001"/>
</g>
</g>
</svg>