<?xml version="1.0" encoding="UTF-8" standalone="no"?><!DOCTYPE svg PUBLIC "-//W3C//DTD SVG 1.1//EN" "http://www.w3.org/Graphics/SVG/1.1/DTD/svg11.dtd"><!-- Generated by graphviz version 2.40.1 (20161225.0304)
 --><!-- Title: %0 Pages: 1 --><svg xmlns="http://www.w3.org/2000/svg" xmlns:xlink="http://www.w3.org/1999/xlink" width="268pt" height="207pt" viewBox="0.00 0.00 268.34 207.40">
<g id="graph0" class="graph" transform="scale(1 1) rotate(0) translate(4 203.4)">
<title>%0</title>
<polygon fill="#ffffff" stroke="transparent" points="-4,4 -4,-203.4 264.3416,-203.4 264.3416,4 -4,4"/>
<text text-anchor="middle" x="130.1708" y="-8.2" font-family="Times,serif" font-size="14.00" fill="#000000"> int 编码的字符串对象</text>
<!-- redisObject -->
<g id="node1" class="node">
<title>redisObject</title>
<polygon fill="none" stroke="#000000" points="0,-41.3 0,-198.9 170.3416,-198.9 170.3416,-41.3 0,-41.3"/>
<text text-anchor="middle" x="85.1708" y="-182.3" font-family="Times,serif" font-size="14.00" fill="#000000">redisObject</text>
<polyline fill="none" stroke="#000000" points="0,-174.1 170.3416,-174.1 "/>
<text text-anchor="middle" x="85.1708" y="-157.5" font-family="Times,serif" font-size="14.00" fill="#000000">type </text>
<text text-anchor="middle" x="85.1708" y="-140.7" font-family="Times,serif" font-size="14.00" fill="#000000"> REDIS_STRING</text>
<polyline fill="none" stroke="#000000" points="0,-132.5 170.3416,-132.5 "/>
<text text-anchor="middle" x="85.1708" y="-115.9" font-family="Times,serif" font-size="14.00" fill="#000000">encoding </text>
<text text-anchor="middle" x="85.1708" y="-99.1" font-family="Times,serif" font-size="14.00" fill="#000000"> REDIS_ENCODING_INT</text>
<polyline fill="none" stroke="#000000" points="0,-90.9 170.3416,-90.9 "/>
<text text-anchor="middle" x="85.1708" y="-74.3" font-family="Times,serif" font-size="14.00" fill="#000000">ptr</text>
<polyline fill="none" stroke="#000000" points="0,-66.1 170.3416,-66.1 "/>
<text text-anchor="middle" x="85.1708" y="-49.5" font-family="Times,serif" font-size="14.00" fill="#000000">...</text>
</g>
<!-- number -->
<g id="node2" class="node">
<title>number</title>
<text text-anchor="middle" x="233.3416" y="-73.9" font-family="Times,serif" font-size="14.00" fill="#000000">10086</text>
</g>
<!-- redisObject&#45;&gt;number -->
<g id="edge1" class="edge">
<title>redisObject:ptr-&gt;number</title>
<path fill="none" stroke="#000000" d="M170.1708,-78.1C178.5915,-78.1 187.6436,-78.1 196.1909,-78.1"/>
<polygon fill="#000000" stroke="#000000" points="196.29,-81.6001 206.29,-78.1 196.2899,-74.6001 196.29,-81.6001"/>
</g>
</g>
</svg>