<?xml version="1.0" encoding="UTF-8" standalone="no"?><!DOCTYPE svg PUBLIC "-//W3C//DTD SVG 1.1//EN" "http://www.w3.org/Graphics/SVG/1.1/DTD/svg11.dtd"><!-- Generated by graphviz version 2.40.1 (20161225.0304)
 --><!-- Title: %0 Pages: 1 --><svg xmlns="http://www.w3.org/2000/svg" xmlns:xlink="http://www.w3.org/1999/xlink" width="634pt" height="167pt" viewBox="0.00 0.00 633.78 166.60">
<g id="graph0" class="graph" transform="scale(1 1) rotate(0) translate(4 162.6)">
<title>%0</title>
<polygon fill="#ffffff" stroke="transparent" points="-4,4 -4,-162.6 629.78,-162.6 629.78,4 -4,4"/>
<g id="clust1" class="cluster">
<title>cluster_linked_list</title>
<polygon fill="none" stroke="#000000" stroke-dasharray="5,2" points="256.6558,-8.3 256.6558,-91.3 617.78,-91.3 617.78,-8.3 256.6558,-8.3"/>
<text text-anchor="middle" x="437.2179" y="-74.7" font-family="Times,serif" font-size="14.00" fill="#000000">链表</text>
</g>
<!-- redisObject -->
<g id="node1" class="node">
<title>redisObject</title>
<polygon fill="none" stroke="#000000" points="0,-.5 0,-158.1 228.6558,-158.1 228.6558,-.5 0,-.5"/>
<text text-anchor="middle" x="114.3279" y="-141.5" font-family="Times,serif" font-size="14.00" fill="#000000">redisObject</text>
<polyline fill="none" stroke="#000000" points="0,-133.3 228.6558,-133.3 "/>
<text text-anchor="middle" x="114.3279" y="-116.7" font-family="Times,serif" font-size="14.00" fill="#000000">type </text>
<text text-anchor="middle" x="114.3279" y="-99.9" font-family="Times,serif" font-size="14.00" fill="#000000"> REDIS_LIST</text>
<polyline fill="none" stroke="#000000" points="0,-91.7 228.6558,-91.7 "/>
<text text-anchor="middle" x="114.3279" y="-75.1" font-family="Times,serif" font-size="14.00" fill="#000000">encoding </text>
<text text-anchor="middle" x="114.3279" y="-58.3" font-family="Times,serif" font-size="14.00" fill="#000000"> REDIS_ENCODING_LINKEDLIST</text>
<polyline fill="none" stroke="#000000" points="0,-50.1 228.6558,-50.1 "/>
<text text-anchor="middle" x="114.3279" y="-33.5" font-family="Times,serif" font-size="14.00" fill="#000000">ptr</text>
<polyline fill="none" stroke="#000000" points="0,-25.3 228.6558,-25.3 "/>
<text text-anchor="middle" x="114.3279" y="-8.7" font-family="Times,serif" font-size="14.00" fill="#000000">...</text>
</g>
<!-- node1 -->
<g id="node2" class="node">
<title>node1</title>
<polygon fill="none" stroke="#000000" points="264.6558,-16.5 264.6558,-58.1 355.6972,-58.1 355.6972,-16.5 264.6558,-16.5"/>
<text text-anchor="middle" x="310.1765" y="-41.5" font-family="Times,serif" font-size="14.00" fill="#000000">StringObject </text>
<text text-anchor="middle" x="310.1765" y="-24.7" font-family="Times,serif" font-size="14.00" fill="#000000"> 1</text>
</g>
<!-- redisObject&#45;&gt;node1 -->
<g id="edge3" class="edge">
<title>redisObject:ptr-&gt;node1</title>
<path fill="none" stroke="#000000" d="M228.3279,-37.3C236.7028,-37.3 245.5598,-37.3 254.2329,-37.3"/>
<polygon fill="#000000" stroke="#000000" points="254.2901,-40.8001 264.29,-37.3 254.29,-33.8001 254.2901,-40.8001"/>
</g>
<!-- node2 -->
<g id="node3" class="node">
<title>node2</title>
<polygon fill="none" stroke="#000000" points="391.6972,-16.5 391.6972,-58.1 482.7386,-58.1 482.7386,-16.5 391.6972,-16.5"/>
<text text-anchor="middle" x="437.2179" y="-41.5" font-family="Times,serif" font-size="14.00" fill="#000000">StringObject </text>
<text text-anchor="middle" x="437.2179" y="-24.7" font-family="Times,serif" font-size="14.00" fill="#000000"> "three"</text>
</g>
<!-- node1&#45;&gt;node2 -->
<g id="edge1" class="edge">
<title>node1-&gt;node2</title>
<path fill="none" stroke="#000000" d="M356.0414,-37.3C364.227,-37.3 372.8375,-37.3 381.2677,-37.3"/>
<polygon fill="#000000" stroke="#000000" points="381.4204,-40.8001 391.4204,-37.3 381.4203,-33.8001 381.4204,-40.8001"/>
</g>
<!-- node3 -->
<g id="node4" class="node">
<title>node3</title>
<polygon fill="none" stroke="#000000" points="518.7386,-16.5 518.7386,-58.1 609.78,-58.1 609.78,-16.5 518.7386,-16.5"/>
<text text-anchor="middle" x="564.2593" y="-41.5" font-family="Times,serif" font-size="14.00" fill="#000000">StringObject </text>
<text text-anchor="middle" x="564.2593" y="-24.7" font-family="Times,serif" font-size="14.00" fill="#000000"> 5</text>
</g>
<!-- node2&#45;&gt;node3 -->
<g id="edge2" class="edge">
<title>node2-&gt;node3</title>
<path fill="none" stroke="#000000" d="M483.0828,-37.3C491.2684,-37.3 499.8789,-37.3 508.3091,-37.3"/>
<polygon fill="#000000" stroke="#000000" points="508.4618,-40.8001 518.4618,-37.3 508.4617,-33.8001 508.4618,-40.8001"/>
</g>
</g>
</svg>