<?xml version="1.0" encoding="UTF-8" standalone="no"?><!DOCTYPE svg PUBLIC "-//W3C//DTD SVG 1.1//EN" "http://www.w3.org/Graphics/SVG/1.1/DTD/svg11.dtd"><!-- Generated by graphviz version 2.40.1 (20161225.0304)
 --><!-- Title: %0 Pages: 1 --><svg xmlns="http://www.w3.org/2000/svg" xmlns:xlink="http://www.w3.org/1999/xlink" width="655pt" height="161pt" viewBox="0.00 0.00 655.23 161.20">
<g id="graph0" class="graph" transform="scale(1 1) rotate(0) translate(4 157.2)">
<title>%0</title>
<polygon fill="#ffffff" stroke="transparent" points="-4,4 -4,-157.2 651.2324,-157.2 651.2324,4 -4,4"/>
<text text-anchor="middle" x="323.6162" y="-8.2" font-family="Times,serif" font-size="14.00" fill="#000000"> embstr 编码的字符串对象</text>
<!-- embstr -->
<g id="node1" class="node">
<title>embstr</title>
<polygon fill="none" stroke="#000000" points="0,-78.3 0,-152.7 647.2324,-152.7 647.2324,-78.3 0,-78.3"/>
<text text-anchor="middle" x="189.2816" y="-134.1" font-family="Times,serif" font-size="14.00" fill="#000000">redisObject</text>
<polyline fill="none" stroke="#000000" points="0,-123.9 378.5632,-123.9 "/>
<text text-anchor="middle" x="58.7423" y="-105.3" font-family="Times,serif" font-size="14.00" fill="#000000">type </text>
<text text-anchor="middle" x="58.7423" y="-88.5" font-family="Times,serif" font-size="14.00" fill="#000000"> REDIS_STRING</text>
<polyline fill="none" stroke="#000000" points="117.4846,-78.3 117.4846,-123.9 "/>
<text text-anchor="middle" x="218.9983" y="-105.3" font-family="Times,serif" font-size="14.00" fill="#000000">encoding </text>
<text text-anchor="middle" x="218.9983" y="-88.5" font-family="Times,serif" font-size="14.00" fill="#000000"> REDIS_ENCODING_EMBSTR</text>
<polyline fill="none" stroke="#000000" points="320.512,-78.3 320.512,-123.9 "/>
<text text-anchor="middle" x="336.2876" y="-96.9" font-family="Times,serif" font-size="14.00" fill="#000000">ptr</text>
<polyline fill="none" stroke="#000000" points="352.0632,-78.3 352.0632,-123.9 "/>
<text text-anchor="middle" x="365.3132" y="-96.9" font-family="Times,serif" font-size="14.00" fill="#000000">...</text>
<polyline fill="none" stroke="#000000" points="378.5632,-78.3 378.5632,-152.7 "/>
<text text-anchor="middle" x="512.8978" y="-136.1" font-family="Times,serif" font-size="14.00" fill="#000000">sdshdr</text>
<polyline fill="none" stroke="#000000" points="378.5632,-127.9 647.2324,-127.9 "/>
<text text-anchor="middle" x="399.1884" y="-107.3" font-family="Times,serif" font-size="14.00" fill="#000000">free </text>
<text text-anchor="middle" x="399.1884" y="-90.5" font-family="Times,serif" font-size="14.00" fill="#000000"> 0</text>
<polyline fill="none" stroke="#000000" points="419.8136,-78.3 419.8136,-127.9 "/>
<text text-anchor="middle" x="438.1162" y="-107.3" font-family="Times,serif" font-size="14.00" fill="#000000">len </text>
<text text-anchor="middle" x="438.1162" y="-90.5" font-family="Times,serif" font-size="14.00" fill="#000000"> 5</text>
<polyline fill="none" stroke="#000000" points="456.4188,-78.3 456.4188,-127.9 "/>
<text text-anchor="middle" x="551.8256" y="-111.3" font-family="Times,serif" font-size="14.00" fill="#000000">buf</text>
<polyline fill="none" stroke="#000000" points="456.4188,-103.1 647.2324,-103.1 "/>
<text text-anchor="middle" x="472.5794" y="-86.5" font-family="Times,serif" font-size="14.00" fill="#000000">'h'</text>
<polyline fill="none" stroke="#000000" points="488.74,-78.3 488.74,-103.1 "/>
<text text-anchor="middle" x="504.5079" y="-86.5" font-family="Times,serif" font-size="14.00" fill="#000000">'e'</text>
<polyline fill="none" stroke="#000000" points="520.2758,-78.3 520.2758,-103.1 "/>
<text text-anchor="middle" x="534.8817" y="-86.5" font-family="Times,serif" font-size="14.00" fill="#000000">'l'</text>
<polyline fill="none" stroke="#000000" points="549.4876,-78.3 549.4876,-103.1 "/>
<text text-anchor="middle" x="564.0935" y="-86.5" font-family="Times,serif" font-size="14.00" fill="#000000">'l'</text>
<polyline fill="none" stroke="#000000" points="578.6994,-78.3 578.6994,-103.1 "/>
<text text-anchor="middle" x="594.86" y="-86.5" font-family="Times,serif" font-size="14.00" fill="#000000">'o'</text>
<polyline fill="none" stroke="#000000" points="611.0206,-78.3 611.0206,-103.1 "/>
<text text-anchor="middle" x="629.1265" y="-86.5" font-family="Times,serif" font-size="14.00" fill="#000000">'\0'</text>
</g>
<!-- embstr&#45;&gt;embstr -->
<g id="edge1" class="edge">
<title>embstr:ptr-&gt;embstr:buf</title>
<path fill="none" stroke="#000000" d="M332.7334,-77.9829C334.2252,-58.6962 350.1748,-40.8 404.6162,-40.8 457.6712,-40.8 474.1699,-52.574 476.3565,-68.042"/>
<polygon fill="#000000" stroke="#000000" points="472.8569,-67.9816 476.0673,-78.0783 479.854,-68.1832 472.8569,-67.9816"/>
</g>
</g>
</svg>