<?xml version="1.0" encoding="UTF-8" standalone="no"?><!DOCTYPE svg PUBLIC "-//W3C//DTD SVG 1.1//EN" "http://www.w3.org/Graphics/SVG/1.1/DTD/svg11.dtd"><!-- Generated by graphviz version 2.40.1 (20161225.0304)
 --><!-- Title: %0 Pages: 1 --><svg xmlns="http://www.w3.org/2000/svg" xmlns:xlink="http://www.w3.org/1999/xlink" width="455pt" height="326pt" viewBox="0.00 0.00 454.58 326.40">
<g id="graph0" class="graph" transform="scale(1 1) rotate(0) translate(4 322.4)">
<title>%0</title>
<polygon fill="#ffffff" stroke="transparent" points="-4,4 -4,-322.4 450.577,-322.4 450.577,4 -4,4"/>
<text text-anchor="middle" x="223.2885" y="-8.2" font-family="Times,serif" font-size="14.00" fill="#000000"> hashtable 编码的哈希对象</text>
<!-- redisObject -->
<g id="node1" class="node">
<title>redisObject</title>
<polygon fill="none" stroke="#000000" points="0,-160.3 0,-317.9 165.681,-317.9 165.681,-160.3 0,-160.3"/>
<text text-anchor="middle" x="82.8405" y="-301.3" font-family="Times,serif" font-size="14.00" fill="#000000">redisObject</text>
<polyline fill="none" stroke="#000000" points="0,-293.1 165.681,-293.1 "/>
<text text-anchor="middle" x="82.8405" y="-276.5" font-family="Times,serif" font-size="14.00" fill="#000000">type </text>
<text text-anchor="middle" x="82.8405" y="-259.7" font-family="Times,serif" font-size="14.00" fill="#000000"> REDIS_HASH</text>
<polyline fill="none" stroke="#000000" points="0,-251.5 165.681,-251.5 "/>
<text text-anchor="middle" x="82.8405" y="-234.9" font-family="Times,serif" font-size="14.00" fill="#000000">encoding </text>
<text text-anchor="middle" x="82.8405" y="-218.1" font-family="Times,serif" font-size="14.00" fill="#000000"> REDIS_ENCODING_HT</text>
<polyline fill="none" stroke="#000000" points="0,-209.9 165.681,-209.9 "/>
<text text-anchor="middle" x="82.8405" y="-193.3" font-family="Times,serif" font-size="14.00" fill="#000000">ptr</text>
<polyline fill="none" stroke="#000000" points="0,-185.1 165.681,-185.1 "/>
<text text-anchor="middle" x="82.8405" y="-168.5" font-family="Times,serif" font-size="14.00" fill="#000000">...</text>
</g>
<!-- dict -->
<g id="node2" class="node">
<title>dict</title>
<polygon fill="none" stroke="#000000" points="201.681,-60.3 201.681,-209.9 309.681,-209.9 309.681,-60.3 201.681,-60.3"/>
<text text-anchor="middle" x="255.681" y="-193.3" font-family="Times,serif" font-size="14.00" fill="#000000">dict</text>
<polyline fill="none" stroke="#000000" points="201.681,-185.1 309.681,-185.1 "/>
<text text-anchor="middle" x="255.681" y="-168.5" font-family="Times,serif" font-size="14.00" fill="#000000">StringObject </text>
<text text-anchor="middle" x="255.681" y="-151.7" font-family="Times,serif" font-size="14.00" fill="#000000"> "age"</text>
<polyline fill="none" stroke="#000000" points="201.681,-143.5 309.681,-143.5 "/>
<text text-anchor="middle" x="255.681" y="-126.9" font-family="Times,serif" font-size="14.00" fill="#000000">StringObject </text>
<text text-anchor="middle" x="255.681" y="-110.1" font-family="Times,serif" font-size="14.00" fill="#000000"> "career"</text>
<polyline fill="none" stroke="#000000" points="201.681,-101.9 309.681,-101.9 "/>
<text text-anchor="middle" x="255.681" y="-85.3" font-family="Times,serif" font-size="14.00" fill="#000000">StringObject </text>
<text text-anchor="middle" x="255.681" y="-68.5" font-family="Times,serif" font-size="14.00" fill="#000000"> "name"</text>
</g>
<!-- redisObject&#45;&gt;dict -->
<g id="edge1" class="edge">
<title>redisObject:ptr-&gt;dict:head</title>
<path fill="none" stroke="#000000" d="M165.681,-197.1C177.681,-197.1 182.931,-197.1 191.556,-197.1"/>
<polygon fill="#000000" stroke="#000000" points="191.681,-200.6001 201.681,-197.1 191.681,-193.6001 191.681,-200.6001"/>
</g>
<!-- age_value -->
<g id="node3" class="node">
<title>age_value</title>
<polygon fill="none" stroke="#000000" points="350.6083,-163.3 350.6083,-204.9 441.6497,-204.9 441.6497,-163.3 350.6083,-163.3"/>
<text text-anchor="middle" x="396.129" y="-188.3" font-family="Times,serif" font-size="14.00" fill="#000000">StringObject </text>
<text text-anchor="middle" x="396.129" y="-171.5" font-family="Times,serif" font-size="14.00" fill="#000000"> 25</text>
</g>
<!-- dict&#45;&gt;age_value -->
<g id="edge2" class="edge">
<title>dict:key1-&gt;age_value</title>
<path fill="none" stroke="#000000" d="M309.681,-164.1C319.7326,-164.1 330.2764,-165.3993 340.4084,-167.3356"/>
<polygon fill="#000000" stroke="#000000" points="339.8596,-170.7972 350.3697,-169.4596 341.3195,-163.9511 339.8596,-170.7972"/>
</g>
<!-- career_value -->
<g id="node4" class="node">
<title>career_value</title>
<polygon fill="none" stroke="#000000" points="345.681,-102.3 345.681,-143.9 446.577,-143.9 446.577,-102.3 345.681,-102.3"/>
<text text-anchor="middle" x="396.129" y="-127.3" font-family="Times,serif" font-size="14.00" fill="#000000">StringObject </text>
<text text-anchor="middle" x="396.129" y="-110.5" font-family="Times,serif" font-size="14.00" fill="#000000"> "Programmer"</text>
</g>
<!-- dict&#45;&gt;career_value -->
<g id="edge3" class="edge">
<title>dict:key2-&gt;career_value</title>
<path fill="none" stroke="#000000" d="M309.681,-123.1C317.9872,-123.1 326.7423,-123.1 335.364,-123.1"/>
<polygon fill="#000000" stroke="#000000" points="335.389,-126.6001 345.389,-123.1 335.3889,-119.6001 335.389,-126.6001"/>
</g>
<!-- name_value -->
<g id="node5" class="node">
<title>name_value</title>
<polygon fill="none" stroke="#000000" points="350.6083,-41.3 350.6083,-82.9 441.6497,-82.9 441.6497,-41.3 350.6083,-41.3"/>
<text text-anchor="middle" x="396.129" y="-66.3" font-family="Times,serif" font-size="14.00" fill="#000000">StringObject </text>
<text text-anchor="middle" x="396.129" y="-49.5" font-family="Times,serif" font-size="14.00" fill="#000000"> "Tom"</text>
</g>
<!-- dict&#45;&gt;name_value -->
<g id="edge4" class="edge">
<title>dict:key3-&gt;name_value</title>
<path fill="none" stroke="#000000" d="M309.681,-81.1C319.7077,-81.1 330.2392,-79.8657 340.3669,-78.0262"/>
<polygon fill="#000000" stroke="#000000" points="341.2204,-81.4245 350.3262,-76.0083 339.8303,-74.5639 341.2204,-81.4245"/>
</g>
</g>
</svg>