<?xml version="1.0" encoding="UTF-8" standalone="no"?><!DOCTYPE svg PUBLIC "-//W3C//DTD SVG 1.1//EN" "http://www.w3.org/Graphics/SVG/1.1/DTD/svg11.dtd"><!-- Generated by graphviz version 2.40.1 (20161225.0304)
 --><!-- Title: %0 Pages: 1 --><svg xmlns="http://www.w3.org/2000/svg" xmlns:xlink="http://www.w3.org/1999/xlink" width="634pt" height="207pt" viewBox="0.00 0.00 633.78 207.40">
<g id="graph0" class="graph" transform="scale(1 1) rotate(0) translate(4 203.4)">
<title>%0</title>
<polygon fill="#ffffff" stroke="transparent" points="-4,4 -4,-203.4 629.78,-203.4 629.78,4 -4,4"/>
<text text-anchor="middle" x="312.89" y="-8.2" font-family="Times,serif" font-size="14.00" fill="#000000"> linkedlist 编码的列表对象</text>
<g id="clust1" class="cluster">
<title>cluster_linked_list</title>
<polygon fill="none" stroke="#000000" stroke-dasharray="5,2" points="256.6558,-49.1 256.6558,-132.1 617.78,-132.1 617.78,-49.1 256.6558,-49.1"/>
<text text-anchor="middle" x="437.2179" y="-115.5" font-family="Times,serif" font-size="14.00" fill="#000000">链表</text>
</g>
<!-- redisObject -->
<g id="node1" class="node">
<title>redisObject</title>
<polygon fill="none" stroke="#000000" points="0,-41.3 0,-198.9 228.6558,-198.9 228.6558,-41.3 0,-41.3"/>
<text text-anchor="middle" x="114.3279" y="-182.3" font-family="Times,serif" font-size="14.00" fill="#000000">redisObject</text>
<polyline fill="none" stroke="#000000" points="0,-174.1 228.6558,-174.1 "/>
<text text-anchor="middle" x="114.3279" y="-157.5" font-family="Times,serif" font-size="14.00" fill="#000000">type </text>
<text text-anchor="middle" x="114.3279" y="-140.7" font-family="Times,serif" font-size="14.00" fill="#000000"> REDIS_LIST</text>
<polyline fill="none" stroke="#000000" points="0,-132.5 228.6558,-132.5 "/>
<text text-anchor="middle" x="114.3279" y="-115.9" font-family="Times,serif" font-size="14.00" fill="#000000">encoding </text>
<text text-anchor="middle" x="114.3279" y="-99.1" font-family="Times,serif" font-size="14.00" fill="#000000"> REDIS_ENCODING_LINKEDLIST</text>
<polyline fill="none" stroke="#000000" points="0,-90.9 228.6558,-90.9 "/>
<text text-anchor="middle" x="114.3279" y="-74.3" font-family="Times,serif" font-size="14.00" fill="#000000">ptr</text>
<polyline fill="none" stroke="#000000" points="0,-66.1 228.6558,-66.1 "/>
<text text-anchor="middle" x="114.3279" y="-49.5" font-family="Times,serif" font-size="14.00" fill="#000000">...</text>
</g>
<!-- node1 -->
<g id="node2" class="node">
<title>node1</title>
<polygon fill="none" stroke="#000000" points="264.6558,-57.3 264.6558,-98.9 355.6972,-98.9 355.6972,-57.3 264.6558,-57.3"/>
<text text-anchor="middle" x="310.1765" y="-82.3" font-family="Times,serif" font-size="14.00" fill="#000000">StringObject </text>
<text text-anchor="middle" x="310.1765" y="-65.5" font-family="Times,serif" font-size="14.00" fill="#000000"> 1</text>
</g>
<!-- redisObject&#45;&gt;node1 -->
<g id="edge3" class="edge">
<title>redisObject:ptr-&gt;node1</title>
<path fill="none" stroke="#000000" d="M228.3279,-78.1C236.7028,-78.1 245.5598,-78.1 254.2329,-78.1"/>
<polygon fill="#000000" stroke="#000000" points="254.2901,-81.6001 264.29,-78.1 254.29,-74.6001 254.2901,-81.6001"/>
</g>
<!-- node2 -->
<g id="node3" class="node">
<title>node2</title>
<polygon fill="none" stroke="#000000" points="391.6972,-57.3 391.6972,-98.9 482.7386,-98.9 482.7386,-57.3 391.6972,-57.3"/>
<text text-anchor="middle" x="437.2179" y="-82.3" font-family="Times,serif" font-size="14.00" fill="#000000">StringObject </text>
<text text-anchor="middle" x="437.2179" y="-65.5" font-family="Times,serif" font-size="14.00" fill="#000000"> "three"</text>
</g>
<!-- node1&#45;&gt;node2 -->
<g id="edge1" class="edge">
<title>node1-&gt;node2</title>
<path fill="none" stroke="#000000" d="M356.0414,-78.1C364.227,-78.1 372.8375,-78.1 381.2677,-78.1"/>
<polygon fill="#000000" stroke="#000000" points="381.4204,-81.6001 391.4204,-78.1 381.4203,-74.6001 381.4204,-81.6001"/>
</g>
<!-- node3 -->
<g id="node4" class="node">
<title>node3</title>
<polygon fill="none" stroke="#000000" points="518.7386,-57.3 518.7386,-98.9 609.78,-98.9 609.78,-57.3 518.7386,-57.3"/>
<text text-anchor="middle" x="564.2593" y="-82.3" font-family="Times,serif" font-size="14.00" fill="#000000">StringObject </text>
<text text-anchor="middle" x="564.2593" y="-65.5" font-family="Times,serif" font-size="14.00" fill="#000000"> 5</text>
</g>
<!-- node2&#45;&gt;node3 -->
<g id="edge2" class="edge">
<title>node2-&gt;node3</title>
<path fill="none" stroke="#000000" d="M483.0828,-78.1C491.2684,-78.1 499.8789,-78.1 508.3091,-78.1"/>
<polygon fill="#000000" stroke="#000000" points="508.4618,-81.6001 518.4618,-78.1 508.4617,-74.6001 508.4618,-81.6001"/>
</g>
</g>
</svg>