<?xml version="1.0" encoding="UTF-8" standalone="no"?><!DOCTYPE svg PUBLIC "-//W3C//DTD SVG 1.1//EN" "http://www.w3.org/Graphics/SVG/1.1/DTD/svg11.dtd"><!-- Generated by graphviz version 2.40.1 (20161225.0304)
 --><!-- Title: %0 Pages: 1 --><svg xmlns="http://www.w3.org/2000/svg" xmlns:xlink="http://www.w3.org/1999/xlink" width="408pt" height="316pt" viewBox="0.00 0.00 407.68 316.10">
<g id="graph0" class="graph" transform="scale(1 1) rotate(0) translate(4 312.1)">
<title>%0</title>
<polygon fill="#ffffff" stroke="transparent" points="-4,4 -4,-312.1 403.681,-312.1 403.681,4 -4,4"/>
<text text-anchor="middle" x="199.8405" y="-8.2" font-family="Times,serif" font-size="14.00" fill="#000000"> hashtable 编码的集合对象</text>
<!-- redisObject -->
<g id="node1" class="node">
<title>redisObject</title>
<polygon fill="none" stroke="#000000" points="0,-150 0,-307.6 165.681,-307.6 165.681,-150 0,-150"/>
<text text-anchor="middle" x="82.8405" y="-291" font-family="Times,serif" font-size="14.00" fill="#000000">redisObject</text>
<polyline fill="none" stroke="#000000" points="0,-282.8 165.681,-282.8 "/>
<text text-anchor="middle" x="82.8405" y="-266.2" font-family="Times,serif" font-size="14.00" fill="#000000">type </text>
<text text-anchor="middle" x="82.8405" y="-249.4" font-family="Times,serif" font-size="14.00" fill="#000000"> REDIS_SET</text>
<polyline fill="none" stroke="#000000" points="0,-241.2 165.681,-241.2 "/>
<text text-anchor="middle" x="82.8405" y="-224.6" font-family="Times,serif" font-size="14.00" fill="#000000">encoding </text>
<text text-anchor="middle" x="82.8405" y="-207.8" font-family="Times,serif" font-size="14.00" fill="#000000"> REDIS_ENCODING_HT</text>
<polyline fill="none" stroke="#000000" points="0,-199.6 165.681,-199.6 "/>
<text text-anchor="middle" x="82.8405" y="-183" font-family="Times,serif" font-size="14.00" fill="#000000">ptr</text>
<polyline fill="none" stroke="#000000" points="0,-174.8 165.681,-174.8 "/>
<text text-anchor="middle" x="82.8405" y="-158.2" font-family="Times,serif" font-size="14.00" fill="#000000">...</text>
</g>
<!-- dict -->
<g id="node2" class="node">
<title>dict</title>
<polygon fill="none" stroke="#000000" points="201.681,-50 201.681,-199.6 309.681,-199.6 309.681,-50 201.681,-50"/>
<text text-anchor="middle" x="255.681" y="-183" font-family="Times,serif" font-size="14.00" fill="#000000">dict</text>
<polyline fill="none" stroke="#000000" points="201.681,-174.8 309.681,-174.8 "/>
<text text-anchor="middle" x="255.681" y="-158.2" font-family="Times,serif" font-size="14.00" fill="#000000">StringObject </text>
<text text-anchor="middle" x="255.681" y="-141.4" font-family="Times,serif" font-size="14.00" fill="#000000"> "cherry"</text>
<polyline fill="none" stroke="#000000" points="201.681,-133.2 309.681,-133.2 "/>
<text text-anchor="middle" x="255.681" y="-116.6" font-family="Times,serif" font-size="14.00" fill="#000000">StringObject </text>
<text text-anchor="middle" x="255.681" y="-99.8" font-family="Times,serif" font-size="14.00" fill="#000000"> "apple"</text>
<polyline fill="none" stroke="#000000" points="201.681,-91.6 309.681,-91.6 "/>
<text text-anchor="middle" x="255.681" y="-75" font-family="Times,serif" font-size="14.00" fill="#000000">StringObject </text>
<text text-anchor="middle" x="255.681" y="-58.2" font-family="Times,serif" font-size="14.00" fill="#000000"> "banana"</text>
</g>
<!-- redisObject&#45;&gt;dict -->
<g id="edge1" class="edge">
<title>redisObject:ptr-&gt;dict:head</title>
<path fill="none" stroke="#000000" d="M165.681,-186.8C177.681,-186.8 182.931,-186.8 191.556,-186.8"/>
<polygon fill="#000000" stroke="#000000" points="191.681,-190.3001 201.681,-186.8 191.681,-183.3001 191.681,-190.3001"/>
</g>
<!-- nullX -->
<g id="node3" class="node">
<title>nullX</title>
<text text-anchor="middle" x="372.681" y="-108.6" font-family="Times,serif" font-size="14.00" fill="#000000">NULL</text>
</g>
<!-- dict&#45;&gt;nullX -->
<g id="edge2" class="edge">
<title>dict:apple-&gt;nullX</title>
<path fill="none" stroke="#000000" d="M309.681,-112.8C317.9098,-112.8 326.7431,-112.8 335.115,-112.8"/>
<polygon fill="#000000" stroke="#000000" points="335.3923,-116.3001 345.3923,-112.8 335.3922,-109.3001 335.3923,-116.3001"/>
</g>
<!-- nullY -->
<g id="node4" class="node">
<title>nullY</title>
<text text-anchor="middle" x="372.681" y="-54.6" font-family="Times,serif" font-size="14.00" fill="#000000">NULL</text>
</g>
<!-- dict&#45;&gt;nullY -->
<g id="edge3" class="edge">
<title>dict:banana-&gt;nullY</title>
<path fill="none" stroke="#000000" d="M309.681,-70.8C318.1508,-70.8 327.1497,-69.7404 335.6155,-68.251"/>
<polygon fill="#000000" stroke="#000000" points="336.4813,-71.6474 345.6061,-66.2633 335.1153,-64.782 336.4813,-71.6474"/>
</g>
<!-- nullZ -->
<g id="node5" class="node">
<title>nullZ</title>
<text text-anchor="middle" x="372.681" y="-162.6" font-family="Times,serif" font-size="14.00" fill="#000000">NULL</text>
</g>
<!-- dict&#45;&gt;nullZ -->
<g id="edge4" class="edge">
<title>dict:cherry-&gt;nullZ</title>
<path fill="none" stroke="#000000" d="M309.681,-153.8C318.1765,-153.8 327.1859,-154.9479 335.6536,-156.5614"/>
<polygon fill="#000000" stroke="#000000" points="335.1298,-160.0289 345.6428,-158.7147 336.6049,-153.186 335.1298,-160.0289"/>
</g>
</g>
</svg>