<?xml version="1.0" encoding="UTF-8" standalone="no"?><!DOCTYPE svg PUBLIC "-//W3C//DTD SVG 1.1//EN" "http://www.w3.org/Graphics/SVG/1.1/DTD/svg11.dtd"><!-- Generated by graphviz version 2.40.1 (20161225.0304)
 --><!-- Title: %0 Pages: 1 --><svg xmlns="http://www.w3.org/2000/svg" xmlns:xlink="http://www.w3.org/1999/xlink" width="532pt" height="167pt" viewBox="0.00 0.00 532.14 166.60">
<g id="graph0" class="graph" transform="scale(1 1) rotate(0) translate(4 162.6)">
<title>%0</title>
<polygon fill="#ffffff" stroke="transparent" points="-4,4 -4,-162.6 528.1444,-162.6 528.1444,4 -4,4"/>
<!-- redisObject -->
<g id="node1" class="node">
<title>redisObject</title>
<polygon fill="none" stroke="#000000" points="0,-.5 0,-158.1 197.566,-158.1 197.566,-.5 0,-.5"/>
<text text-anchor="middle" x="98.783" y="-141.5" font-family="Times,serif" font-size="14.00" fill="#000000">redisObject</text>
<polyline fill="none" stroke="#000000" points="0,-133.3 197.566,-133.3 "/>
<text text-anchor="middle" x="98.783" y="-116.7" font-family="Times,serif" font-size="14.00" fill="#000000">type </text>
<text text-anchor="middle" x="98.783" y="-99.9" font-family="Times,serif" font-size="14.00" fill="#000000"> REDIS_LIST</text>
<polyline fill="none" stroke="#000000" points="0,-91.7 197.566,-91.7 "/>
<text text-anchor="middle" x="98.783" y="-75.1" font-family="Times,serif" font-size="14.00" fill="#000000">encoding </text>
<text text-anchor="middle" x="98.783" y="-58.3" font-family="Times,serif" font-size="14.00" fill="#000000"> REDIS_ENCODING_ZIPLIST</text>
<polyline fill="none" stroke="#000000" points="0,-50.1 197.566,-50.1 "/>
<text text-anchor="middle" x="98.783" y="-33.5" font-family="Times,serif" font-size="14.00" fill="#000000">ptr</text>
<polyline fill="none" stroke="#000000" points="0,-25.3 197.566,-25.3 "/>
<text text-anchor="middle" x="98.783" y="-8.7" font-family="Times,serif" font-size="14.00" fill="#000000">...</text>
</g>
<!-- ziplist -->
<g id="node2" class="node">
<title>ziplist</title>
<polygon fill="none" stroke="#000000" points="233.566,-19.3 233.566,-55.3 524.1444,-55.3 524.1444,-19.3 233.566,-19.3"/>
<text text-anchor="middle" x="261.3935" y="-33.2" font-family="Times,serif" font-size="14.00" fill="#000000">zlbytes</text>
<polyline fill="none" stroke="#000000" points="289.221,-19.5 289.221,-55.3 "/>
<text text-anchor="middle" x="311.2168" y="-33.2" font-family="Times,serif" font-size="14.00" fill="#000000">zltail</text>
<polyline fill="none" stroke="#000000" points="333.2126,-19.5 333.2126,-55.3 "/>
<text text-anchor="middle" x="354.8178" y="-33.2" font-family="Times,serif" font-size="14.00" fill="#000000">zllen</text>
<polyline fill="none" stroke="#000000" points="376.423,-19.5 376.423,-55.3 "/>
<text text-anchor="middle" x="387.923" y="-33.2" font-family="Times,serif" font-size="14.00" fill="#000000">1</text>
<polyline fill="none" stroke="#000000" points="399.423,-19.5 399.423,-55.3 "/>
<text text-anchor="middle" x="427.1238" y="-33.2" font-family="Times,serif" font-size="14.00" fill="#000000">"three"</text>
<polyline fill="none" stroke="#000000" points="454.8246,-19.5 454.8246,-55.3 "/>
<text text-anchor="middle" x="466.3246" y="-33.2" font-family="Times,serif" font-size="14.00" fill="#000000">5</text>
<polyline fill="none" stroke="#000000" points="477.8246,-19.5 477.8246,-55.3 "/>
<text text-anchor="middle" x="500.9845" y="-33.2" font-family="Times,serif" font-size="14.00" fill="#000000">zlend</text>
</g>
<!-- redisObject&#45;&gt;ziplist -->
<g id="edge1" class="edge">
<title>redisObject:ptr-&gt;ziplist</title>
<path fill="none" stroke="#000000" d="M197.566,-37.3C205.9361,-37.3 214.5235,-37.3 223.1928,-37.3"/>
<polygon fill="#000000" stroke="#000000" points="223.3994,-40.8001 233.3994,-37.3 223.3993,-33.8001 223.3994,-40.8001"/>
</g>
</g>
</svg>