<?xml version="1.0" encoding="UTF-8" standalone="no"?><!DOCTYPE svg PUBLIC "-//W3C//DTD SVG 1.1//EN" "http://www.w3.org/Graphics/SVG/1.1/DTD/svg11.dtd"><!-- Generated by graphviz version 2.40.1 (20161225.0304)
 --><!-- Title: %0 Pages: 1 --><svg xmlns="http://www.w3.org/2000/svg" xmlns:xlink="http://www.w3.org/1999/xlink" width="555pt" height="268pt" viewBox="0.00 0.00 554.64 267.50">
<g id="graph0" class="graph" transform="scale(1 1) rotate(0) translate(4 263.5)">
<title>%0</title>
<polygon fill="#ffffff" stroke="transparent" points="-4,4 -4,-263.5 550.6446,-263.5 550.6446,4 -4,4"/>
<text text-anchor="middle" x="273.3223" y="-8.2" font-family="Times,serif" font-size="14.00" fill="#000000"> 拉链法解决哈希冲突</text>
<!-- dictht -->
<g id="node1" class="node">
<title>dictht</title>
<polygon fill="none" stroke="#000000" points="0,-84.6 0,-259 70.8142,-259 70.8142,-84.6 0,-84.6"/>
<text text-anchor="middle" x="35.4071" y="-242.4" font-family="Times,serif" font-size="14.00" fill="#000000">dictht</text>
<polyline fill="none" stroke="#000000" points="0,-234.2 70.8142,-234.2 "/>
<text text-anchor="middle" x="35.4071" y="-217.6" font-family="Times,serif" font-size="14.00" fill="#000000">table</text>
<polyline fill="none" stroke="#000000" points="0,-209.4 70.8142,-209.4 "/>
<text text-anchor="middle" x="35.4071" y="-192.8" font-family="Times,serif" font-size="14.00" fill="#000000">size </text>
<text text-anchor="middle" x="35.4071" y="-176" font-family="Times,serif" font-size="14.00" fill="#000000"> 4</text>
<polyline fill="none" stroke="#000000" points="0,-167.8 70.8142,-167.8 "/>
<text text-anchor="middle" x="35.4071" y="-151.2" font-family="Times,serif" font-size="14.00" fill="#000000">sizemask </text>
<text text-anchor="middle" x="35.4071" y="-134.4" font-family="Times,serif" font-size="14.00" fill="#000000"> 3</text>
<polyline fill="none" stroke="#000000" points="0,-126.2 70.8142,-126.2 "/>
<text text-anchor="middle" x="35.4071" y="-109.6" font-family="Times,serif" font-size="14.00" fill="#000000">used </text>
<text text-anchor="middle" x="35.4071" y="-92.8" font-family="Times,serif" font-size="14.00" fill="#000000"> 2</text>
</g>
<!-- table -->
<g id="node2" class="node">
<title>table</title>
<polygon fill="none" stroke="#000000" points="107.8142,-109.8 107.8142,-233.8 199.235,-233.8 199.235,-109.8 107.8142,-109.8"/>
<text text-anchor="middle" x="153.5246" y="-217.2" font-family="Times,serif" font-size="14.00" fill="#000000">dictEntry*[4]</text>
<polyline fill="none" stroke="#000000" points="107.8142,-209 199.235,-209 "/>
<text text-anchor="middle" x="153.5246" y="-192.4" font-family="Times,serif" font-size="14.00" fill="#000000">0</text>
<polyline fill="none" stroke="#000000" points="107.8142,-184.2 199.235,-184.2 "/>
<text text-anchor="middle" x="153.5246" y="-167.6" font-family="Times,serif" font-size="14.00" fill="#000000">1</text>
<polyline fill="none" stroke="#000000" points="107.8142,-159.4 199.235,-159.4 "/>
<text text-anchor="middle" x="153.5246" y="-142.8" font-family="Times,serif" font-size="14.00" fill="#000000">2</text>
<polyline fill="none" stroke="#000000" points="107.8142,-134.6 199.235,-134.6 "/>
<text text-anchor="middle" x="153.5246" y="-118" font-family="Times,serif" font-size="14.00" fill="#000000">3</text>
</g>
<!-- dictht&#45;&gt;table -->
<g id="edge1" class="edge">
<title>dictht:table-&gt;table:head</title>
<path fill="none" stroke="#000000" d="M70.4071,-221.8C83.006,-221.8 88.4442,-221.8 97.5747,-221.8"/>
<polygon fill="#000000" stroke="#000000" points="97.8142,-225.3001 107.8142,-221.8 97.8142,-218.3001 97.8142,-225.3001"/>
</g>
<!-- dictEntry1 -->
<g id="node4" class="node">
<title>dictEntry1</title>
<polygon fill="none" stroke="#000000" points="236.235,-95 236.235,-144.6 304.3346,-144.6 304.3346,-95 236.235,-95"/>
<text text-anchor="middle" x="270.2848" y="-128" font-family="Times,serif" font-size="14.00" fill="#000000">dictEntry</text>
<polyline fill="none" stroke="#000000" points="236.235,-119.8 304.3346,-119.8 "/>
<text text-anchor="middle" x="253.235" y="-103.2" font-family="Times,serif" font-size="14.00" fill="#000000">k1</text>
<polyline fill="none" stroke="#000000" points="270.235,-95 270.235,-119.8 "/>
<text text-anchor="middle" x="287.235" y="-103.2" font-family="Times,serif" font-size="14.00" fill="#000000">v1</text>
</g>
<!-- table&#45;&gt;dictEntry1 -->
<g id="edge4" class="edge">
<title>table:2-&gt;dictEntry1</title>
<path fill="none" stroke="#000000" d="M199.235,-146.8C208.441,-146.8 217.9061,-144.7948 226.8054,-141.8772"/>
<polygon fill="#000000" stroke="#000000" points="228.0341,-145.1545 236.2008,-138.405 225.6076,-138.5886 228.0341,-145.1545"/>
</g>
<!-- null0 -->
<g id="node5" class="node">
<title>null0</title>
<text text-anchor="middle" x="270.2848" y="-230.6" font-family="Times,serif" font-size="14.00" fill="#000000">NULL</text>
</g>
<!-- table&#45;&gt;null0 -->
<g id="edge2" class="edge">
<title>table:0-&gt;null0</title>
<path fill="none" stroke="#000000" d="M199.235,-196.8C214.0933,-196.8 228.8534,-203.3419 241.0387,-210.9971"/>
<polygon fill="#000000" stroke="#000000" points="239.1822,-213.9671 249.4211,-216.6903 243.1152,-208.1764 239.1822,-213.9671"/>
</g>
<!-- null1 -->
<g id="node6" class="node">
<title>null1</title>
<text text-anchor="middle" x="270.2848" y="-176.6" font-family="Times,serif" font-size="14.00" fill="#000000">NULL</text>
</g>
<!-- table&#45;&gt;null1 -->
<g id="edge3" class="edge">
<title>table:1-&gt;null1</title>
<path fill="none" stroke="#000000" d="M199.235,-171.8C210.2591,-171.8 222.1697,-172.8796 233.0303,-174.2909"/>
<polygon fill="#000000" stroke="#000000" points="232.664,-177.774 243.0581,-175.7213 233.6526,-170.8442 232.664,-177.774"/>
</g>
<!-- null3 -->
<g id="node8" class="node">
<title>null3</title>
<text text-anchor="middle" x="270.2848" y="-54.6" font-family="Times,serif" font-size="14.00" fill="#000000">NULL</text>
</g>
<!-- table&#45;&gt;null3 -->
<g id="edge7" class="edge">
<title>table:3-&gt;null3</title>
<path fill="none" stroke="#000000" d="M199.235,-121.8C222.1788,-121.8 219.0018,-100.9472 236.235,-85.8 237.0567,-85.0778 237.8945,-84.3508 238.744,-83.6218"/>
<polygon fill="#000000" stroke="#000000" points="241.1444,-86.1774 246.5847,-77.0859 236.6623,-80.8005 241.1444,-86.1774"/>
</g>
<!-- dictEntry0 -->
<g id="node3" class="node">
<title>dictEntry0</title>
<polygon fill="none" stroke="#000000" points="364.4398,-95 364.4398,-144.6 432.5394,-144.6 432.5394,-95 364.4398,-95"/>
<text text-anchor="middle" x="398.4896" y="-128" font-family="Times,serif" font-size="14.00" fill="#000000">dictEntry</text>
<polyline fill="none" stroke="#000000" points="364.4398,-119.8 432.5394,-119.8 "/>
<text text-anchor="middle" x="381.4398" y="-103.2" font-family="Times,serif" font-size="14.00" fill="#000000">k0</text>
<polyline fill="none" stroke="#000000" points="398.4398,-95 398.4398,-119.8 "/>
<text text-anchor="middle" x="415.4398" y="-103.2" font-family="Times,serif" font-size="14.00" fill="#000000">v0</text>
</g>
<!-- null2 -->
<g id="node7" class="node">
<title>null2</title>
<text text-anchor="middle" x="519.6446" y="-115.6" font-family="Times,serif" font-size="14.00" fill="#000000">NULL</text>
</g>
<!-- dictEntry0&#45;&gt;null2 -->
<g id="edge6" class="edge">
<title>dictEntry0-&gt;null2</title>
<path fill="none" stroke="#000000" d="M432.5604,-119.8C448.062,-119.8 466.4482,-119.8 482.3225,-119.8"/>
<polygon fill="#000000" stroke="#000000" points="482.3359,-123.3001 492.3359,-119.8 482.3358,-116.3001 482.3359,-123.3001"/>
<text text-anchor="middle" x="462.592" y="-124" font-family="Times,serif" font-size="14.00" fill="#000000">next</text>
</g>
<!-- dictEntry1&#45;&gt;dictEntry0 -->
<g id="edge5" class="edge">
<title>dictEntry1-&gt;dictEntry0</title>
<path fill="none" stroke="#000000" d="M304.6413,-119.8C319.7306,-119.8 337.6454,-119.8 353.758,-119.8"/>
<polygon fill="#000000" stroke="#000000" points="354.0383,-123.3001 364.0382,-119.8 354.0382,-116.3001 354.0383,-123.3001"/>
<text text-anchor="middle" x="334.3872" y="-124" font-family="Times,serif" font-size="14.00" fill="#000000">next</text>
</g>
</g>
</svg>