<?xml version="1.0" encoding="UTF-8" standalone="no"?><!DOCTYPE svg PUBLIC "-//W3C//DTD SVG 1.1//EN" "http://www.w3.org/Graphics/SVG/1.1/DTD/svg11.dtd"><!-- Generated by graphviz version 2.40.1 (20161225.0304)
 --><!-- Title: %0 Pages: 1 --><svg xmlns="http://www.w3.org/2000/svg" xmlns:xlink="http://www.w3.org/1999/xlink" width="491pt" height="297pt" viewBox="0.00 0.00 491.25 296.60">
<g id="graph0" class="graph" transform="scale(1 1) rotate(0) translate(4 292.6)">
<title>%0</title>
<polygon fill="#ffffff" stroke="transparent" points="-4,4 -4,-292.6 487.2526,-292.6 487.2526,4 -4,4"/>
<text text-anchor="middle" x="241.6263" y="-8.2" font-family="Times,serif" font-size="14.00" fill="#000000"> intset 编码的集合对象</text>
<!-- redisObject -->
<g id="node1" class="node">
<title>redisObject</title>
<polygon fill="none" stroke="#000000" points="0,-130.5 0,-288.1 195.2294,-288.1 195.2294,-130.5 0,-130.5"/>
<text text-anchor="middle" x="97.6147" y="-271.5" font-family="Times,serif" font-size="14.00" fill="#000000">redisObject</text>
<polyline fill="none" stroke="#000000" points="0,-263.3 195.2294,-263.3 "/>
<text text-anchor="middle" x="97.6147" y="-246.7" font-family="Times,serif" font-size="14.00" fill="#000000">type </text>
<text text-anchor="middle" x="97.6147" y="-229.9" font-family="Times,serif" font-size="14.00" fill="#000000"> REDIS_SET</text>
<polyline fill="none" stroke="#000000" points="0,-221.7 195.2294,-221.7 "/>
<text text-anchor="middle" x="97.6147" y="-205.1" font-family="Times,serif" font-size="14.00" fill="#000000">encoding </text>
<text text-anchor="middle" x="97.6147" y="-188.3" font-family="Times,serif" font-size="14.00" fill="#000000"> REDIS_ENCODING_INTSET</text>
<polyline fill="none" stroke="#000000" points="0,-180.1 195.2294,-180.1 "/>
<text text-anchor="middle" x="97.6147" y="-163.5" font-family="Times,serif" font-size="14.00" fill="#000000">ptr</text>
<polyline fill="none" stroke="#000000" points="0,-155.3 195.2294,-155.3 "/>
<text text-anchor="middle" x="97.6147" y="-138.7" font-family="Times,serif" font-size="14.00" fill="#000000">...</text>
</g>
<!-- intset -->
<g id="node2" class="node">
<title>intset</title>
<polygon fill="none" stroke="#000000" points="231.2294,-46.9 231.2294,-179.7 378.2526,-179.7 378.2526,-46.9 231.2294,-46.9"/>
<text text-anchor="middle" x="304.741" y="-163.1" font-family="Times,serif" font-size="14.00" fill="#000000">intset</text>
<polyline fill="none" stroke="#000000" points="231.2294,-154.9 378.2526,-154.9 "/>
<text text-anchor="middle" x="304.741" y="-138.3" font-family="Times,serif" font-size="14.00" fill="#000000">encoding </text>
<text text-anchor="middle" x="304.741" y="-121.5" font-family="Times,serif" font-size="14.00" fill="#000000"> INTSET_ENC_INT16</text>
<polyline fill="none" stroke="#000000" points="231.2294,-113.3 378.2526,-113.3 "/>
<text text-anchor="middle" x="304.741" y="-96.7" font-family="Times,serif" font-size="14.00" fill="#000000">length </text>
<text text-anchor="middle" x="304.741" y="-79.9" font-family="Times,serif" font-size="14.00" fill="#000000"> 3</text>
<polyline fill="none" stroke="#000000" points="231.2294,-71.7 378.2526,-71.7 "/>
<text text-anchor="middle" x="304.741" y="-55.1" font-family="Times,serif" font-size="14.00" fill="#000000">contents</text>
</g>
<!-- redisObject&#45;&gt;intset -->
<g id="edge1" class="edge">
<title>redisObject:ptr-&gt;intset:head</title>
<path fill="none" stroke="#000000" d="M195.2294,-167.3C207.2294,-167.3 212.4794,-167.3 221.1044,-167.3"/>
<polygon fill="#000000" stroke="#000000" points="221.2294,-170.8001 231.2294,-167.3 221.2294,-163.8001 221.2294,-170.8001"/>
</g>
<!-- contents -->
<g id="node3" class="node">
<title>contents</title>
<polygon fill="none" stroke="#000000" points="414.2526,-41.3 414.2526,-77.3 483.2526,-77.3 483.2526,-41.3 414.2526,-41.3"/>
<text text-anchor="middle" x="425.7526" y="-55.2" font-family="Times,serif" font-size="14.00" fill="#000000">1</text>
<polyline fill="none" stroke="#000000" points="437.2526,-41.5 437.2526,-77.3 "/>
<text text-anchor="middle" x="448.7526" y="-55.2" font-family="Times,serif" font-size="14.00" fill="#000000">3</text>
<polyline fill="none" stroke="#000000" points="460.2526,-41.5 460.2526,-77.3 "/>
<text text-anchor="middle" x="471.7526" y="-55.2" font-family="Times,serif" font-size="14.00" fill="#000000">5</text>
</g>
<!-- intset&#45;&gt;contents -->
<g id="edge2" class="edge">
<title>intset:contents-&gt;contents</title>
<path fill="none" stroke="#000000" d="M378.2526,-59.3C386.5191,-59.3 395.3308,-59.3 403.8247,-59.3"/>
<polygon fill="#000000" stroke="#000000" points="403.9698,-62.8001 413.9697,-59.3 403.9697,-55.8001 403.9698,-62.8001"/>
</g>
</g>
</svg>