<?xml version="1.0" encoding="UTF-8" standalone="no"?><!DOCTYPE svg PUBLIC "-//W3C//DTD SVG 1.1//EN" "http://www.w3.org/Graphics/SVG/1.1/DTD/svg11.dtd"><!-- Generated by graphviz version 2.40.1 (20161225.0304)
 --><!-- Title: %0 Pages: 1 --><svg xmlns="http://www.w3.org/2000/svg" xmlns:xlink="http://www.w3.org/1999/xlink" width="729pt" height="509pt" viewBox="0.00 0.00 728.94 508.52">
<g id="graph0" class="graph" transform="scale(1 1) rotate(0) translate(4 504.5216)">
<title>%0</title>
<polygon fill="#ffffff" stroke="transparent" points="-4,4 -4,-504.5216 724.9384,-504.5216 724.9384,4 -4,4"/>
<text text-anchor="middle" x="360.4692" y="-8.2" font-family="Times,serif" font-size="14.00" fill="#000000"> 有序集合元素同时被保存在字典和跳跃表中</text>
<g id="clust1" class="cluster">
<title>cluster_nodes</title>
</g>
<g id="clust2" class="cluster">
<title>cluster_nulls</title>
</g>
<!-- zset -->
<g id="node1" class="node">
<title>zset</title>
<polygon fill="none" stroke="#000000" points="0,-287.3216 0,-361.7216 54,-361.7216 54,-287.3216 0,-287.3216"/>
<text text-anchor="middle" x="27" y="-345.1216" font-family="Times,serif" font-size="14.00" fill="#000000">zset</text>
<polyline fill="none" stroke="#000000" points="0,-336.9216 54,-336.9216 "/>
<text text-anchor="middle" x="27" y="-320.3216" font-family="Times,serif" font-size="14.00" fill="#000000">dict</text>
<polyline fill="none" stroke="#000000" points="0,-312.1216 54,-312.1216 "/>
<text text-anchor="middle" x="27" y="-295.5216" font-family="Times,serif" font-size="14.00" fill="#000000">zsl</text>
</g>
<!-- dict -->
<g id="node2" class="node">
<title>dict</title>
<polygon fill="none" stroke="#000000" points="90.2479,-345.9216 90.2479,-445.1216 144.2479,-445.1216 144.2479,-345.9216 90.2479,-345.9216"/>
<text text-anchor="middle" x="117.2479" y="-428.5216" font-family="Times,serif" font-size="14.00" fill="#000000">dict</text>
<polyline fill="none" stroke="#000000" points="90.2479,-420.3216 144.2479,-420.3216 "/>
<text text-anchor="middle" x="117.2479" y="-403.7216" font-family="Times,serif" font-size="14.00" fill="#000000">...</text>
<polyline fill="none" stroke="#000000" points="90.2479,-395.5216 144.2479,-395.5216 "/>
<text text-anchor="middle" x="117.2479" y="-378.9216" font-family="Times,serif" font-size="14.00" fill="#000000">ht[0]</text>
<polyline fill="none" stroke="#000000" points="90.2479,-370.7216 144.2479,-370.7216 "/>
<text text-anchor="middle" x="117.2479" y="-354.1216" font-family="Times,serif" font-size="14.00" fill="#000000">...</text>
</g>
<!-- zset&#45;&gt;dict -->
<g id="edge1" class="edge">
<title>zset:dict-&gt;dict:head</title>
<path fill="none" stroke="#000000" d="M54,-324.5216C100.6758,-324.5216 49.0692,-416.3058 80.3884,-430.6471"/>
<polygon fill="#000000" stroke="#000000" points="79.7701,-434.0921 90.2479,-432.5216 81.0776,-427.2153 79.7701,-434.0921"/>
</g>
<!-- l -->
<g id="node8" class="node">
<title>l</title>
<polygon fill="none" stroke="#000000" points="90,-133.1216 90,-265.9216 144.4958,-265.9216 144.4958,-133.1216 90,-133.1216"/>
<text text-anchor="middle" x="117.2479" y="-249.3216" font-family="Times,serif" font-size="14.00" fill="#000000">header</text>
<polyline fill="none" stroke="#000000" points="90,-241.1216 144.4958,-241.1216 "/>
<text text-anchor="middle" x="117.2479" y="-224.5216" font-family="Times,serif" font-size="14.00" fill="#000000">tail</text>
<polyline fill="none" stroke="#000000" points="90,-216.3216 144.4958,-216.3216 "/>
<text text-anchor="middle" x="117.2479" y="-199.7216" font-family="Times,serif" font-size="14.00" fill="#000000">level </text>
<text text-anchor="middle" x="117.2479" y="-182.9216" font-family="Times,serif" font-size="14.00" fill="#000000"> 5</text>
<polyline fill="none" stroke="#000000" points="90,-174.7216 144.4958,-174.7216 "/>
<text text-anchor="middle" x="117.2479" y="-158.1216" font-family="Times,serif" font-size="14.00" fill="#000000">length </text>
<text text-anchor="middle" x="117.2479" y="-141.3216" font-family="Times,serif" font-size="14.00" fill="#000000"> 3</text>
</g>
<!-- zset&#45;&gt;l -->
<g id="edge29" class="edge">
<title>zset:zsl-&gt;l:header</title>
<path fill="none" stroke="#000000" d="M54,-299.5216C75.7587,-299.5216 68.2804,-267.3772 80.4457,-256.8298"/>
<polygon fill="#000000" stroke="#000000" points="81.8922,-260.0357 90.2479,-253.5216 79.6537,-253.4032 81.8922,-260.0357"/>
</g>
<!-- ht0 -->
<g id="node3" class="node">
<title>ht0</title>
<polygon fill="none" stroke="#000000" points="180.4958,-372.9216 180.4958,-472.1216 234.4958,-472.1216 234.4958,-372.9216 180.4958,-372.9216"/>
<text text-anchor="middle" x="207.4958" y="-455.5216" font-family="Times,serif" font-size="14.00" fill="#000000">dictht</text>
<polyline fill="none" stroke="#000000" points="180.4958,-447.3216 234.4958,-447.3216 "/>
<text text-anchor="middle" x="207.4958" y="-430.7216" font-family="Times,serif" font-size="14.00" fill="#000000">...</text>
<polyline fill="none" stroke="#000000" points="180.4958,-422.5216 234.4958,-422.5216 "/>
<text text-anchor="middle" x="207.4958" y="-405.9216" font-family="Times,serif" font-size="14.00" fill="#000000">table</text>
<polyline fill="none" stroke="#000000" points="180.4958,-397.7216 234.4958,-397.7216 "/>
<text text-anchor="middle" x="207.4958" y="-381.1216" font-family="Times,serif" font-size="14.00" fill="#000000">...</text>
</g>
<!-- dict&#45;&gt;ht0 -->
<g id="edge2" class="edge">
<title>dict:ht0-&gt;ht0:head</title>
<path fill="none" stroke="#000000" d="M144.2479,-383.5216C177.5777,-383.5216 150.6067,-443.8058 170.7458,-456.993"/>
<polygon fill="#000000" stroke="#000000" points="169.9374,-460.399 180.4958,-459.5216 171.6947,-453.6232 169.9374,-460.399"/>
</g>
<!-- table -->
<g id="node4" class="node">
<title>table</title>
<polygon fill="none" stroke="#000000" points="270.4958,-362.1216 270.4958,-486.9216 361.5372,-486.9216 361.5372,-362.1216 270.4958,-362.1216"/>
<text text-anchor="middle" x="316.0165" y="-470.3216" font-family="Times,serif" font-size="14.00" fill="#000000">StringObject </text>
<text text-anchor="middle" x="316.0165" y="-453.5216" font-family="Times,serif" font-size="14.00" fill="#000000"> "banana"</text>
<polyline fill="none" stroke="#000000" points="270.4958,-445.3216 361.5372,-445.3216 "/>
<text text-anchor="middle" x="316.0165" y="-428.7216" font-family="Times,serif" font-size="14.00" fill="#000000">StringObject </text>
<text text-anchor="middle" x="316.0165" y="-411.9216" font-family="Times,serif" font-size="14.00" fill="#000000"> "apple"</text>
<polyline fill="none" stroke="#000000" points="270.4958,-403.7216 361.5372,-403.7216 "/>
<text text-anchor="middle" x="316.0165" y="-387.1216" font-family="Times,serif" font-size="14.00" fill="#000000">StringObject </text>
<text text-anchor="middle" x="316.0165" y="-370.3216" font-family="Times,serif" font-size="14.00" fill="#000000"> "cherry"</text>
</g>
<!-- ht0&#45;&gt;table -->
<g id="edge3" class="edge">
<title>ht0:table-&gt;table:head</title>
<path fill="none" stroke="#000000" d="M234.4958,-410.5216C242.8561,-410.5216 251.6299,-411.2457 260.1969,-412.3645"/>
<polygon fill="#000000" stroke="#000000" points="259.7156,-415.8313 270.1215,-413.8394 260.7447,-408.9074 259.7156,-415.8313"/>
</g>
<!-- apple_price -->
<g id="node5" class="node">
<title>apple_price</title>
<text text-anchor="middle" x="443.0579" y="-424.3216" font-family="Times,serif" font-size="14.00" fill="#000000">8.5</text>
</g>
<!-- table&#45;&gt;apple_price -->
<g id="edge4" class="edge">
<title>table:apple-&gt;apple_price</title>
<path fill="none" stroke="#000000" d="M361.5372,-424.5216C375.9905,-424.5216 391.868,-425.1566 405.7402,-425.9206"/>
<polygon fill="#000000" stroke="#000000" points="405.7114,-429.425 415.9007,-426.5216 406.1248,-422.4372 405.7114,-429.425"/>
</g>
<!-- banana_price -->
<g id="node6" class="node">
<title>banana_price</title>
<text text-anchor="middle" x="443.0579" y="-478.3216" font-family="Times,serif" font-size="14.00" fill="#000000">5.0</text>
</g>
<!-- table&#45;&gt;banana_price -->
<g id="edge5" class="edge">
<title>table:banana-&gt;banana_price</title>
<path fill="none" stroke="#000000" d="M361.5372,-466.5216C376.1336,-466.5216 391.9296,-469.0221 405.6955,-472.0461"/>
<polygon fill="#000000" stroke="#000000" points="405.2363,-475.5339 415.7732,-474.4279 406.8464,-468.7216 405.2363,-475.5339"/>
</g>
<!-- cherry_price -->
<g id="node7" class="node">
<title>cherry_price</title>
<text text-anchor="middle" x="443.0579" y="-370.3216" font-family="Times,serif" font-size="14.00" fill="#000000">6.0</text>
</g>
<!-- table&#45;&gt;cherry_price -->
<g id="edge6" class="edge">
<title>table:cherry-&gt;cherry_price</title>
<path fill="none" stroke="#000000" d="M361.5372,-382.5216C376.0425,-382.5216 391.9305,-381.2516 405.7966,-379.7236"/>
<polygon fill="#000000" stroke="#000000" points="406.4305,-383.1731 415.9496,-378.5216 405.6074,-376.2216 406.4305,-383.1731"/>
</g>
<!-- header -->
<g id="node9" class="node">
<title>header</title>
<polygon fill="none" stroke="#000000" points="188.2195,-166.7216 188.2195,-340.3216 226.7721,-340.3216 226.7721,-166.7216 188.2195,-166.7216"/>
<text text-anchor="middle" x="207.4958" y="-323.7216" font-family="Times,serif" font-size="14.00" fill="#000000">L32</text>
<polyline fill="none" stroke="#000000" points="188.2195,-315.5216 226.7721,-315.5216 "/>
<text text-anchor="middle" x="207.4958" y="-298.9216" font-family="Times,serif" font-size="14.00" fill="#000000">...</text>
<polyline fill="none" stroke="#000000" points="188.2195,-290.7216 226.7721,-290.7216 "/>
<text text-anchor="middle" x="207.4958" y="-274.1216" font-family="Times,serif" font-size="14.00" fill="#000000">L5</text>
<polyline fill="none" stroke="#000000" points="188.2195,-265.9216 226.7721,-265.9216 "/>
<text text-anchor="middle" x="207.4958" y="-249.3216" font-family="Times,serif" font-size="14.00" fill="#000000">L4</text>
<polyline fill="none" stroke="#000000" points="188.2195,-241.1216 226.7721,-241.1216 "/>
<text text-anchor="middle" x="207.4958" y="-224.5216" font-family="Times,serif" font-size="14.00" fill="#000000">L3</text>
<polyline fill="none" stroke="#000000" points="188.2195,-216.3216 226.7721,-216.3216 "/>
<text text-anchor="middle" x="207.4958" y="-199.7216" font-family="Times,serif" font-size="14.00" fill="#000000">L2</text>
<polyline fill="none" stroke="#000000" points="188.2195,-191.5216 226.7721,-191.5216 "/>
<text text-anchor="middle" x="207.4958" y="-174.9216" font-family="Times,serif" font-size="14.00" fill="#000000">L1</text>
</g>
<!-- l&#45;&gt;header -->
<g id="edge7" class="edge">
<title>l:header-&gt;header</title>
<path fill="none" stroke="#000000" d="M144.2479,-253.5216C155.2833,-253.5216 167.4018,-253.5216 178.0523,-253.5216"/>
<polygon fill="#000000" stroke="#000000" points="178.1189,-257.0217 188.1189,-253.5216 178.1189,-250.0217 178.1189,-257.0217"/>
</g>
<!-- C -->
<g id="node14" class="node">
<title>C</title>
<polygon fill="none" stroke="#000000" points="524.5786,-74.9216 524.5786,-290.1216 615.62,-290.1216 615.62,-74.9216 524.5786,-74.9216"/>
<text text-anchor="middle" x="570.0993" y="-273.5216" font-family="Times,serif" font-size="14.00" fill="#000000">L5</text>
<polyline fill="none" stroke="#000000" points="524.5786,-265.3216 615.62,-265.3216 "/>
<text text-anchor="middle" x="570.0993" y="-248.7216" font-family="Times,serif" font-size="14.00" fill="#000000">L4</text>
<polyline fill="none" stroke="#000000" points="524.5786,-240.5216 615.62,-240.5216 "/>
<text text-anchor="middle" x="570.0993" y="-223.9216" font-family="Times,serif" font-size="14.00" fill="#000000">L3</text>
<polyline fill="none" stroke="#000000" points="524.5786,-215.7216 615.62,-215.7216 "/>
<text text-anchor="middle" x="570.0993" y="-199.1216" font-family="Times,serif" font-size="14.00" fill="#000000">L2</text>
<polyline fill="none" stroke="#000000" points="524.5786,-190.9216 615.62,-190.9216 "/>
<text text-anchor="middle" x="570.0993" y="-174.3216" font-family="Times,serif" font-size="14.00" fill="#000000">L1</text>
<polyline fill="none" stroke="#000000" points="524.5786,-166.1216 615.62,-166.1216 "/>
<text text-anchor="middle" x="570.0993" y="-149.5216" font-family="Times,serif" font-size="14.00" fill="#000000">BW</text>
<polyline fill="none" stroke="#000000" points="524.5786,-141.3216 615.62,-141.3216 "/>
<text text-anchor="middle" x="570.0993" y="-124.7216" font-family="Times,serif" font-size="14.00" fill="#000000">8.5</text>
<polyline fill="none" stroke="#000000" points="524.5786,-116.5216 615.62,-116.5216 "/>
<text text-anchor="middle" x="570.0993" y="-99.9216" font-family="Times,serif" font-size="14.00" fill="#000000">StringObject </text>
<text text-anchor="middle" x="570.0993" y="-83.1216" font-family="Times,serif" font-size="14.00" fill="#000000"> "apple"</text>
</g>
<!-- l&#45;&gt;C -->
<g id="edge8" class="edge">
<title>l:tail-&gt;C</title>
<path fill="none" stroke="#000000" d="M144.2479,-228.5216C201.2379,-228.5216 135.5902,-146.6559 172.8366,-103.5216 203.2756,-68.2708 224.721,-74.1135 270.4958,-65.5216 365.7579,-47.6409 402.6564,-20.6667 488.5786,-65.5216 499.4883,-71.217 509.235,-79.1121 517.8589,-88.1381"/>
<polygon fill="#000000" stroke="#000000" points="515.2585,-90.4808 524.5352,-95.5987 520.4749,-85.8128 515.2585,-90.4808"/>
</g>
<!-- level_null -->
<g id="node11" class="node">
<title>level_null</title>
<text text-anchor="middle" x="316.0165" y="-318.3216" font-family="Times,serif" font-size="14.00" fill="#000000">NULL</text>
</g>
<!-- header&#45;&gt;level_null -->
<g id="edge9" class="edge">
<title>header:l32-&gt;level_null</title>
<path fill="none" stroke="#000000" d="M226.4958,-327.5216C243.7339,-327.5216 262.8102,-326.586 278.9085,-325.5242"/>
<polygon fill="#000000" stroke="#000000" points="279.2772,-329.007 289.0081,-324.8167 278.788,-322.0241 279.2772,-329.007"/>
</g>
<!-- A -->
<g id="node12" class="node">
<title>A</title>
<polygon fill="none" stroke="#000000" points="270.4958,-75.3216 270.4958,-265.7216 361.5372,-265.7216 361.5372,-75.3216 270.4958,-75.3216"/>
<text text-anchor="middle" x="316.0165" y="-249.1216" font-family="Times,serif" font-size="14.00" fill="#000000">L4</text>
<polyline fill="none" stroke="#000000" points="270.4958,-240.9216 361.5372,-240.9216 "/>
<text text-anchor="middle" x="316.0165" y="-224.3216" font-family="Times,serif" font-size="14.00" fill="#000000">L3</text>
<polyline fill="none" stroke="#000000" points="270.4958,-216.1216 361.5372,-216.1216 "/>
<text text-anchor="middle" x="316.0165" y="-199.5216" font-family="Times,serif" font-size="14.00" fill="#000000">L2</text>
<polyline fill="none" stroke="#000000" points="270.4958,-191.3216 361.5372,-191.3216 "/>
<text text-anchor="middle" x="316.0165" y="-174.7216" font-family="Times,serif" font-size="14.00" fill="#000000">L1</text>
<polyline fill="none" stroke="#000000" points="270.4958,-166.5216 361.5372,-166.5216 "/>
<text text-anchor="middle" x="316.0165" y="-149.9216" font-family="Times,serif" font-size="14.00" fill="#000000">BW</text>
<polyline fill="none" stroke="#000000" points="270.4958,-141.7216 361.5372,-141.7216 "/>
<text text-anchor="middle" x="316.0165" y="-125.1216" font-family="Times,serif" font-size="14.00" fill="#000000">5.0</text>
<polyline fill="none" stroke="#000000" points="270.4958,-116.9216 361.5372,-116.9216 "/>
<text text-anchor="middle" x="316.0165" y="-100.3216" font-family="Times,serif" font-size="14.00" fill="#000000">StringObject </text>
<text text-anchor="middle" x="316.0165" y="-83.5216" font-family="Times,serif" font-size="14.00" fill="#000000"> "banana"</text>
</g>
<!-- header&#45;&gt;A -->
<g id="edge11" class="edge">
<title>header:l4-&gt;A:l4</title>
<path fill="none" stroke="#000000" d="M226.4958,-253.5216C242.0791,-253.5216 248.349,-253.5216 260.1487,-253.5216"/>
<polygon fill="#000000" stroke="#000000" points="260.4958,-257.0217 270.4958,-253.5216 260.4958,-250.0217 260.4958,-257.0217"/>
</g>
<!-- header&#45;&gt;A -->
<g id="edge12" class="edge">
<title>header:l3-&gt;A:l3</title>
<path fill="none" stroke="#000000" d="M226.4958,-228.5216C242.0791,-228.5216 248.349,-228.5216 260.1487,-228.5216"/>
<polygon fill="#000000" stroke="#000000" points="260.4958,-232.0217 270.4958,-228.5216 260.4958,-225.0217 260.4958,-232.0217"/>
</g>
<!-- header&#45;&gt;A -->
<g id="edge13" class="edge">
<title>header:l2-&gt;A:l2</title>
<path fill="none" stroke="#000000" d="M226.4958,-203.5216C242.0791,-203.5216 248.349,-203.5216 260.1487,-203.5216"/>
<polygon fill="#000000" stroke="#000000" points="260.4958,-207.0217 270.4958,-203.5216 260.4958,-200.0217 260.4958,-207.0217"/>
</g>
<!-- header&#45;&gt;A -->
<g id="edge14" class="edge">
<title>header:l1-&gt;A:l1</title>
<path fill="none" stroke="#000000" d="M226.4958,-179.5216C242.236,-179.5216 248.4694,-178.8741 260.4959,-178.6212"/>
<polygon fill="#000000" stroke="#000000" points="260.5312,-182.1211 270.4958,-178.5216 260.4614,-175.1214 260.5312,-182.1211"/>
</g>
<!-- header&#45;&gt;C -->
<g id="edge10" class="edge">
<title>header:l5-&gt;C:l5</title>
<path fill="none" stroke="#000000" d="M226.4958,-278.5216C355.4846,-278.5216 390.281,-277.5737 514.3027,-277.5237"/>
<polygon fill="#000000" stroke="#000000" points="514.5793,-281.0237 524.5786,-277.5216 514.5779,-274.0237 514.5793,-281.0237"/>
</g>
<!-- bw_null -->
<g id="node10" class="node">
<title>bw_null</title>
<text text-anchor="middle" x="207.4958" y="-126.3216" font-family="Times,serif" font-size="14.00" fill="#000000">NULL</text>
</g>
<!-- bw_null&#45;&gt;A -->
<g id="edge26" class="edge">
<title>bw_null-&gt;A:backward</title>
<path fill="none" stroke="#000000" d="M243.602,-149.3121C252.1893,-152.3495 261.4817,-154.5216 270.4958,-154.5216"/>
<polygon fill="#000000" stroke="#000000" points="244.8437,-146.0393 234.2586,-145.5849 242.25,-152.5411 244.8437,-146.0393"/>
</g>
<!-- B -->
<g id="node13" class="node">
<title>B</title>
<polygon fill="none" stroke="#000000" points="397.5372,-75.1216 397.5372,-215.9216 488.5786,-215.9216 488.5786,-75.1216 397.5372,-75.1216"/>
<text text-anchor="middle" x="443.0579" y="-199.3216" font-family="Times,serif" font-size="14.00" fill="#000000">L2</text>
<polyline fill="none" stroke="#000000" points="397.5372,-191.1216 488.5786,-191.1216 "/>
<text text-anchor="middle" x="443.0579" y="-174.5216" font-family="Times,serif" font-size="14.00" fill="#000000">L1</text>
<polyline fill="none" stroke="#000000" points="397.5372,-166.3216 488.5786,-166.3216 "/>
<text text-anchor="middle" x="443.0579" y="-149.7216" font-family="Times,serif" font-size="14.00" fill="#000000">BW</text>
<polyline fill="none" stroke="#000000" points="397.5372,-141.5216 488.5786,-141.5216 "/>
<text text-anchor="middle" x="443.0579" y="-124.9216" font-family="Times,serif" font-size="14.00" fill="#000000">6.0</text>
<polyline fill="none" stroke="#000000" points="397.5372,-116.7216 488.5786,-116.7216 "/>
<text text-anchor="middle" x="443.0579" y="-100.1216" font-family="Times,serif" font-size="14.00" fill="#000000">StringObject </text>
<text text-anchor="middle" x="443.0579" y="-83.3216" font-family="Times,serif" font-size="14.00" fill="#000000"> "cherry"</text>
</g>
<!-- A&#45;&gt;B -->
<g id="edge17" class="edge">
<title>A:l2-&gt;B:l2</title>
<path fill="none" stroke="#000000" d="M361.5372,-203.5216C373.5372,-203.5216 378.7872,-203.5216 387.4122,-203.5216"/>
<polygon fill="#000000" stroke="#000000" points="387.5372,-207.0217 397.5372,-203.5216 387.5372,-200.0217 387.5372,-207.0217"/>
</g>
<!-- A&#45;&gt;B -->
<g id="edge18" class="edge">
<title>A:l1-&gt;B:l1</title>
<path fill="none" stroke="#000000" d="M361.5372,-178.5216C373.5372,-178.5216 378.7872,-178.5216 387.4122,-178.5216"/>
<polygon fill="#000000" stroke="#000000" points="387.5372,-182.0217 397.5372,-178.5216 387.5372,-175.0217 387.5372,-182.0217"/>
</g>
<!-- A&#45;&gt;B -->
<g id="edge27" class="edge">
<title>A:backward-&gt;B:backward</title>
<path fill="none" stroke="#000000" d="M371.6639,-154.3654C380.2884,-154.0841 385.5326,-153.5216 397.5372,-153.5216"/>
<polygon fill="#000000" stroke="#000000" points="371.482,-150.8677 361.5372,-154.5216 371.59,-157.8668 371.482,-150.8677"/>
</g>
<!-- A&#45;&gt;C -->
<g id="edge15" class="edge">
<title>A:l4-&gt;C:l4</title>
<path fill="none" stroke="#000000" d="M361.5372,-253.5216C430.4631,-253.5216 450.216,-252.6169 514.3398,-252.5285"/>
<polygon fill="#000000" stroke="#000000" points="514.581,-256.0285 524.5786,-252.5216 514.5762,-249.0285 514.581,-256.0285"/>
</g>
<!-- A&#45;&gt;C -->
<g id="edge16" class="edge">
<title>A:l3-&gt;C:l3</title>
<path fill="none" stroke="#000000" d="M361.5372,-228.5216C430.4618,-228.5216 450.2171,-228.5216 514.34,-228.5216"/>
<polygon fill="#000000" stroke="#000000" points="514.5786,-232.0217 524.5786,-228.5216 514.5786,-225.0217 514.5786,-232.0217"/>
</g>
<!-- B&#45;&gt;C -->
<g id="edge19" class="edge">
<title>B:l2-&gt;C:l2</title>
<path fill="none" stroke="#000000" d="M488.5786,-203.5216C500.5786,-203.5216 505.8286,-203.5216 514.4536,-203.5216"/>
<polygon fill="#000000" stroke="#000000" points="514.5786,-207.0217 524.5786,-203.5216 514.5786,-200.0217 514.5786,-207.0217"/>
</g>
<!-- B&#45;&gt;C -->
<g id="edge20" class="edge">
<title>B:l1-&gt;C:l1</title>
<path fill="none" stroke="#000000" d="M488.5786,-178.5216C500.5786,-178.5216 505.8286,-178.5216 514.4536,-178.5216"/>
<polygon fill="#000000" stroke="#000000" points="514.5786,-182.0217 524.5786,-178.5216 514.5786,-175.0217 514.5786,-182.0217"/>
</g>
<!-- B&#45;&gt;C -->
<g id="edge28" class="edge">
<title>B:backward-&gt;C:backward</title>
<path fill="none" stroke="#000000" d="M498.7036,-153.5216C507.3286,-153.5216 512.5786,-153.5216 524.5786,-153.5216"/>
<polygon fill="#000000" stroke="#000000" points="498.5786,-150.0217 488.5786,-153.5216 498.5786,-157.0217 498.5786,-150.0217"/>
</g>
<!-- n1 -->
<g id="node15" class="node">
<title>n1</title>
<text text-anchor="middle" x="678.2792" y="-116.3216" font-family="Times,serif" font-size="14.00" fill="#000000">NULL</text>
</g>
<!-- C&#45;&gt;n1 -->
<g id="edge25" class="edge">
<title>C:l1-&gt;n1</title>
<path fill="none" stroke="#000000" d="M616.0993,-178.5216C634.5231,-178.5216 630.181,-160.1244 643.62,-147.5216 644.4268,-146.7651 645.2533,-146.0076 646.0948,-145.2517"/>
<polygon fill="#000000" stroke="#000000" points="648.6035,-147.7123 653.9423,-138.5609 644.0619,-142.3856 648.6035,-147.7123"/>
</g>
<!-- n2 -->
<g id="node16" class="node">
<title>n2</title>
<text text-anchor="middle" x="678.2792" y="-170.3216" font-family="Times,serif" font-size="14.00" fill="#000000">NULL</text>
</g>
<!-- C&#45;&gt;n2 -->
<g id="edge24" class="edge">
<title>C:l2-&gt;n2</title>
<path fill="none" stroke="#000000" d="M616.0993,-203.5216C625.4591,-203.5216 634.9313,-200.7894 643.5651,-197.0022"/>
<polygon fill="#000000" stroke="#000000" points="645.1447,-200.1257 652.5596,-192.558 642.0439,-193.8499 645.1447,-200.1257"/>
</g>
<!-- n3 -->
<g id="node17" class="node">
<title>n3</title>
<text text-anchor="middle" x="678.2792" y="-224.3216" font-family="Times,serif" font-size="14.00" fill="#000000">NULL</text>
</g>
<!-- C&#45;&gt;n3 -->
<g id="edge23" class="edge">
<title>C:l3-&gt;n3</title>
<path fill="none" stroke="#000000" d="M616.0993,-228.5216C624.2209,-228.5216 632.9393,-228.5216 641.2022,-228.5216"/>
<polygon fill="#000000" stroke="#000000" points="641.3457,-232.0217 651.3457,-228.5216 641.3457,-225.0217 641.3457,-232.0217"/>
</g>
<!-- n4 -->
<g id="node18" class="node">
<title>n4</title>
<text text-anchor="middle" x="678.2792" y="-278.3216" font-family="Times,serif" font-size="14.00" fill="#000000">NULL</text>
</g>
<!-- C&#45;&gt;n4 -->
<g id="edge22" class="edge">
<title>C:l4-&gt;n4</title>
<path fill="none" stroke="#000000" d="M616.0993,-252.5216C625.8846,-252.5216 635.7526,-255.5727 644.6553,-259.7288"/>
<polygon fill="#000000" stroke="#000000" points="643.0565,-262.8424 653.5394,-264.3784 646.3024,-256.6405 643.0565,-262.8424"/>
</g>
<!-- n5 -->
<g id="node19" class="node">
<title>n5</title>
<text text-anchor="middle" x="678.2792" y="-332.3216" font-family="Times,serif" font-size="14.00" fill="#000000">NULL</text>
</g>
<!-- C&#45;&gt;n5 -->
<g id="edge21" class="edge">
<title>C:l5-&gt;n5</title>
<path fill="none" stroke="#000000" d="M616.0993,-277.5216C634.8577,-277.5216 630.0382,-296.5827 643.62,-309.5216 644.2965,-310.1661 644.9877,-310.8108 645.6905,-311.4541"/>
<polygon fill="#000000" stroke="#000000" points="643.6769,-314.3396 653.5327,-318.2271 648.2523,-309.0419 643.6769,-314.3396"/>
</g>
</g>
</svg>