<?xml version="1.0" encoding="UTF-8" standalone="no"?><!DOCTYPE svg PUBLIC "-//W3C//DTD SVG 1.1//EN" "http://www.w3.org/Graphics/SVG/1.1/DTD/svg11.dtd"><!-- Generated by graphviz version 2.40.1 (20161225.0304)
 --><!-- Title: %0 Pages: 1 --><svg xmlns="http://www.w3.org/2000/svg" xmlns:xlink="http://www.w3.org/1999/xlink" width="390pt" height="188pt" viewBox="0.00 0.00 390.20 188.20">
<g id="graph0" class="graph" transform="scale(1 1) rotate(0) translate(4 184.2)">
<title>%0</title>
<polygon fill="#ffffff" stroke="transparent" points="-4,4 -4,-184.2 386.2042,-184.2 386.2042,4 -4,4"/>
<text text-anchor="middle" x="191.1021" y="-8.2" font-family="Times,serif" font-size="14.00" fill="#000000"> 带有未使用空间的 SDS 示例</text>
<!-- sdshdr -->
<g id="node1" class="node">
<title>sdshdr</title>
<polygon fill="none" stroke="#000000" points="0,-46.9 0,-179.7 54,-179.7 54,-46.9 0,-46.9"/>
<text text-anchor="middle" x="27" y="-163.1" font-family="Times,serif" font-size="14.00" fill="#000000">sdshdr</text>
<polyline fill="none" stroke="#000000" points="0,-154.9 54,-154.9 "/>
<text text-anchor="middle" x="27" y="-138.3" font-family="Times,serif" font-size="14.00" fill="#000000">free </text>
<text text-anchor="middle" x="27" y="-121.5" font-family="Times,serif" font-size="14.00" fill="#000000"> 5</text>
<polyline fill="none" stroke="#000000" points="0,-113.3 54,-113.3 "/>
<text text-anchor="middle" x="27" y="-96.7" font-family="Times,serif" font-size="14.00" fill="#000000">len </text>
<text text-anchor="middle" x="27" y="-79.9" font-family="Times,serif" font-size="14.00" fill="#000000"> 5</text>
<polyline fill="none" stroke="#000000" points="0,-71.7 54,-71.7 "/>
<text text-anchor="middle" x="27" y="-55.1" font-family="Times,serif" font-size="14.00" fill="#000000">buf</text>
</g>
<!-- buf -->
<g id="node2" class="node">
<title>buf</title>
<polygon fill="none" stroke="#000000" points="90,-41.3 90,-77.3 382.2042,-77.3 382.2042,-41.3 90,-41.3"/>
<text text-anchor="middle" x="107.3289" y="-55.2" font-family="Times,serif" font-size="14.00" fill="#000000">'R'</text>
<polyline fill="none" stroke="#000000" points="124.6578,-41.5 124.6578,-77.3 "/>
<text text-anchor="middle" x="140.4257" y="-55.2" font-family="Times,serif" font-size="14.00" fill="#000000">'e'</text>
<polyline fill="none" stroke="#000000" points="156.1936,-41.5 156.1936,-77.3 "/>
<text text-anchor="middle" x="172.3542" y="-55.2" font-family="Times,serif" font-size="14.00" fill="#000000">'d'</text>
<polyline fill="none" stroke="#000000" points="188.5148,-41.5 188.5148,-77.3 "/>
<text text-anchor="middle" x="203.1207" y="-55.2" font-family="Times,serif" font-size="14.00" fill="#000000">'i'</text>
<polyline fill="none" stroke="#000000" points="217.7266,-41.5 217.7266,-77.3 "/>
<text text-anchor="middle" x="233.1095" y="-55.2" font-family="Times,serif" font-size="14.00" fill="#000000">'s'</text>
<polyline fill="none" stroke="#000000" points="248.4924,-41.5 248.4924,-77.3 "/>
<text text-anchor="middle" x="266.5983" y="-55.2" font-family="Times,serif" font-size="14.00" fill="#000000">'\0'</text>
<polyline fill="none" stroke="#000000" points="284.7042,-41.5 284.7042,-77.3 "/>
<text text-anchor="middle" x="294.4542" y="-55.2" font-family="Times,serif" font-size="14.00" fill="#000000"> </text>
<polyline fill="none" stroke="#000000" points="304.2042,-41.5 304.2042,-77.3 "/>
<text text-anchor="middle" x="313.9542" y="-55.2" font-family="Times,serif" font-size="14.00" fill="#000000"> </text>
<polyline fill="none" stroke="#000000" points="323.7042,-41.5 323.7042,-77.3 "/>
<text text-anchor="middle" x="333.4542" y="-55.2" font-family="Times,serif" font-size="14.00" fill="#000000"> </text>
<polyline fill="none" stroke="#000000" points="343.2042,-41.5 343.2042,-77.3 "/>
<text text-anchor="middle" x="352.9542" y="-55.2" font-family="Times,serif" font-size="14.00" fill="#000000"> </text>
<polyline fill="none" stroke="#000000" points="362.7042,-41.5 362.7042,-77.3 "/>
<text text-anchor="middle" x="372.4542" y="-55.2" font-family="Times,serif" font-size="14.00" fill="#000000"> </text>
</g>
<!-- sdshdr&#45;&gt;buf -->
<g id="edge1" class="edge">
<title>sdshdr:buf-&gt;buf</title>
<path fill="none" stroke="#000000" d="M54,-59.3C62.4076,-59.3 71.0335,-59.3 79.7418,-59.3"/>
<polygon fill="#000000" stroke="#000000" points="79.9941,-62.8001 89.9941,-59.3 79.994,-55.8001 79.9941,-62.8001"/>
</g>
</g>
</svg>