<?xml version="1.0" encoding="UTF-8" standalone="no"?><!DOCTYPE svg PUBLIC "-//W3C//DTD SVG 1.1//EN" "http://www.w3.org/Graphics/SVG/1.1/DTD/svg11.dtd"><!-- Generated by graphviz version 2.40.1 (20161225.0304)
 --><!-- Title: %0 Pages: 1 --><svg xmlns="http://www.w3.org/2000/svg" xmlns:xlink="http://www.w3.org/1999/xlink" width="540pt" height="314pt" viewBox="0.00 0.00 540.47 313.70">
<g id="graph0" class="graph" transform="scale(1 1) rotate(0) translate(4 309.7)">
<title>%0</title>
<polygon fill="#ffffff" stroke="transparent" points="-4,4 -4,-309.7 536.4714,-309.7 536.4714,4 -4,4"/>
<text text-anchor="middle" x="266.2357" y="-8.2" font-family="Times,serif" font-size="14.00" fill="#000000"> 包含键值对的字典</text>
<!-- dict -->
<g id="node1" class="node">
<title>dict</title>
<polygon fill="none" stroke="#000000" points="0,-41.3 0,-182.1 73.925,-182.1 73.925,-41.3 0,-41.3"/>
<text text-anchor="middle" x="36.9625" y="-165.5" font-family="Times,serif" font-size="14.00" fill="#000000">dict</text>
<polyline fill="none" stroke="#000000" points="0,-157.3 73.925,-157.3 "/>
<text text-anchor="middle" x="36.9625" y="-140.7" font-family="Times,serif" font-size="14.00" fill="#000000">type</text>
<polyline fill="none" stroke="#000000" points="0,-132.5 73.925,-132.5 "/>
<text text-anchor="middle" x="36.9625" y="-115.9" font-family="Times,serif" font-size="14.00" fill="#000000">privdata</text>
<polyline fill="none" stroke="#000000" points="0,-107.7 73.925,-107.7 "/>
<text text-anchor="middle" x="36.9625" y="-91.1" font-family="Times,serif" font-size="14.00" fill="#000000">ht</text>
<polyline fill="none" stroke="#000000" points="0,-82.9 73.925,-82.9 "/>
<text text-anchor="middle" x="36.9625" y="-66.3" font-family="Times,serif" font-size="14.00" fill="#000000">rehashidx </text>
<text text-anchor="middle" x="36.9625" y="-49.5" font-family="Times,serif" font-size="14.00" fill="#000000"> -1</text>
</g>
<!-- dictht0 -->
<g id="node2" class="node">
<title>dictht0</title>
<polygon fill="none" stroke="#000000" points="137.1368,-112.5 137.1368,-286.9 207.951,-286.9 207.951,-112.5 137.1368,-112.5"/>
<text text-anchor="middle" x="172.5439" y="-270.3" font-family="Times,serif" font-size="14.00" fill="#000000">dictht</text>
<polyline fill="none" stroke="#000000" points="137.1368,-262.1 207.951,-262.1 "/>
<text text-anchor="middle" x="172.5439" y="-245.5" font-family="Times,serif" font-size="14.00" fill="#000000">table</text>
<polyline fill="none" stroke="#000000" points="137.1368,-237.3 207.951,-237.3 "/>
<text text-anchor="middle" x="172.5439" y="-220.7" font-family="Times,serif" font-size="14.00" fill="#000000">size </text>
<text text-anchor="middle" x="172.5439" y="-203.9" font-family="Times,serif" font-size="14.00" fill="#000000"> 4</text>
<polyline fill="none" stroke="#000000" points="137.1368,-195.7 207.951,-195.7 "/>
<text text-anchor="middle" x="172.5439" y="-179.1" font-family="Times,serif" font-size="14.00" fill="#000000">sizemask </text>
<text text-anchor="middle" x="172.5439" y="-162.3" font-family="Times,serif" font-size="14.00" fill="#000000"> 3</text>
<polyline fill="none" stroke="#000000" points="137.1368,-154.1 207.951,-154.1 "/>
<text text-anchor="middle" x="172.5439" y="-137.5" font-family="Times,serif" font-size="14.00" fill="#000000">used </text>
<text text-anchor="middle" x="172.5439" y="-120.7" font-family="Times,serif" font-size="14.00" fill="#000000"> 1</text>
</g>
<!-- dict&#45;&gt;dictht0 -->
<g id="edge1" class="edge">
<title>dict:ht-&gt;dictht0:head</title>
<path fill="none" stroke="#000000" d="M73.925,-95.7C92.5591,-95.7 111.4238,-235.2051 130.112,-267.9016"/>
<polygon fill="#000000" stroke="#000000" points="127.803,-270.5329 137.5439,-274.7 132.5277,-265.3679 127.803,-270.5329"/>
<text text-anchor="middle" x="105.5309" y="-239.9" font-family="Times,serif" font-size="14.00" fill="#000000">ht[0]</text>
</g>
<!-- dictht1 -->
<g id="node3" class="node">
<title>dictht1</title>
<text text-anchor="middle" x="172.5439" y="-71.5" font-family="Times,serif" font-size="14.00" fill="#000000">...</text>
</g>
<!-- dict&#45;&gt;dictht1 -->
<g id="edge2" class="edge">
<title>dict:ht-&gt;dictht1:head</title>
<path fill="none" stroke="#000000" d="M73.925,-95.7C94.5613,-95.7 117.1507,-91.4417 135.497,-86.8549"/>
<polygon fill="#000000" stroke="#000000" points="136.4335,-90.2277 145.2135,-84.2979 134.652,-83.4582 136.4335,-90.2277"/>
<text text-anchor="middle" x="105.5309" y="-98.9" font-family="Times,serif" font-size="14.00" fill="#000000">ht[1]</text>
</g>
<!-- table0 -->
<g id="node4" class="node">
<title>table0</title>
<polygon fill="none" stroke="#000000" points="244.951,-137.7 244.951,-261.7 336.3718,-261.7 336.3718,-137.7 244.951,-137.7"/>
<text text-anchor="middle" x="290.6614" y="-245.1" font-family="Times,serif" font-size="14.00" fill="#000000">dictEntry*[4]</text>
<polyline fill="none" stroke="#000000" points="244.951,-236.9 336.3718,-236.9 "/>
<text text-anchor="middle" x="290.6614" y="-220.3" font-family="Times,serif" font-size="14.00" fill="#000000">0</text>
<polyline fill="none" stroke="#000000" points="244.951,-212.1 336.3718,-212.1 "/>
<text text-anchor="middle" x="290.6614" y="-195.5" font-family="Times,serif" font-size="14.00" fill="#000000">1</text>
<polyline fill="none" stroke="#000000" points="244.951,-187.3 336.3718,-187.3 "/>
<text text-anchor="middle" x="290.6614" y="-170.7" font-family="Times,serif" font-size="14.00" fill="#000000">2</text>
<polyline fill="none" stroke="#000000" points="244.951,-162.5 336.3718,-162.5 "/>
<text text-anchor="middle" x="290.6614" y="-145.9" font-family="Times,serif" font-size="14.00" fill="#000000">3</text>
</g>
<!-- dictht0&#45;&gt;table0 -->
<g id="edge3" class="edge">
<title>dictht0:table-&gt;table0:head</title>
<path fill="none" stroke="#000000" d="M207.5439,-249.7C220.1428,-249.7 225.581,-249.7 234.7115,-249.7"/>
<polygon fill="#000000" stroke="#000000" points="234.951,-253.2001 244.951,-249.7 234.951,-246.2001 234.951,-253.2001"/>
</g>
<!-- dictEntry -->
<g id="node5" class="node">
<title>dictEntry</title>
<polygon fill="none" stroke="#000000" points="373.3718,-250.9 373.3718,-300.5 441.4714,-300.5 441.4714,-250.9 373.3718,-250.9"/>
<text text-anchor="middle" x="407.4216" y="-283.9" font-family="Times,serif" font-size="14.00" fill="#000000">dictEntry</text>
<polyline fill="none" stroke="#000000" points="373.3718,-275.7 441.4714,-275.7 "/>
<text text-anchor="middle" x="390.3718" y="-259.1" font-family="Times,serif" font-size="14.00" fill="#000000">k0</text>
<polyline fill="none" stroke="#000000" points="407.3718,-250.9 407.3718,-275.7 "/>
<text text-anchor="middle" x="424.3718" y="-259.1" font-family="Times,serif" font-size="14.00" fill="#000000">v0</text>
</g>
<!-- table0&#45;&gt;dictEntry -->
<g id="edge4" class="edge">
<title>table0:0-&gt;dictEntry:head</title>
<path fill="none" stroke="#000000" d="M336.3718,-224.7C364.5407,-224.7 347.2884,-272.0769 363.3923,-284.6614"/>
<polygon fill="#000000" stroke="#000000" points="362.8363,-288.15 373.4216,-287.7 364.8661,-281.4507 362.8363,-288.15"/>
</g>
<!-- null1 -->
<g id="node7" class="node">
<title>null1</title>
<text text-anchor="middle" x="407.4216" y="-210.5" font-family="Times,serif" font-size="14.00" fill="#000000">NULL</text>
</g>
<!-- table0&#45;&gt;null1 -->
<g id="edge6" class="edge">
<title>table0:1-&gt;null1</title>
<path fill="none" stroke="#000000" d="M336.3718,-199.7C347.5496,-199.7 359.5074,-201.4993 370.3641,-203.8516"/>
<polygon fill="#000000" stroke="#000000" points="369.8354,-207.3235 380.3743,-206.2356 371.4572,-200.5139 369.8354,-207.3235"/>
</g>
<!-- null2 -->
<g id="node8" class="node">
<title>null2</title>
<text text-anchor="middle" x="407.4216" y="-156.5" font-family="Times,serif" font-size="14.00" fill="#000000">NULL</text>
</g>
<!-- table0&#45;&gt;null2 -->
<g id="edge7" class="edge">
<title>table0:2-&gt;null2</title>
<path fill="none" stroke="#000000" d="M336.3718,-174.7C347.5188,-174.7 359.4672,-173.0206 370.3246,-170.8252"/>
<polygon fill="#000000" stroke="#000000" points="371.3356,-174.186 380.3383,-168.6001 369.8172,-167.3527 371.3356,-174.186"/>
</g>
<!-- null3 -->
<g id="node9" class="node">
<title>null3</title>
<text text-anchor="middle" x="407.4216" y="-102.5" font-family="Times,serif" font-size="14.00" fill="#000000">NULL</text>
</g>
<!-- table0&#45;&gt;null3 -->
<g id="edge8" class="edge">
<title>table0:3-&gt;null3</title>
<path fill="none" stroke="#000000" d="M336.3718,-149.7C344.8689,-149.7 360.6031,-140.5846 375.1089,-130.7477"/>
<polygon fill="#000000" stroke="#000000" points="377.2429,-133.5266 383.4438,-124.9359 373.2391,-127.7846 377.2429,-133.5266"/>
</g>
<!-- null0 -->
<g id="node6" class="node">
<title>null0</title>
<text text-anchor="middle" x="505.4714" y="-283.5" font-family="Times,serif" font-size="14.00" fill="#000000">NULL</text>
</g>
<!-- dictEntry&#45;&gt;null0 -->
<g id="edge5" class="edge">
<title>dictEntry:head-&gt;null0</title>
<path fill="none" stroke="#000000" d="M441.4216,-287.7C450.1332,-287.7 459.5114,-287.7 468.3322,-287.7"/>
<polygon fill="#000000" stroke="#000000" points="468.3578,-291.2001 478.3577,-287.7 468.3577,-284.2001 468.3578,-291.2001"/>
</g>
</g>
</svg>