<?xml version="1.0" encoding="UTF-8" standalone="no"?><!DOCTYPE svg PUBLIC "-//W3C//DTD SVG 1.1//EN" "http://www.w3.org/Graphics/SVG/1.1/DTD/svg11.dtd"><!-- Generated by graphviz version 2.40.1 (20161225.0304)
 --><!-- Title: %0 Pages: 1 --><svg xmlns="http://www.w3.org/2000/svg" xmlns:xlink="http://www.w3.org/1999/xlink" width="545pt" height="175pt" viewBox="0.00 0.00 544.63 174.60">
<g id="graph0" class="graph" transform="scale(1 1) rotate(0) translate(4 170.6)">
<title>%0</title>
<polygon fill="#ffffff" stroke="transparent" points="-4,4 -4,-170.6 540.6294,-170.6 540.6294,4 -4,4"/>
<text text-anchor="middle" x="268.3147" y="-8.2" font-family="Times,serif" font-size="14.00" fill="#000000"> 哈希对象的压缩列表底层实现</text>
<!-- ziplist -->
<g id="node1" class="node">
<title>ziplist</title>
<polygon fill="none" stroke="#000000" points="0,-41.3 0,-77.3 536.6294,-77.3 536.6294,-41.3 0,-41.3"/>
<text text-anchor="middle" x="27.8275" y="-55.1" font-family="Times,serif" font-size="14.00" fill="#000000">zlbytes</text>
<polyline fill="none" stroke="#000000" points="55.655,-41.3 55.655,-77.3 "/>
<text text-anchor="middle" x="77.6508" y="-55.1" font-family="Times,serif" font-size="14.00" fill="#000000">zltail</text>
<polyline fill="none" stroke="#000000" points="99.6466,-41.3 99.6466,-77.3 "/>
<text text-anchor="middle" x="121.2518" y="-55.1" font-family="Times,serif" font-size="14.00" fill="#000000">zllen</text>
<polyline fill="none" stroke="#000000" points="142.857,-41.3 142.857,-77.3 "/>
<text text-anchor="middle" x="171.7275" y="-55.1" font-family="Times,serif" font-size="14.00" fill="#000000">"name"</text>
<polyline fill="none" stroke="#000000" points="200.598,-41.3 200.598,-77.3 "/>
<text text-anchor="middle" x="227.5302" y="-55.1" font-family="Times,serif" font-size="14.00" fill="#000000">"Tom"</text>
<polyline fill="none" stroke="#000000" points="254.4624,-41.3 254.4624,-77.3 "/>
<text text-anchor="middle" x="277.8876" y="-55.1" font-family="Times,serif" font-size="14.00" fill="#000000">"age"</text>
<polyline fill="none" stroke="#000000" points="301.3128,-41.3 301.3128,-77.3 "/>
<text text-anchor="middle" x="316.3128" y="-55.1" font-family="Times,serif" font-size="14.00" fill="#000000">25</text>
<polyline fill="none" stroke="#000000" points="331.3128,-41.3 331.3128,-77.3 "/>
<text text-anchor="middle" x="362.1132" y="-55.1" font-family="Times,serif" font-size="14.00" fill="#000000">"career"</text>
<polyline fill="none" stroke="#000000" points="392.9136,-41.3 392.9136,-77.3 "/>
<text text-anchor="middle" x="441.6116" y="-55.1" font-family="Times,serif" font-size="14.00" fill="#000000">"Programmer"</text>
<polyline fill="none" stroke="#000000" points="490.3096,-41.3 490.3096,-77.3 "/>
<text text-anchor="middle" x="513.4695" y="-55.1" font-family="Times,serif" font-size="14.00" fill="#000000">zlend</text>
</g>
<!-- kv1 -->
<g id="node2" class="node">
<title>kv1</title>
<text text-anchor="middle" x="134.3147" y="-144.4" font-family="Times,serif" font-size="14.00" fill="#000000">第一个添加的键值对</text>
</g>
<!-- kv1&#45;&gt;ziplist -->
<g id="edge1" class="edge">
<title>kv1-&gt;ziplist:key1</title>
<path fill="none" stroke="#000000" stroke-dasharray="5,2" d="M149.7916,-130.5566C158.188,-119.2263 167.4382,-103.7198 170.3699,-87.4775"/>
<polygon fill="#000000" stroke="#000000" points="173.8753,-87.5807 171.3147,-77.3 166.9053,-86.9336 173.8753,-87.5807"/>
<text text-anchor="middle" x="179.0093" y="-100" font-family="Times,serif" font-size="14.00" fill="#000000">键</text>
</g>
<!-- kv1&#45;&gt;ziplist -->
<g id="edge2" class="edge">
<title>kv1-&gt;ziplist:value1</title>
<path fill="none" stroke="#000000" stroke-dasharray="5,2" d="M184.6254,-130.5661C203.4566,-120.7917 221.4488,-106.6592 226.1367,-87.2538"/>
<polygon fill="#000000" stroke="#000000" points="229.6151,-87.6421 227.3147,-77.3 222.6636,-86.8193 229.6151,-87.6421"/>
<text text-anchor="middle" x="233.8147" y="-100" font-family="Times,serif" font-size="14.00" fill="#000000">值</text>
</g>
<!-- kv2 -->
<g id="node3" class="node">
<title>kv2</title>
<text text-anchor="middle" x="304.3147" y="-144.4" font-family="Times,serif" font-size="14.00" fill="#000000">第二个添加的键值对</text>
</g>
<!-- kv2&#45;&gt;ziplist -->
<g id="edge3" class="edge">
<title>kv2-&gt;ziplist:key2</title>
<path fill="none" stroke="#000000" stroke-dasharray="5,2" d="M293.7395,-130.4943C287.8347,-118.9828 281.2379,-103.3295 279.0579,-87.6026"/>
<polygon fill="#000000" stroke="#000000" points="282.5252,-87.0222 278.3147,-77.3 275.5433,-87.5259 282.5252,-87.0222"/>
</g>
<!-- kv2&#45;&gt;ziplist -->
<g id="edge4" class="edge">
<title>kv2-&gt;ziplist:value2</title>
<path fill="none" stroke="#000000" stroke-dasharray="5,2" d="M309.0574,-130.5714C311.8089,-118.8154 314.9298,-102.8319 315.9625,-87.3511"/>
<polygon fill="#000000" stroke="#000000" points="319.4622,-87.4165 316.3147,-77.3 312.4665,-87.1713 319.4622,-87.4165"/>
</g>
<!-- kvN -->
<g id="node4" class="node">
<title>kvN</title>
<text text-anchor="middle" x="465.3147" y="-144.4" font-family="Times,serif" font-size="14.00" fill="#000000">最新添加的键值对</text>
</g>
<!-- kvN&#45;&gt;ziplist -->
<g id="edge5" class="edge">
<title>kvN-&gt;ziplist:key3</title>
<path fill="none" stroke="#000000" stroke-dasharray="5,2" d="M406.5937,-130.5865C386.7157,-121.0871 368.3018,-107.1929 363.516,-87.4615"/>
<polygon fill="#000000" stroke="#000000" points="366.9646,-86.8199 362.3147,-77.3 360.0131,-87.6418 366.9646,-86.8199"/>
</g>
<!-- kvN&#45;&gt;ziplist -->
<g id="edge6" class="edge">
<title>kvN-&gt;ziplist:value3</title>
<path fill="none" stroke="#000000" stroke-dasharray="5,2" d="M455.553,-130.3993C450.1024,-118.847 444.0131,-103.1725 442.0007,-87.5306"/>
<polygon fill="#000000" stroke="#000000" points="445.476,-87.0434 441.3147,-77.3 438.4917,-87.5118 445.476,-87.0434"/>
</g>
</g>
</svg>