<?xml version="1.0" encoding="UTF-8" standalone="no"?><!DOCTYPE svg PUBLIC "-//W3C//DTD SVG 1.1//EN" "http://www.w3.org/Graphics/SVG/1.1/DTD/svg11.dtd"><!-- Generated by graphviz version 2.40.1 (20161225.0304)
 --><!-- Title: %0 Pages: 1 --><svg xmlns="http://www.w3.org/2000/svg" xmlns:xlink="http://www.w3.org/1999/xlink" width="382pt" height="86pt" viewBox="0.00 0.00 382.08 85.80">
<g id="graph0" class="graph" transform="scale(1 1) rotate(0) translate(4 81.8)">
<title>%0</title>
<polygon fill="#ffffff" stroke="transparent" points="-4,4 -4,-81.8 378.0808,-81.8 378.0808,4 -4,4"/>
<text text-anchor="middle" x="187.0404" y="-8.2" font-family="Times,serif" font-size="14.00" fill="#000000"> 压缩列表的各个组成部分</text>
<!-- ziplist -->
<g id="node1" class="node">
<title>ziplist</title>
<polygon fill="none" stroke="#000000" points="0,-41.3 0,-77.3 374.0808,-77.3 374.0808,-41.3 0,-41.3"/>
<text text-anchor="middle" x="27.8275" y="-55.1" font-family="Times,serif" font-size="14.00" fill="#000000">zlbytes</text>
<polyline fill="none" stroke="#000000" points="55.655,-41.3 55.655,-77.3 "/>
<text text-anchor="middle" x="77.6508" y="-55.1" font-family="Times,serif" font-size="14.00" fill="#000000">zltail</text>
<polyline fill="none" stroke="#000000" points="99.6466,-41.3 99.6466,-77.3 "/>
<text text-anchor="middle" x="121.2518" y="-55.1" font-family="Times,serif" font-size="14.00" fill="#000000">zllen</text>
<polyline fill="none" stroke="#000000" points="142.857,-41.3 142.857,-77.3 "/>
<text text-anchor="middle" x="168.7399" y="-55.1" font-family="Times,serif" font-size="14.00" fill="#000000">entry1</text>
<polyline fill="none" stroke="#000000" points="194.6228,-41.3 194.6228,-77.3 "/>
<text text-anchor="middle" x="220.5057" y="-55.1" font-family="Times,serif" font-size="14.00" fill="#000000">entry2</text>
<polyline fill="none" stroke="#000000" points="246.3886,-41.3 246.3886,-77.3 "/>
<text text-anchor="middle" x="259.6386" y="-55.1" font-family="Times,serif" font-size="14.00" fill="#000000">...</text>
<polyline fill="none" stroke="#000000" points="272.8886,-41.3 272.8886,-77.3 "/>
<text text-anchor="middle" x="300.3248" y="-55.1" font-family="Times,serif" font-size="14.00" fill="#000000">entryN</text>
<polyline fill="none" stroke="#000000" points="327.761,-41.3 327.761,-77.3 "/>
<text text-anchor="middle" x="350.9209" y="-55.1" font-family="Times,serif" font-size="14.00" fill="#000000">zlend</text>
</g>
</g>
</svg>