<?xml version="1.0" encoding="UTF-8" standalone="no"?><!DOCTYPE svg PUBLIC "-//W3C//DTD SVG 1.1//EN" "http://www.w3.org/Graphics/SVG/1.1/DTD/svg11.dtd"><!-- Generated by graphviz version 2.40.1 (20161225.0304)
 --><!-- Title: %0 Pages: 1 --><svg xmlns="http://www.w3.org/2000/svg" xmlns:xlink="http://www.w3.org/1999/xlink" width="395pt" height="252pt" viewBox="0.00 0.00 394.90 252.10">
<g id="graph0" class="graph" transform="scale(1 1) rotate(0) translate(4 248.1)">
<title>%0</title>
<polygon fill="#ffffff" stroke="transparent" points="-4,4 -4,-248.1 390.9026,-248.1 390.9026,4 -4,4"/>
<text text-anchor="middle" x="193.4513" y="-8.2" font-family="Times,serif" font-size="14.00" fill="#000000"> skiplist 编码的有序集合对象</text>
<!-- redisObject -->
<g id="node1" class="node">
<title>redisObject</title>
<polygon fill="none" stroke="#000000" points="0,-86 0,-243.6 206.9026,-243.6 206.9026,-86 0,-86"/>
<text text-anchor="middle" x="103.4513" y="-227" font-family="Times,serif" font-size="14.00" fill="#000000">redisObject</text>
<polyline fill="none" stroke="#000000" points="0,-218.8 206.9026,-218.8 "/>
<text text-anchor="middle" x="103.4513" y="-202.2" font-family="Times,serif" font-size="14.00" fill="#000000">type </text>
<text text-anchor="middle" x="103.4513" y="-185.4" font-family="Times,serif" font-size="14.00" fill="#000000"> REDIS_ZSET</text>
<polyline fill="none" stroke="#000000" points="0,-177.2 206.9026,-177.2 "/>
<text text-anchor="middle" x="103.4513" y="-160.6" font-family="Times,serif" font-size="14.00" fill="#000000">encoding </text>
<text text-anchor="middle" x="103.4513" y="-143.8" font-family="Times,serif" font-size="14.00" fill="#000000"> REDIS_ENCODING_SKIPLIST</text>
<polyline fill="none" stroke="#000000" points="0,-135.6 206.9026,-135.6 "/>
<text text-anchor="middle" x="103.4513" y="-119" font-family="Times,serif" font-size="14.00" fill="#000000">ptr</text>
<polyline fill="none" stroke="#000000" points="0,-110.8 206.9026,-110.8 "/>
<text text-anchor="middle" x="103.4513" y="-94.2" font-family="Times,serif" font-size="14.00" fill="#000000">...</text>
</g>
<!-- zset -->
<g id="node2" class="node">
<title>zset</title>
<polygon fill="none" stroke="#000000" points="242.9026,-60.6 242.9026,-135 296.9026,-135 296.9026,-60.6 242.9026,-60.6"/>
<text text-anchor="middle" x="269.9026" y="-118.4" font-family="Times,serif" font-size="14.00" fill="#000000">zset</text>
<polyline fill="none" stroke="#000000" points="242.9026,-110.2 296.9026,-110.2 "/>
<text text-anchor="middle" x="269.9026" y="-93.6" font-family="Times,serif" font-size="14.00" fill="#000000">dict</text>
<polyline fill="none" stroke="#000000" points="242.9026,-85.4 296.9026,-85.4 "/>
<text text-anchor="middle" x="269.9026" y="-68.8" font-family="Times,serif" font-size="14.00" fill="#000000">zsl</text>
</g>
<!-- redisObject&#45;&gt;zset -->
<g id="edge1" class="edge">
<title>redisObject:ptr-&gt;zset:head</title>
<path fill="none" stroke="#000000" d="M206.4513,-122.8C218.6017,-122.8 223.9175,-122.8 232.6507,-122.8"/>
<polygon fill="#000000" stroke="#000000" points="232.9026,-126.3001 242.9026,-122.8 232.9026,-119.3001 232.9026,-126.3001"/>
</g>
<!-- dict -->
<g id="node3" class="node">
<title>dict</title>
<text text-anchor="middle" x="359.9026" y="-108.6" font-family="Times,serif" font-size="14.00" fill="#000000">...</text>
</g>
<!-- zset&#45;&gt;dict -->
<g id="edge2" class="edge">
<title>zset:dict-&gt;dict</title>
<path fill="none" stroke="#000000" d="M296.9026,-97.8C305.3754,-97.8 314.3192,-99.0998 322.7224,-100.9342"/>
<polygon fill="#000000" stroke="#000000" points="322.0887,-104.3828 332.6365,-103.3854 323.7689,-97.5875 322.0887,-104.3828"/>
</g>
<!-- zsl -->
<g id="node4" class="node">
<title>zsl</title>
<text text-anchor="middle" x="359.9026" y="-54.6" font-family="Times,serif" font-size="14.00" fill="#000000">...</text>
</g>
<!-- zset&#45;&gt;zsl -->
<g id="edge3" class="edge">
<title>zset:zsl-&gt;zsl</title>
<path fill="none" stroke="#000000" d="M296.9026,-72.8C305.3461,-72.8 314.2778,-71.5868 322.6786,-69.8747"/>
<polygon fill="#000000" stroke="#000000" points="323.6369,-73.2457 332.594,-67.5869 322.063,-66.4249 323.6369,-73.2457"/>
</g>
</g>
</svg>